<svg id="Layer_1" enable-background="new 0 0 512 512" height="512" viewBox="0 0 512 512" width="512" xmlns="http://www.w3.org/2000/svg" xmlns:xlink="http://www.w3.org/1999/xlink"><linearGradient id="SVGID_1_" gradientUnits="userSpaceOnUse" x1="75.994" x2="436.006" y1="256" y2="256"><stop offset="0" stop-color="#80d8ff"/><stop offset="1" stop-color="#ea80fc"/></linearGradient><path d="m256 192c52.935 0 96-43.065 96-96s-43.065-96-96-96-96 43.065-96 96 43.066 96 96 96zm0-152c30.879 0 56 25.122 56 56s-25.121 56-56 56-56-25.122-56-56 25.121-56 56-56zm179.591 447.977-48.47-236c-3.85-18.748-29.478-21.866-37.673-4.522l-36.283 76.775-9.693-70.938c-1.354-9.907-9.816-17.292-19.815-17.292h-55.314c-9.999 0-18.462 7.385-19.815 17.292l-9.693 70.938-36.283-76.775c-8.177-17.305-33.814-14.268-37.673 4.522l-48.47 236c-2.547 12.404 6.944 24.023 19.591 24.023h320c12.664 0 22.135-11.635 19.591-24.023zm-189.795-211.978h20.408l15.645 114.496-25.849 54.698-25.849-54.698zm-125.27 196.001 31.476-153.256 72.426 153.256zm167.046 0 72.427-153.256 31.476 153.256z" fill="url(#SVGID_1_)"/></svg>