<svg id="Layer_1" enable-background="new 0 0 511.182 511.182" height="512" viewBox="0 0 511.182 511.182" width="512" xmlns="http://www.w3.org/2000/svg" xmlns:xlink="http://www.w3.org/1999/xlink"><linearGradient id="SVGID_1_" gradientUnits="userSpaceOnUse" x1="0" x2="511.182" y1="255.591" y2="255.591"><stop offset="0" stop-color="#80d8ff"/><stop offset="1" stop-color="#ea80fc"/></linearGradient><path d="m491.182 113.591h-95.591v-56c0-11.046-8.954-20-20-20h-240c-11.046 0-20 8.954-20 20v56h-95.591c-11.046 0-20 8.954-20 20v320c0 11.046 8.954 20 20 20h471.182c11.046 0 20-8.954 20-20 0-176.802 0-311.002 0-320 0-11.046-8.954-20-20-20zm-335.591-36h200v36h-200zm-115.591 76h431.182v45.67l-215.591 73.208-215.591-73.208zm0 280v-192.087l209.16 71.025c4.17 1.416 8.691 1.416 12.861 0l209.16-71.025v192.087z" fill="url(#SVGID_1_)"/></svg>