<svg id="Layer_1" enable-background="new 0 0 512.004 512.004" height="512" viewBox="0 0 512.004 512.004" width="512" xmlns="http://www.w3.org/2000/svg" xmlns:xlink="http://www.w3.org/1999/xlink"><linearGradient id="SVGID_1_" gradientUnits="userSpaceOnUse" x1="0" x2="512.004" y1="256.002" y2="256.002"><stop offset="0" stop-color="#80d8ff"/><stop offset="1" stop-color="#ea80fc"/></linearGradient><path d="m318.132 352.121c0 13.807-11.193 25-25 25-4.555 0-8.822-1.224-12.5-3.353-3.678 2.129-7.945 3.353-12.5 3.353-13.807 0-25-11.193-25-25s11.193-25 25-25c4.555 0 8.822 1.224 12.5 3.353 3.678-2.129 7.945-3.353 12.5-3.353 13.807 0 25 11.193 25 25zm-171.206-20h-63.463c-11.046 0-20 8.954-20 20s8.954 20 20 20h63.463c11.046 0 20-8.954 20-20s-8.954-20-20-20zm352.437-21.185-114.814 45.466v79.101c0 11.045-8.954 20-20 20h-344.549c-11.046 0-20-8.955-20-20v-232.142c0-11.045 8.954-20 20-20h62.368l316.799-125.45c10.268-4.064 21.893.962 25.958 11.231l85.47 215.835c4.066 10.269-.968 21.894-11.232 25.959zm-308.351-127.575h88.722l127.592-50.526-12.027-30.371zm153.537 40c-8.631 0-288.147 0-304.549 0v192.142h304.549zm121.492 57.748-43.988-111.083-44.93 17.792c4.527 3.667 7.426 9.264 7.426 15.543v110.019z" fill="url(#SVGID_1_)"/></svg>