<svg id="Layer_1" enable-background="new 0 0 512 512" height="512" viewBox="0 0 512 512" width="512" xmlns="http://www.w3.org/2000/svg" xmlns:xlink="http://www.w3.org/1999/xlink"><linearGradient id="SVGID_1_" gradientUnits="userSpaceOnUse" x1="8.281" x2="503.719" y1="256" y2="256"><stop offset="0" stop-color="#80d8ff"/><stop offset="1" stop-color="#ea80fc"/></linearGradient><path d="m464.28 279.818c1.739-15.329 1.86-31.234 0-47.636l34.679-40.811c5.475-6.442 6.307-15.629 2.08-22.951l-46.674-80.842c-4.227-7.321-12.599-11.195-20.916-9.674l-52.69 9.629c-12.827-9.517-26.646-17.507-41.259-23.855l-17.99-50.402c-2.842-7.961-10.382-13.276-18.836-13.276h-93.348c-8.454 0-15.994 5.315-18.836 13.277l-17.99 50.402c-14.612 6.348-28.432 14.339-41.259 23.855l-52.69-9.629c-8.312-1.517-16.689 2.353-20.916 9.674l-46.674 80.842c-4.227 7.321-3.395 16.509 2.08 22.951l34.679 40.811c-1.739 15.329-1.86 31.234 0 47.636l-34.679 40.811c-5.475 6.442-6.307 15.629-2.08 22.951l46.674 80.842c4.227 7.321 12.595 11.19 20.916 9.674l52.69-9.629c12.827 9.517 26.646 17.507 41.259 23.855l17.99 50.402c2.842 7.962 10.382 13.277 18.836 13.277h93.348c8.454 0 15.994-5.315 18.836-13.277l17.99-50.402c14.612-6.348 28.432-14.339 41.259-23.855l52.69 9.629c8.313 1.518 16.688-2.353 20.916-9.674l46.674-80.842c4.227-7.321 3.395-16.509-2.08-22.951zm-40.768-50.655c2.822 17.777 2.826 35.875 0 53.675-.915 5.764.733 11.639 4.513 16.086l31.325 36.864-32.576 56.425-47.618-8.703c-5.753-1.049-11.678.468-16.215 4.158-14.006 11.391-29.621 20.42-46.413 26.836-5.459 2.086-9.732 6.456-11.697 11.959l-16.255 45.537h-65.152l-16.254-45.537c-1.965-5.504-6.238-9.874-11.697-11.959-16.792-6.416-32.407-15.445-46.413-26.836-4.536-3.69-10.461-5.207-16.215-4.158l-47.618 8.703-32.577-56.425 31.325-36.864c3.779-4.447 5.428-10.322 4.513-16.086-2.822-17.777-2.826-35.875 0-53.675.915-5.764-.733-11.639-4.513-16.086l-31.325-36.865 32.576-56.425 47.618 8.703c5.753 1.049 11.678-.468 16.215-4.158 14.006-11.391 29.621-20.42 46.413-26.836 5.459-2.086 9.732-6.456 11.697-11.959l16.255-45.537h65.152l16.254 45.537c1.965 5.504 6.238 9.874 11.697 11.959 16.792 6.416 32.407 15.445 46.413 26.836 4.536 3.69 10.465 5.209 16.215 4.158l47.618-8.703 32.576 56.425-31.325 36.864c-3.779 4.447-5.427 10.323-4.512 16.087zm-167.512-73.163c-55.141 0-100 44.86-100 100s44.859 100 100 100 100-44.86 100-100-44.859-100-100-100zm0 160c-33.084 0-60-26.916-60-60s26.916-60 60-60 60 26.916 60 60-26.916 60-60 60zm25-60c0 13.807-11.193 25-25 25s-25-11.193-25-25 11.193-25 25-25 25 11.193 25 25z" fill="url(#SVGID_1_)"/></svg>