<svg id="Layer_1" enable-background="new 0 0 512 512" height="512" viewBox="0 0 512 512" width="512" xmlns="http://www.w3.org/2000/svg" xmlns:xlink="http://www.w3.org/1999/xlink"><linearGradient id="SVGID_1_" gradientUnits="userSpaceOnUse" x1="0" x2="512" y1="256" y2="256"><stop offset="0" stop-color="#80d8ff"/><stop offset="1" stop-color="#ea80fc"/></linearGradient><path d="m231 271.883c0-13.807 11.193-25 25-25s25 11.193 25 25-11.193 25-25 25-25-11.193-25-25zm160 25c13.807 0 25-11.193 25-25s-11.193-25-25-25-25 11.193-25 25 11.193 25 25 25zm-135 100c13.807 0 25-11.193 25-25s-11.193-25-25-25-25 11.193-25 25 11.193 25 25 25zm-135 0c13.807 0 25-11.193 25-25s-11.193-25-25-25-25 11.193-25 25 11.193 25 25 25zm391-300.883v358c0 11.046-8.954 20-20 20h-472c-11.046 0-20-8.954-20-20 0-34.898 0-338.596 0-358 0-11.046 8.954-20 20-20h98v-18c0-11.046 8.954-20 20-20s20 8.954 20 20v18h196v-18c0-11.046 8.954-20 20-20s20 8.954 20 20v18h98c11.046 0 20 8.954 20 20zm-472 73.766h432v-53.766h-78v18c0 11.046-8.954 20-20 20s-20-8.954-20-20v-18h-196v18c0 11.046-8.954 20-20 20s-20-8.954-20-20v-18h-78zm432 40h-432v224.234h432z" fill="url(#SVGID_1_)"/></svg>