<svg id="Layer_1" enable-background="new 0 0 511.766 511.766" height="512" viewBox="0 0 511.766 511.766" width="512" xmlns="http://www.w3.org/2000/svg" xmlns:xlink="http://www.w3.org/1999/xlink"><linearGradient id="SVGID_1_" gradientUnits="userSpaceOnUse" x1="75.875" x2="435.89" y1="255.883" y2="255.883"><stop offset="0" stop-color="#80d8ff"/><stop offset="1" stop-color="#ea80fc"/></linearGradient><path d="m435.38 487.309-34.744-152c-2.079-9.094-10.168-15.543-19.497-15.543h-12.549c30.389-46.395 52.214-99.358 52.214-154.845 0-90.938-73.984-164.921-164.921-164.921s-164.921 73.983-164.921 164.921c0 55.47 21.811 108.43 52.214 154.845h-12.549c-9.329 0-17.418 6.449-19.497 15.543l-34.744 152c-2.86 12.512 6.66 24.457 19.497 24.457h320c12.835 0 22.357-11.942 19.497-24.457zm-179.497-447.309c68.882 0 124.921 56.04 124.921 124.921 0 83.782-63.083 168.682-124.921 224.457-61.858-55.794-124.921-140.678-124.921-224.457 0-68.881 56.039-124.921 124.921-124.921zm-134.913 431.766 25.601-112h26.026c35.531 43.47 69.375 70.495 70.861 71.673 7.278 5.769 17.57 5.77 24.849 0 1.486-1.178 35.33-28.202 70.861-71.673h26.026l25.601 112zm134.913-281.845c-13.807 0-25-11.193-25-25s11.193-25 25-25 25 11.193 25 25-11.193 25-25 25zm94.875-25c0-52.314-42.561-94.875-94.875-94.875s-94.875 42.561-94.875 94.875 42.561 94.875 94.875 94.875 94.875-42.561 94.875-94.875zm-149.751 0c0-30.258 24.617-54.875 54.875-54.875s54.875 24.617 54.875 54.875-24.617 54.875-54.875 54.875-54.875-24.617-54.875-54.875z" fill="url(#SVGID_1_)"/></svg>