<svg id="Layer_1" enable-background="new 0 0 512.026 512.026" height="512" viewBox="0 0 512.026 512.026" width="512" xmlns="http://www.w3.org/2000/svg" xmlns:xlink="http://www.w3.org/1999/xlink"><linearGradient id="SVGID_1_" gradientUnits="userSpaceOnUse" x1="0" x2="512.026" y1="256.013" y2="256.013"><stop offset="0" stop-color="#80d8ff"/><stop offset="1" stop-color="#ea80fc"/></linearGradient><path d="m100 354.016h-80c-11.046 0-20 8.954-20 20v118c0 11.046 8.954 20 20 20h80c11.046 0 20-8.954 20-20v-118c0-11.046-8.954-20-20-20zm-20 118h-40v-78h40zm188.735-236h-80c-11.046 0-20 8.954-20 20v236c0 11.046 8.954 20 20 20h80c11.046 0 20-8.954 20-20v-236c0-11.046-8.954-20-20-20zm-20 236h-40v-196h40zm259.574-336.627-90.117-126.95c-8.171-11.513-24.837-10.96-32.616-.001l-90.128 126.95c-9.38 13.214.082 31.578 16.309 31.578h30.122v325.05c0 11.046 8.954 20 20 20h80c11.046 0 20-8.954 20-20v-325.05h30.121c16.203 0 25.702-18.346 16.309-31.577zm-66.43-8.423c-11.046 0-20 8.955-20 20v325.05h-40v-325.05c0-11.045-8.954-20-20-20h-11.396l51.399-72.4 51.394 72.4z" fill="url(#SVGID_1_)"/></svg>