<svg id="Layer_1" enable-background="new 0 0 512 512" height="512" viewBox="0 0 512 512" width="512" xmlns="http://www.w3.org/2000/svg" xmlns:xlink="http://www.w3.org/1999/xlink"><linearGradient id="lg1"><stop offset="0" stop-color="#80d8ff"/><stop offset="1" stop-color="#ea80fc"/></linearGradient><linearGradient id="SVGID_1_" gradientUnits="userSpaceOnUse" x1="158" x2="355" xlink:href="#lg1" y1="174.5" y2="174.5"/><linearGradient id="SVGID_2_" gradientUnits="userSpaceOnUse" x1="0" x2="512" xlink:href="#lg1" y1="256" y2="256"/><g><path d="m256.5 76c-54.313 0-98.5 44.187-98.5 98.5s44.187 98.5 98.5 98.5 98.5-44.187 98.5-98.5-44.187-98.5-98.5-98.5zm0 157c-32.257 0-58.5-26.243-58.5-58.5s26.243-58.5 58.5-58.5 58.5 26.243 58.5 58.5-26.243 58.5-58.5 58.5z" fill="url(#SVGID_1_)"/><path d="m256 0c-141.483 0-256 114.497-256 256 0 141.484 114.497 256 256 256 141.483 0 256-114.497 256-256 0-141.484-114.497-256-256-256zm-91.31 451.72 23.972-116.72h22.701l30.494 30.495c7.811 7.811 20.475 7.811 28.285 0l30.495-30.495h22.701l23.972 116.72c-27.751 13-58.694 20.28-91.31 20.28s-63.559-7.28-91.31-20.28zm219.012-21.628-24.464-119.115c-1.91-9.301-10.096-15.977-19.591-15.977h-47.295c-5.305 0-10.392 2.107-14.143 5.858l-22.209 22.21-22.21-22.21c-3.751-3.751-8.838-5.858-14.143-5.858h-47.295c-9.495 0-17.681 6.676-19.591 15.977l-24.464 119.115c-53.504-39.353-88.297-102.731-88.297-174.092 0-119.103 96.897-216 216-216s216 96.897 216 216c0 71.361-34.793 134.739-88.298 174.092z" fill="url(#SVGID_2_)"/></g></svg>