<svg id="Layer_1" enable-background="new 0 0 512 512" height="512" viewBox="0 0 512 512" width="512" xmlns="http://www.w3.org/2000/svg" xmlns:xlink="http://www.w3.org/1999/xlink"><linearGradient id="SVGID_1_" gradientUnits="userSpaceOnUse" x1="75.993" x2="436.007" y1="256" y2="256"><stop offset="0" stop-color="#80d8ff"/><stop offset="1" stop-color="#ea80fc"/></linearGradient><path d="m256 192c52.935 0 96-43.065 96-96s-43.066-96-96-96-96 43.065-96 96 43.065 96 96 96zm0-152c30.878 0 56 25.122 56 56s-25.122 56-56 56-56-25.122-56-56 25.121-56 56-56zm179.591 447.977-48.47-236c-1.91-9.301-10.096-15.977-19.591-15.977h-63.061c-5.304 0-10.392 2.107-14.142 5.858l-34.327 34.328-34.328-34.328c-3.75-3.75-8.838-5.858-14.142-5.858h-63.061c-9.495 0-17.681 6.676-19.591 15.977l-48.47 236c-2.542 12.38 6.919 24.023 19.592 24.023h320c12.638 0 22.14-11.61 19.591-24.023zm-315.066-15.977 40.255-196h38.466l42.612 42.612c7.811 7.811 20.474 7.811 28.284 0l42.612-42.612h38.466l40.255 196z" fill="url(#SVGID_1_)"/></svg>