<svg id="Layer_1" enable-background="new 0 0 512.005 512.005" height="512" viewBox="0 0 512.005 512.005" width="512" xmlns="http://www.w3.org/2000/svg" xmlns:xlink="http://www.w3.org/1999/xlink"><linearGradient id="SVGID_1_" gradientUnits="userSpaceOnUse" x1=".003" x2="512.003" y1="256.003" y2="256.003"><stop offset="0" stop-color="#80d8ff"/><stop offset="1" stop-color="#ea80fc"/></linearGradient><path d="m488.416.329-250.729 45.707h-158.185c-11.046 0-20 8.954-20 20v9.969h-39.5c-11.046 0-20 8.954-20 20v160c0 11.046 8.954 20 20 20h39.499v18.378c0 11.046 8.954 20 20 20h11.453l40.512 181.968c2.037 9.147 10.151 15.654 19.522 15.654h105.014c12.784 0 22.303-11.857 19.522-24.346l-38.577-173.276h.739l250.728 45.707c12.278 2.236 23.587-7.202 23.587-19.676v-320.409c.002-12.465-11.3-21.913-23.585-19.676zm-388.914 85.707h119.994v188.347c-14.643 0-106.608 0-119.994 0 0-7.812 0-181.484 0-188.347zm-59.5 149.969v-120h19.499v120zm191.058 236h-64.034l-35.092-157.622h64.034zm240.943-155.567-212.507-38.739v-194.98l212.507-38.739z" fill="url(#SVGID_1_)"/></svg>