<svg id="Layer_1" enable-background="new 0 0 512 512" height="512" viewBox="0 0 512 512" width="512" xmlns="http://www.w3.org/2000/svg" xmlns:xlink="http://www.w3.org/1999/xlink"><linearGradient id="SVGID_1_" gradientUnits="userSpaceOnUse" x1="0" x2="512" y1="256" y2="256"><stop offset="0" stop-color="#80d8ff"/><stop offset="1" stop-color="#ea80fc"/></linearGradient><path d="m492 38c-14.755 0-463.39 0-472 0-11.046 0-20 8.954-20 20v396c0 11.046 8.954 20 20 20h472c11.046 0 20-8.954 20-20 0-11.175 0-393.663 0-396 0-11.046-8.954-20-20-20zm-20 76h-245.716l-36-36h281.716zm0 320h-432v-356h93.716l70.142 70.142c3.75 3.751 8.838 5.858 14.142 5.858h254zm-198-79c0-11.046 8.954-20 20-20h99c11.046 0 20 8.954 20 20s-8.954 20-20 20h-99c-11.046 0-20-8.954-20-20z" fill="url(#SVGID_1_)"/></svg>