<svg id="Layer_1" enable-background="new 0 0 512 512" height="512" viewBox="0 0 512 512" width="512" xmlns="http://www.w3.org/2000/svg" xmlns:xlink="http://www.w3.org/1999/xlink"><linearGradient id="SVGID_1_" gradientUnits="userSpaceOnUse" x1="0" x2="512" y1="256" y2="256"><stop offset="0" stop-color="#80d8ff"/><stop offset="1" stop-color="#ea80fc"/></linearGradient><path d="m492 0h-472c-11.046 0-20 8.954-20 20v396c0 11.046 8.954 20 20 20h148.256l-11.756 51.554c-2.852 12.507 6.666 24.446 19.5 24.446h160c12.829 0 22.353-11.934 19.5-24.446l-11.756-51.554h148.256c11.046 0 20-8.954 20-20v-396c0-11.046-8.954-20-20-20zm-181.074 472h-109.852l8.209-36h93.434zm161.074-76c-47.817 0-392.598 0-432 0v-356h432zm-362.384-94.507c-7.811-7.811-7.811-20.474 0-28.284l83.906-83.906c7.811-7.811 20.474-7.811 28.284 0l48.749 48.749 69.402-69.402h-23.126c-11.046 0-20-8.954-20-20s8.954-20 20-20h71.411c11.063 0 20 9.011 20 20v71.411c0 11.046-8.954 20-20 20s-20-8.954-20-20v-23.127l-83.544 83.544c-7.811 7.811-20.474 7.811-28.284 0l-48.749-48.749-69.765 69.764c-7.81 7.811-20.473 7.811-28.284 0z" fill="url(#SVGID_1_)"/></svg>