<svg id="Layer_1" enable-background="new 0 0 512 512" height="512" viewBox="0 0 512 512" width="512" xmlns="http://www.w3.org/2000/svg" xmlns:xlink="http://www.w3.org/1999/xlink"><linearGradient id="SVGID_1_" gradientUnits="userSpaceOnUse" x1="0" x2="512" y1="256" y2="256"><stop offset="0" stop-color="#80d8ff"/><stop offset="1" stop-color="#ea80fc"/></linearGradient><path d="m294 38c-113.462 0-206.941 87.135-217.073 198h-20.079l-22.706-22.706c-7.811-7.811-20.474-7.811-28.284 0s-7.811 20.474 0 28.284l14.422 14.422-14.422 14.422c-7.811 7.811-7.811 20.474 0 28.284 7.81 7.81 20.473 7.811 28.284 0l22.706-22.706h20.078c10.133 110.865 103.612 198 217.074 198 120.206 0 218-97.794 218-218s-97.794-218-218-218zm0 396c-91.388 0-166.898-69.232-176.87-158h73.789c9.366 48.364 52.022 85 103.081 85 57.897 0 105-47.103 105-105s-47.103-105-105-105c-51.059 0-93.715 36.636-103.081 85h-73.789c9.972-88.768 85.482-158 176.87-158 98.149 0 178 79.851 178 178s-79.851 178-178 178zm0-198h-61.838c8.457-26.083 32.974-45 61.838-45 35.841 0 65 29.159 65 65s-29.159 65-65 65c-28.864 0-53.381-18.917-61.838-45h61.838c11.046 0 20-8.954 20-20s-8.954-20-20-20z" fill="url(#SVGID_1_)"/></svg>