<svg id="Layer_1" enable-background="new 0 0 512 512" height="512" viewBox="0 0 512 512" width="512" xmlns="http://www.w3.org/2000/svg" xmlns:xlink="http://www.w3.org/1999/xlink"><linearGradient id="SVGID_1_" gradientUnits="userSpaceOnUse" x1="0" x2="512" y1="256" y2="256"><stop offset="0" stop-color="#80d8ff"/><stop offset="1" stop-color="#ea80fc"/></linearGradient><path d="m492 76h-153.072v-56c0-11.046-8.954-20-20-20h-125.856c-11.046 0-20 8.954-20 20v56h-153.072c-11.046 0-20 8.954-20 20v396c0 11.046 8.954 20 20 20h472c11.046 0 20-8.954 20-20v-396c0-11.046-8.954-20-20-20zm-278.928-36h85.855v36h-85.855zm258.928 432h-432v-356h432zm-296-200c31.981 0 58-26.019 58-58s-26.019-58-58-58-58 26.019-58 58 26.019 58 58 58zm0-76c9.925 0 18 8.075 18 18s-8.075 18-18 18-18-8.075-18-18 8.075-18 18-18zm75.226 109.161c-2.139-9.019-10.192-15.386-19.461-15.386h-111.53c-9.269 0-17.322 6.368-19.461 15.386l-24.235 102.225c-2.966 12.516 6.514 24.614 19.461 24.614h160c12.863 0 22.446-12.016 19.461-24.614zm-129.93 86.839 14.752-62.225h79.904l14.752 62.225zm197.632-160.629h97.072c11.046 0 20 8.954 20 20s-8.954 20-20 20h-97.072c-11.046 0-20-8.954-20-20s8.954-20 20-20zm117.072 105.258c0 11.046-8.954 20-20 20h-97.072c-11.046 0-20-8.954-20-20s8.954-20 20-20h97.072c11.046 0 20 8.954 20 20z" fill="url(#SVGID_1_)"/></svg>