<svg id="Layer_1" enable-background="new 0 0 512 512" height="512" viewBox="0 0 512 512" width="512" xmlns="http://www.w3.org/2000/svg" xmlns:xlink="http://www.w3.org/1999/xlink"><linearGradient id="SVGID_1_" gradientUnits="userSpaceOnUse" x1="0" x2="512" y1="256" y2="256"><stop offset="0" stop-color="#80d8ff"/><stop offset="1" stop-color="#ea80fc"/></linearGradient><path d="m202.374 186.551c27.298 0 49.507-22.208 49.507-49.507s-22.209-49.507-49.507-49.507-49.507 22.208-49.507 49.507 22.209 49.507 49.507 49.507zm0-59.014c5.242 0 9.507 4.265 9.507 9.507s-4.265 9.507-9.507 9.507-9.507-4.265-9.507-9.507 4.265-9.507 9.507-9.507zm62.762 85.682c-2.139-9.018-10.192-15.386-19.461-15.386h-86.603c-9.269 0-17.322 6.368-19.461 15.386l-18.818 79.377c-2.965 12.515 6.512 24.614 19.461 24.614h124.239c12.863 0 22.446-12.016 19.461-24.614zm-99.586 63.991 9.335-39.377h54.978l9.335 39.377zm340.593 146.908-76-76c-7.811-7.811-20.475-7.811-28.285 0l-12.728 12.728-30.28-30.28c28.667-34.929 45.897-79.584 45.897-128.192 0-111.59-90.784-202.374-202.373-202.374-111.59 0-202.374 90.784-202.374 202.374s90.784 202.374 202.374 202.374c48.607 0 93.263-17.23 128.191-45.897l30.28 30.28-12.728 12.728c-7.81 7.811-7.81 20.474 0 28.284l76 76c7.81 7.81 20.474 7.811 28.285 0l53.74-53.74c7.81-7.812 7.81-20.475.001-28.285zm-466.143-221.744c0-89.534 72.841-162.374 162.374-162.374s162.373 72.84 162.373 162.374-72.84 162.374-162.373 162.374-162.374-72.841-162.374-162.374zm398.26 261.342-47.716-47.716 25.456-25.456 47.716 47.716z" fill="url(#SVGID_1_)"/></svg>