<svg id="Layer_1" enable-background="new 0 0 512.008 512.008" height="512" viewBox="0 0 512.008 512.008" width="512" xmlns="http://www.w3.org/2000/svg" xmlns:xlink="http://www.w3.org/1999/xlink"><linearGradient id="SVGID_1_" gradientUnits="userSpaceOnUse" x1="0" x2="512.008" y1="256.004" y2="256.004"><stop offset="0" stop-color="#80d8ff"/><stop offset="1" stop-color="#ea80fc"/></linearGradient><path d="m100.007 314.004c31.981 0 58-26.019 58-58s-26.019-58-58-58-58 26.019-58 58 26.019 58 58 58zm0-76c9.925 0 18 8.075 18 18s-8.075 18-18 18-18-8.075-18-18 8.075-18 18-18zm75.225 109.162c-2.138-9.019-10.192-15.387-19.46-15.387h-111.53c-9.269 0-17.323 6.368-19.46 15.387l-24.235 102.225c-2.968 12.515 6.514 24.613 19.46 24.613h160c12.863 0 22.448-12.016 19.46-24.613zm-129.929 86.838 14.752-62.225h79.904l14.752 62.225zm446.705-396h-280.674c-11.046 0-20 8.954-20 20v236c0 11.046 8.954 20 20 20h75.649l-18.682 57.854c-3.395 10.511 2.375 21.784 12.887 25.178 10.545 3.408 21.796-2.412 25.178-12.887l22.65-70.146h45.309l22.65 70.146c3.37 10.44 14.595 16.303 25.178 12.887 10.511-3.394 16.281-14.667 12.887-25.178l-18.682-57.854h75.649c11.046 0 20-8.954 20-20v-236c.001-11.046-8.953-20-19.999-20zm-20 236c-27.091 0-218.243 0-240.674 0v-196h240.674zm-214.988-44.226c-7.811-7.811-7.811-20.475 0-28.285l50.864-50.864c7.812-7.809 20.475-7.81 28.284 0l26.737 26.736 55.133-55.134c7.811-7.811 20.474-7.811 28.284 0s7.811 20.475 0 28.285l-69.275 69.275c-7.811 7.81-20.474 7.812-28.284 0l-26.737-26.736-36.722 36.723c-7.81 7.81-20.475 7.809-28.284 0z" fill="url(#SVGID_1_)"/></svg>