<svg id="Layer_1" enable-background="new 0 0 512.024 512.024" height="512" viewBox="0 0 512.024 512.024" width="512" xmlns="http://www.w3.org/2000/svg" xmlns:xlink="http://www.w3.org/1999/xlink"><linearGradient id="SVGID_1_" gradientUnits="userSpaceOnUse" x1="10.125" x2="501.899" y1="256.012" y2="256.012"><stop offset="0" stop-color="#80d8ff"/><stop offset="1" stop-color="#ea80fc"/></linearGradient><path d="m501.899 276.42c0-59.586-43.506-109.195-100.419-118.75v-137.67c0-11.046-8.955-20-20-20h-351.355c-11.045 0-20 8.954-20 20v396c0 11.046 8.955 20 20 20h278.391v56c0 15.648 17.23 25.254 30.545 16.994l42.418-26.321 42.418 26.321c13.18 8.18 30.545-1.2 30.545-16.994v-119.852c28.824-22.022 47.457-56.737 47.457-95.728zm-451.774 119.58v-356h311.355v117.67c-27.417 4.603-51.72 18.498-69.548 38.33h-174.17c-11.046 0-20 8.954-20 20s8.954 20 20 20h150.284c-4.518 12.64-6.987 26.246-6.987 40.42 0 9.077 1.016 17.92 2.929 26.428h-146.226c-11.046 0-20 8.954-20 20s8.954 20 20 20h163.33c7.454 11.227 16.738 21.135 27.424 29.3v23.852zm364.318 60.052-22.418-13.911c-6.459-4.008-14.632-4.008-21.091 0l-22.418 13.911v-63.799c21.462 6.116 44.458 6.118 65.927 0zm-32.963-99.213c-44.344 0-80.42-36.076-80.42-80.419 0-44.344 36.076-80.42 80.42-80.42 44.343 0 80.419 36.076 80.419 80.42 0 44.343-36.076 80.419-80.419 80.419zm-235.806-247.687c0-11.046 8.954-20 20-20h80.256c11.046 0 20 8.954 20 20s-8.954 20-20 20h-80.256c-11.045 0-20-8.954-20-20z" fill="url(#SVGID_1_)"/></svg>