<svg id="Layer_1" enable-background="new 0 0 511.624 511.624" height="512" viewBox="0 0 511.624 511.624" width="512" xmlns="http://www.w3.org/2000/svg" xmlns:xlink="http://www.w3.org/1999/xlink"><linearGradient id="SVGID_1_" gradientUnits="userSpaceOnUse" x1="58.686" x2="452.939" y1="255.812" y2="255.812"><stop offset="0" stop-color="#80d8ff"/><stop offset="1" stop-color="#ea80fc"/></linearGradient><path d="m265.203 292.2v-28.823c12.832.987 16.583 7.305 23.098 7.305 8.687 0 12.24-10.858 12.24-16.188 0-13.622-23.098-16.781-35.338-17.176v-4.936c0-2.764-3.751-5.33-7.502-5.33-4.343 0-7.501 2.566-7.501 5.33v5.528c-20.926 2.961-39.484 15.003-39.484 40.075 0 25.27 21.321 33.759 39.484 40.668v31.982c-14.609-2.566-21.321-14.214-29.613-14.214-7.502 0-13.425 9.87-13.425 16.583 0 12.635 19.347 24.874 43.038 25.664v4.936c0 2.764 3.159 5.33 7.501 5.33 3.751 0 7.502-2.566 7.502-5.33v-5.726c23.098-3.751 38.892-18.557 38.892-43.037-.001-26.651-20.928-35.929-38.892-42.641zm-13.03-4.738c-7.502-3.159-12.635-6.713-12.635-12.438 0-4.738 3.751-9.278 12.635-11.056zm11.056 62.976v-26.454c7.106 3.355 12.042 7.502 12.042 14.017 0 7.106-5.33 10.857-12.042 12.437zm96.193-207.422c18.795-20.476 46.532-62.09 40.25-125.003-1.022-10.226-9.626-18.013-19.902-18.013h-247.891c-10.275 0-18.879 7.787-19.9 18.013-6.282 62.913 21.454 104.527 40.249 125.003-77.614 95.26-113.821 224.302-82.029 353.391 2.201 8.936 10.216 15.217 19.42 15.217h332.412c9.203 0 17.219-6.281 19.42-15.217 31.791-129.093-4.601-258.356-82.029-353.391zm1.077-103.016c-1.445 45.002-25.735 72.083-36.093 81.634h-137.168c-10.23-9.449-34.617-36.597-36.083-81.634zm45.521 431.624h-300.391c-23.263-115.235 14.163-230.244 83.218-309.99h133.981c68.791 79.172 106.489 194.578 83.192 309.99z" fill="url(#SVGID_1_)"/></svg>