<svg id="Layer_1" enable-background="new 0 0 512 512" height="512" viewBox="0 0 512 512" width="512" xmlns="http://www.w3.org/2000/svg" xmlns:xlink="http://www.w3.org/1999/xlink"><linearGradient id="SVGID_1_" gradientUnits="userSpaceOnUse" x1="0" x2="512" y1="256" y2="256"><stop offset="0" stop-color="#80d8ff"/><stop offset="1" stop-color="#ea80fc"/></linearGradient><path d="m334.021 120.767-58.021-34.169v-66.598c0-11.046-8.954-20-20-20h-236c-11.046 0-20 8.954-20 20v236c0 11.046 8.954 20 20 20h236c11.046 0 20-8.954 20-20v-66.599l58.021-34.168c13.115-7.72 13.124-26.738 0-34.466zm-88.169 39.968c-6.104 3.594-9.852 10.149-9.852 17.233v58.032h-196v-196h196v58.03c0 7.084 3.747 13.64 9.852 17.233l38.607 22.737zm246.148 75.264h-20.873c1.856-5.67 2.873-11.717 2.873-17.999 0-31.981-26.019-58-58-58s-58 26.019-58 58c0 6.282 1.017 12.329 2.873 17.999h-20.873c-11.046 0-20 8.954-20 20v76c0 11.046 8.954 20 20 20h18v140.001c0 11.046 8.954 20 20 20h76c11.046 0 20-8.954 20-20v-140.001h18c11.046 0 20-8.954 20-20v-76c0-11.046-8.954-20-20-20zm-94-17.999c0-9.925 8.075-18 18-18s18 8.075 18 18c0 9.918-8.065 17.988-17.981 17.999h-.039c-9.915-.011-17.98-8.081-17.98-17.999zm-38 57.999h112v36c-37.623 0-89.268 0-112 0zm74 196.001h-36v-120.001h36z" fill="url(#SVGID_1_)"/></svg>