<svg id="Layer_1" enable-background="new 0 0 512 512" height="512" viewBox="0 0 512 512" width="512" xmlns="http://www.w3.org/2000/svg" xmlns:xlink="http://www.w3.org/1999/xlink"><linearGradient id="SVGID_1_" gradientUnits="userSpaceOnUse" x1="0" x2="512" y1="256" y2="256"><stop offset="0" stop-color="#80d8ff"/><stop offset="1" stop-color="#ea80fc"/></linearGradient><path d="m274.067 155.937h-13.297l-19.656-41.444c-3.311-6.98-10.345-11.43-18.071-11.43h-41.34c-7.726 0-14.76 4.449-18.071 11.43l-19.656 41.444h-13.296c-11.046 0-20 8.954-20 20v105.749c0 11.046 8.954 20 20 20h143.387c11.046 0 20-8.954 20-20v-105.749c0-11.046-8.954-20-20-20zm-79.713-12.874h16.041l6.106 12.874h-28.252zm59.713 118.622h-103.387v-65.749h103.387zm252.075 162.433-76-76c-7.811-7.811-20.474-7.811-28.284 0l-12.728 12.728-30.28-30.28c28.667-34.929 45.898-79.585 45.898-128.192 0-111.59-90.785-202.374-202.374-202.374s-202.374 90.784-202.374 202.374 90.784 202.374 202.374 202.374c48.607 0 93.263-17.23 128.192-45.898l30.28 30.28-12.728 12.728c-7.811 7.811-7.811 20.474 0 28.284l76 76c7.81 7.81 20.473 7.811 28.284 0l53.74-53.74c7.811-7.811 7.811-20.474 0-28.284zm-466.142-221.744c0-89.534 72.84-162.374 162.374-162.374s162.374 72.84 162.374 162.374-72.841 162.374-162.374 162.374-162.374-72.841-162.374-162.374zm398.26 261.342-47.716-47.716 25.456-25.456 47.716 47.716z" fill="url(#SVGID_1_)"/></svg>