<svg id="Layer_1" enable-background="new 0 0 512 512" height="512" viewBox="0 0 512 512" width="512" xmlns="http://www.w3.org/2000/svg" xmlns:xlink="http://www.w3.org/1999/xlink"><linearGradient id="SVGID_1_" gradientUnits="userSpaceOnUse" x1="38" x2="474" y1="256" y2="256"><stop offset="0" stop-color="#80d8ff"/><stop offset="1" stop-color="#ea80fc"/></linearGradient><path d="m256 0c-120.479 0-218 97.505-218 218 0 81.852 45.901 156.521 118 193.759v80.241c0 11.046 8.954 20 20 20h160c11.046 0 20-8.954 20-20v-80.241c72.099-37.238 118-111.907 118-193.759 0-120.479-97.505-218-218-218zm71.912 380.878c-7.241 3.202-11.912 10.374-11.912 18.292v72.83h-120v-72.83c0-7.918-4.671-15.09-11.912-18.292-64.446-28.494-106.088-92.428-106.088-162.878 0-98.149 79.851-178 178-178s178 79.851 178 178c0 70.45-41.642 134.384-106.088 162.878zm-3.065-101.022c7.811 7.811 7.811 20.475 0 28.285l-48.847 48.847v58.039c0 11.046-8.954 20-20 20s-20-8.954-20-20v-58.039l-48.847-48.847c-7.811-7.811-7.811-20.475 0-28.285s20.475-7.811 28.285 0l40.562 40.563 40.562-40.563c7.81-7.81 20.474-7.81 28.285 0z" fill="url(#SVGID_1_)"/></svg>