<svg id="Layer_1" enable-background="new 0 0 512 512" height="512" viewBox="0 0 512 512" width="512" xmlns="http://www.w3.org/2000/svg" xmlns:xlink="http://www.w3.org/1999/xlink"><linearGradient id="SVGID_1_" gradientUnits="userSpaceOnUse" x1="0" x2="512" y1="256" y2="256"><stop offset="0" stop-color="#80d8ff"/><stop offset="1" stop-color="#ea80fc"/></linearGradient><path d="m512 214.734c0-5.945-2.678-11.634-7.267-15.423l-110.733-91.422v-87.783c0-11.046-8.954-20-20-20h-236c-11.046 0-20 8.954-20 20v87.783l-110.733 91.422c-4.583 3.784-7.267 9.476-7.267 15.423v277.158c0 11.01 8.999 20 20 20h471.931c.017 0 .035.002.052.002 11.117 0 20.017-9.058 20.017-20.002zm-472 38.858 139.639 99.721-139.639 99.721zm216 94.341 173.58 123.959h-347.16zm76.361 5.38 139.639-99.721v199.441zm126.834-139.728-65.195 46.558v-100.383zm-105.195-173.479v248.603l-56.052 40.029-30.325-21.656c-6.953-4.967-16.293-4.967-23.246 0l-30.325 21.656-56.052-40.03c0-12.301 0-239.111 0-248.603h196zm-236 220.037-65.195-46.558 65.195-53.824z" fill="url(#SVGID_1_)"/></svg>