<svg id="Layer_1" enable-background="new 0 0 512 512" height="512" viewBox="0 0 512 512" width="512" xmlns="http://www.w3.org/2000/svg" xmlns:xlink="http://www.w3.org/1999/xlink"><linearGradient id="SVGID_1_" gradientUnits="userSpaceOnUse" x1="0" x2="512" y1="256" y2="256"><stop offset="0" stop-color="#80d8ff"/><stop offset="1" stop-color="#ea80fc"/></linearGradient><path d="m492 .083h-472c-11.046 0-20 8.954-20 20v366.455c0 11.046 8.954 20 20 20h162.505l56.262 95.54c7.723 13.114 26.74 13.124 34.468 0l56.262-95.54h162.503c11.046 0 20-8.954 20-20v-366.455c0-11.046-8.954-20-20-20zm-20 366.455h-153.937c-7.084 0-13.64 3.747-17.233 9.852l-44.83 76.125-44.829-76.126c-3.595-6.104-10.15-9.852-17.234-9.852h-153.937v-326.454h432zm-241-163.121c0-13.807 11.193-25 25-25s25 11.193 25 25-11.193 25-25 25-25-11.193-25-25zm135 0c0-13.807 11.193-25 25-25s25 11.193 25 25-11.193 25-25 25-25-11.193-25-25zm-270 0c0-13.807 11.193-25 25-25s25 11.193 25 25-11.193 25-25 25-25-11.193-25-25z" fill="url(#SVGID_1_)"/></svg>