<svg id="Layer_1" enable-background="new 0 0 512.121 512.121" height="512" viewBox="0 0 512.121 512.121" width="512" xmlns="http://www.w3.org/2000/svg" xmlns:xlink="http://www.w3.org/1999/xlink"><linearGradient id="SVGID_1_" gradientUnits="userSpaceOnUse" x1="0" x2="512.121" y1="256.061" y2="256.061"><stop offset="0" stop-color="#80d8ff"/><stop offset="1" stop-color="#ea80fc"/></linearGradient><path d="m476.723 45.253-136.233 162.79-65.979-157.675c-6.839-16.339-30.061-16.338-36.9 0l-65.979 157.675-136.234-162.79c-13.625-16.278-39.997-2.737-34.707 17.819l75.369 292.922v98.095c0 11.046 8.954 20 20 20h320c11.046 0 20-8.954 20-20v-98.095l75.37-292.922c5.289-20.555-21.08-34.097-34.707-17.819zm-80.663 388.836h-280v-60.627h280zm4.495-100.627h-288.989l-50.107-194.741 100.594 120.204c9.605 11.477 28.005 8.702 33.788-5.115l60.22-143.91 60.22 143.91c5.777 13.805 24.175 16.602 33.788 5.115l100.594-120.204z" fill="url(#SVGID_1_)"/></svg>