<svg id="Layer_1" enable-background="new 0 0 512 512" height="512" viewBox="0 0 512 512" width="512" xmlns="http://www.w3.org/2000/svg" xmlns:xlink="http://www.w3.org/1999/xlink"><linearGradient id="SVGID_1_" gradientUnits="userSpaceOnUse" x1="52.638" x2="459.362" y1="256" y2="256"><stop offset="0" stop-color="#80d8ff"/><stop offset="1" stop-color="#ea80fc"/></linearGradient><path d="m439.362 76h-105.058v-56c0-11.046-8.954-20-20-20h-116.608c-11.046 0-20 8.954-20 20v56h-105.058c-11.046 0-20 8.954-20 20v396c0 11.046 8.954 20 20 20h366.725c11.046 0 20-8.954 20-20v-396c-.001-11.046-8.955-20-20.001-20zm-221.666-36h76.607v36h-76.607zm201.666 432h-326.724v-356h326.725v356zm-191.272-289.133c7.81 7.811 7.81 20.475 0 28.285l-46.672 46.672c-7.811 7.809-20.479 7.805-28.285-.001l-21.278-21.279c-7.811-7.811-7.81-20.474.001-28.284 7.811-7.809 20.476-7.81 28.284.001l7.136 7.137 32.529-32.53c7.81-7.811 20.474-7.811 28.285-.001zm57.329 17.479h80.584c11.046 0 20 8.954 20 20s-8.954 20-20 20h-80.584c-11.046 0-20-8.954-20-20s8.954-20 20-20zm-57.329 129.83c7.81 7.811 7.81 20.475 0 28.285l-46.672 46.672c-7.811 7.811-20.476 7.809-28.285 0l-21.278-21.278c-7.811-7.811-7.811-20.475 0-28.285s20.475-7.811 28.285 0l7.136 7.137 32.529-32.53c7.81-7.812 20.474-7.812 28.285-.001zm157.913 37.478c0 11.046-8.954 20-20 20h-80.584c-11.046 0-20-8.954-20-20s8.954-20 20-20h80.584c11.046 0 20 8.954 20 20z" fill="url(#SVGID_1_)"/></svg>