<svg id="Layer_1" enable-background="new 0 0 512 512" height="512" viewBox="0 0 512 512" width="512" xmlns="http://www.w3.org/2000/svg" xmlns:xlink="http://www.w3.org/1999/xlink"><linearGradient id="SVGID_1_" gradientUnits="userSpaceOnUse" x1="37.934" x2="474.066" y1="256" y2="256"><stop offset="0" stop-color="#80d8ff"/><stop offset="1" stop-color="#ea80fc"/></linearGradient><path d="m454.066 0h-396.132c-11.046 0-20 8.954-20 20v472c0 11.046 8.954 20 20 20h396.133c11.046 0 20-8.954 20-20v-472c-.001-11.046-8.955-20-20.001-20zm-20 472h-356.132v-432h356.133v432zm-178.066-252.949c39.439 0 71.525-32.086 71.525-71.525s-32.086-71.526-71.525-71.526-71.525 32.086-71.525 71.525 32.086 71.526 71.525 71.526zm0-103.051c17.383 0 31.525 14.143 31.525 31.525s-14.142 31.526-31.525 31.526-31.525-14.143-31.525-31.525 14.142-31.526 31.525-31.526zm-108.475 320h216.949c12.862 0 22.448-12.015 19.46-24.613l-32.861-138.61c-2.138-9.019-10.192-15.387-19.46-15.387h-151.227c-9.269 0-17.323 6.368-19.46 15.387l-32.861 138.61c-2.968 12.514 6.514 24.613 19.46 24.613zm48.674-138.61h119.602l23.378 98.61h-166.358z" fill="url(#SVGID_1_)"/></svg>