<svg id="Layer_1" enable-background="new 0 0 512 512" height="512" viewBox="0 0 512 512" width="512" xmlns="http://www.w3.org/2000/svg" xmlns:xlink="http://www.w3.org/1999/xlink"><linearGradient id="SVGID_1_" gradientUnits="userSpaceOnUse" x1="0" x2="512" y1="256" y2="256"><stop offset="0" stop-color="#80d8ff"/><stop offset="1" stop-color="#ea80fc"/></linearGradient><path d="m256 0c-141.484 0-256 114.497-256 256 0 141.483 114.497 256 256 256 141.484 0 256-114.497 256-256 0-141.483-114.497-256-256-256zm166.227 393.942-137.943-137.942 137.942-137.942c32.224 38.693 49.774 86.966 49.774 137.942s-17.55 99.249-49.773 137.942zm-146.227-353.022c43.535 3.971 84.349 20.877 117.942 48.853l-117.942 117.942zm-236 215.08c0-113.283 86.709-205.11 196-215.08v215.08c0 5.396 2.201 10.486 5.858 14.143l152.084 152.084c-38.693 32.223-86.966 49.773-137.942 49.773-119.377 0-216-96.607-216-216z" fill="url(#SVGID_1_)"/></svg>