<svg id="Layer_1" enable-background="new 0 0 512 512" height="512" viewBox="0 0 512 512" width="512" xmlns="http://www.w3.org/2000/svg" xmlns:xlink="http://www.w3.org/1999/xlink"><linearGradient id="SVGID_1_" gradientUnits="userSpaceOnUse" x1="38" x2="474" y1="256" y2="256"><stop offset="0" stop-color="#80d8ff"/><stop offset="1" stop-color="#ea80fc"/></linearGradient><path d="m468.143 81.858-76-76c-3.751-3.751-8.838-5.858-14.143-5.858h-320c-11.046 0-20 8.954-20 20v472c0 11.046 8.954 20 20 20h396c11.046 0 20-8.954 20-20v-396c0-5.304-2.107-10.392-5.857-14.142zm-34.143 390.142h-356v-432h291.716l64.284 64.284zm-178-276c33.084 0 60-26.916 60-60s-26.916-60-60-60-60 26.916-60 60 26.916 60 60 60zm0-80c11.028 0 20 8.972 20 20s-8.972 20-20 20-20-8.972-20-20 8.972-20 20-20zm100 300c0 11.046-8.954 20-20 20h-160c-11.046 0-20-8.954-20-20s8.954-20 20-20h160c11.046 0 20 8.954 20 20zm0-80c0 11.046-8.954 20-20 20h-160c-11.046 0-20-8.954-20-20s8.954-20 20-20h160c11.046 0 20 8.954 20 20zm-200-80c0-11.046 8.954-20 20-20h154.264c11.046 0 20 8.954 20 20s-8.954 20-20 20h-154.264c-11.046 0-20-8.954-20-20z" fill="url(#SVGID_1_)"/></svg>