<svg id="Layer_1" enable-background="new 0 0 512 512" height="512" viewBox="0 0 512 512" width="512" xmlns="http://www.w3.org/2000/svg" xmlns:xlink="http://www.w3.org/1999/xlink"><linearGradient id="SVGID_1_" gradientUnits="userSpaceOnUse" x1="0" x2="512" y1="256" y2="256"><stop offset="0" stop-color="#80d8ff"/><stop offset="1" stop-color="#ea80fc"/></linearGradient><path d="m511.693 64.019c0-11.046-8.954-20-20-20h-471.386c-11.046 0-20 8.954-20 20-.045 69.883.181 13.712-.307 383.962 0 11.046 8.954 20 20 20h472c11.046 0 20-8.954 20-20-.002-2.358-.305-381.604-.307-383.962zm-40 20v255.923h-158.963c-7.406 0-14.206 4.093-17.673 10.637l-8.495 16.034h-61.125l-8.495-16.034c-3.467-6.544-10.267-10.637-17.673-10.637h-158.962v-255.923zm.307 343.962h-432v-48.04h147.232l8.495 16.034c3.468 6.544 10.267 10.637 17.673 10.637h85.2c7.406 0 14.205-4.093 17.673-10.637l8.495-16.034h147.232zm-362.385-132.505c-7.811-7.811-7.811-20.475 0-28.285l83.906-83.906c7.811-7.811 20.474-7.811 28.284 0l48.75 48.749 69.402-69.402h-23.126c-11.046 0-20-8.954-20-20s8.954-20 20-20h71.411c10.972 0 20.008 8.934 20 20.01v71.401c0 11.046-8.954 20-20 20s-20-8.954-20-20v-23.126l-83.544 83.544c-7.811 7.809-20.474 7.811-28.284 0l-48.75-48.749-69.764 69.764c-7.81 7.81-20.476 7.809-28.285 0z" fill="url(#SVGID_1_)"/></svg>