<svg id="Layer_1" enable-background="new 0 0 512 512" height="512" viewBox="0 0 512 512" width="512" xmlns="http://www.w3.org/2000/svg" xmlns:xlink="http://www.w3.org/1999/xlink"><linearGradient id="SVGID_1_" gradientUnits="userSpaceOnUse" x1=".003" x2="511.998" y1="256" y2="256"><stop offset="0" stop-color="#80d8ff"/><stop offset="1" stop-color="#ea80fc"/></linearGradient><path d="m506.142 118.995-113.137-113.137c-7.811-7.812-20.474-7.81-28.284 0l-137.436 137.435c-7.811 7.811-7.811 20.475 0 28.284l42.426 42.427-55.707 55.708-42.426-42.426c-7.805-7.806-20.474-7.81-28.284-.001l-137.436 137.436c-7.805 7.805-7.81 20.475 0 28.285l113.137 113.137c7.809 7.809 20.473 7.811 28.284 0l137.436-137.436c7.811-7.811 7.811-20.475 0-28.284l-42.426-42.427 55.707-55.708 42.426 42.426c7.805 7.806 20.474 7.81 28.284.001l137.436-137.435c7.806-7.806 7.81-20.475 0-28.285zm-263.853 235.57-109.152 109.151-84.853-84.853 109.152-109.152 28.284 28.284-54.576 54.576c-7.811 7.811-7.811 20.475 0 28.285 7.809 7.809 20.473 7.811 28.284 0l54.576-54.576zm112.275-112.275-28.284-28.284 54.576-54.576c7.811-7.811 7.811-20.475 0-28.285s-20.474-7.811-28.284 0l-54.576 54.576-28.284-28.284 109.151-109.152 84.853 84.853z" fill="url(#SVGID_1_)"/></svg>