<svg id="Layer_1" enable-background="new 0 0 512.019 512.019" height="512" viewBox="0 0 512.019 512.019" width="512" xmlns="http://www.w3.org/2000/svg" xmlns:xlink="http://www.w3.org/1999/xlink"><linearGradient id="SVGID_1_" gradientUnits="userSpaceOnUse" x1="0" x2="512.019" y1="256.01" y2="256.01"><stop offset="0" stop-color="#80d8ff"/><stop offset="1" stop-color="#ea80fc"/></linearGradient><path d="m412.009 116.009c31.981 0 58-26.019 58-58s-26.019-58-58-58-58 26.019-58 58 26.019 58 58 58zm0-76c9.925 0 18 8.075 18 18s-8.075 18-18 18-18-8.075-18-18 8.075-18 18-18zm-80 236h160c12.862 0 22.448-12.015 19.46-24.613l-24.235-102.225c-2.138-9.019-10.192-15.387-19.46-15.387h-111.53c-9.269 0-17.323 6.368-19.46 15.387l-24.235 102.225c-2.968 12.515 6.514 24.613 19.46 24.613zm40.048-102.224h79.904l14.752 62.225h-109.408zm-272.05 102.224c31.981 0 58-26.019 58-58s-26.019-58-58-58-58 26.019-58 58 26.019 58 58 58zm0-76c9.925 0 18 8.075 18 18s-8.075 18-18 18-18-8.075-18-18 8.075-18 18-18zm-80 236h160c12.862 0 22.448-12.015 19.46-24.613l-24.235-102.225c-2.138-9.019-10.192-15.387-19.46-15.387h-111.53c-9.269 0-17.323 6.368-19.46 15.387l-24.235 102.225c-2.968 12.515 6.514 24.613 19.46 24.613zm40.048-102.224h79.904l14.752 62.225h-109.408zm451.954 4.985c0 11.046-8.954 20-20 20h-151.668l-146.134 147.324c-3.755 3.785-8.867 5.915-14.199 5.915h-159.999c-11.046 0-20-8.954-20-20s8.954-20 20-20h151.667l146.134-147.324c3.755-3.785 8.867-5.915 14.199-5.915h160c11.046 0 20 8.954 20 20z" fill="url(#SVGID_1_)"/></svg>