<svg id="Layer_1" enable-background="new 0 0 511.998 511.998" height="512" viewBox="0 0 511.998 511.998" width="512" xmlns="http://www.w3.org/2000/svg" xmlns:xlink="http://www.w3.org/1999/xlink"><linearGradient id="SVGID_1_" gradientUnits="userSpaceOnUse" x1="52.629" x2="459.369" y1="255.999" y2="255.999"><stop offset="0" stop-color="#80d8ff"/><stop offset="1" stop-color="#ea80fc"/></linearGradient><path d="m246.656 169.128 35.669 100.261c4.918 13.829 22.602 17.82 32.985 7.439l138.203-138.205c10.373-10.373 6.394-28.065-7.439-32.984l-100.26-35.667-64.114-64.116c-7.806-7.806-20.474-7.81-28.285-.001l-70.874 70.874c-7.806 7.806-7.809 20.475 0 28.285l19.509 19.509-63.116 63.116c-7.888-3.797-16.723-5.927-26.047-5.927-33.227 0-60.258 27.032-60.258 60.259s27.032 60.258 60.258 60.258c5.099 0 10.05-.642 14.782-1.84l113.951 171.609h-23.359c-11.046 0-20 8.954-20 20s8.954 20 20 20h121.292c11.046 0 20-8.954 20-20s-8.954-20-20-20h-49.918l-128.66-193.762c13.957-18.461 15.736-42.592 6.244-62.312l63.117-63.116zm-154.027 72.843c0-11.171 9.088-20.259 20.258-20.259s20.258 9.088 20.258 20.259c0 11.17-9.088 20.258-20.258 20.258s-20.258-9.088-20.258-20.258zm216.774-15.806-22.337-62.784 53-53 62.784 22.337zm-41.846-177.883 39.018 39.019-42.589 42.589-39.019-39.018z" fill="url(#SVGID_1_)"/></svg>