<svg id="Layer_1" enable-background="new 0 0 512 512" height="512" viewBox="0 0 512 512" width="512" xmlns="http://www.w3.org/2000/svg" xmlns:xlink="http://www.w3.org/1999/xlink"><linearGradient id="SVGID_1_" gradientUnits="userSpaceOnUse" x1="76" x2="436" y1="256" y2="256"><stop offset="0" stop-color="#80d8ff"/><stop offset="1" stop-color="#ea80fc"/></linearGradient><path d="m256 116c31.981 0 58-26.019 58-58s-26.019-58-58-58-58 26.019-58 58 26.019 58 58 58zm0-76c9.925 0 18 8.075 18 18s-8.075 18-18 18-18-8.075-18-18 8.075-18 18-18zm160 196c-9.185 0-55.045 0-64.187 0l-20.587-86.838c-2.139-9.019-10.192-15.387-19.461-15.387h-111.53c-9.269 0-17.322 6.368-19.461 15.387l-20.587 86.838c-9.142 0-55.002 0-64.187 0-11.046 0-20 8.954-20 20s8.954 20 20 20h18.719c.719 7.065 20.288 199.401 22.183 218.024 1.038 10.209 9.635 17.976 19.897 17.976h198.402c10.262 0 18.858-7.767 19.897-17.976 2.448-24.057 20.279-199.313 22.183-218.024h18.719c11.046 0 20-8.954 20-20s-8.954-20-20-20zm-199.952-62.225h79.904l14.752 62.225h-109.408zm-41.181 298.225-3.663-36h169.591l-3.663 36zm169.999-76h-177.732l-12.21-120h202.15z" fill="url(#SVGID_1_)"/></svg>