<svg id="Layer_1" enable-background="new 0 0 512 512" height="512" viewBox="0 0 512 512" width="512" xmlns="http://www.w3.org/2000/svg" xmlns:xlink="http://www.w3.org/1999/xlink"><linearGradient id="SVGID_1_" gradientUnits="userSpaceOnUse" x1="0" x2="512" y1="256" y2="256"><stop offset="0" stop-color="#80d8ff"/><stop offset="1" stop-color="#ea80fc"/></linearGradient><path d="m460.948 340.989v-84.989c0-11.046-8.954-20-20-20h-164.948v-64.989c29.468-8.661 51.052-35.933 51.052-68.167 0-39.178-31.874-71.052-71.052-71.052s-71.052 31.874-71.052 71.052c0 32.233 21.583 59.505 51.052 68.167v64.989h-164.948c-11.046 0-20 8.954-20 20v84.989c-29.469 8.661-51.052 35.933-51.052 68.166 0 39.178 31.874 71.052 71.052 71.052s71.052-31.874 71.052-71.052c0-32.233-21.583-59.505-51.052-68.167v-64.988h144.948v64.989c-29.468 8.661-51.052 35.933-51.052 68.167 0 39.178 31.874 71.052 71.052 71.052s71.052-31.874 71.052-71.052c0-32.233-21.583-59.505-51.052-68.167v-64.989h144.948v64.989c-29.468 8.661-51.052 35.933-51.052 68.167 0 39.178 31.874 71.052 71.052 71.052s71.052-31.875 71.052-71.053c0-32.233-21.583-59.505-51.052-68.166zm-236-238.144c0-17.122 13.93-31.052 31.052-31.052s31.052 13.93 31.052 31.052-13.93 31.052-31.052 31.052-31.052-13.93-31.052-31.052zm-122.844 306.31c0 17.122-13.93 31.052-31.052 31.052s-31.052-13.93-31.052-31.052 13.93-31.052 31.052-31.052 31.052 13.93 31.052 31.052zm184.948 0c0 17.122-13.93 31.052-31.052 31.052s-31.052-13.93-31.052-31.052c0-16.503 12.942-30.035 29.209-30.992.607.055 1.22.093 1.842.093s1.235-.038 1.842-.093c16.268.957 29.211 14.489 29.211 30.992zm153.896 31.052c-17.122 0-31.052-13.93-31.052-31.052s13.93-31.052 31.052-31.052 31.052 13.93 31.052 31.052-13.93 31.052-31.052 31.052z" fill="url(#SVGID_1_)"/></svg>