<svg id="Layer_1" enable-background="new 0 0 512 512" height="512" viewBox="0 0 512 512" width="512" xmlns="http://www.w3.org/2000/svg" xmlns:xlink="http://www.w3.org/1999/xlink"><linearGradient id="SVGID_1_" gradientUnits="userSpaceOnUse" x1="0" x2="512" y1="256" y2="256"><stop offset="0" stop-color="#80d8ff"/><stop offset="1" stop-color="#ea80fc"/></linearGradient><path d="m374 38c-69.301 0-126.827 51.351-136.546 118h-217.454c-11.046 0-20 8.954-20 20v236c0 11.046 8.954 20 20 20h56v22c0 11.046 8.954 20 20 20s20-8.954 20-20v-22h280v22c0 11.046 8.954 20 20 20s20-8.954 20-20v-22h56c11.046 0 20-8.954 20-20v-236c0-76.094-61.907-138-138-138zm0 40c54.038 0 98 43.963 98 98s-43.962 98-98 98-98-43.963-98-98 43.962-98 98-98zm98 314h-432v-196h197.454c9.719 66.649 67.244 118 136.546 118 38.286 0 72.975-15.676 98-40.941zm-123-216c0-13.807 11.193-25 25-25s25 11.193 25 25-11.193 25-25 25-25-11.193-25-25zm-129.166 118c0 11.046-8.954 20-20 20h-103.834c-11.046 0-20-8.954-20-20s8.954-20 20-20h103.834c11.046 0 20 8.954 20 20z" fill="url(#SVGID_1_)"/></svg>