<svg id="Layer_1" enable-background="new 0 0 512 512" height="512" viewBox="0 0 512 512" width="512" xmlns="http://www.w3.org/2000/svg" xmlns:xlink="http://www.w3.org/1999/xlink"><linearGradient id="SVGID_1_" gradientUnits="userSpaceOnUse" x1="76" x2="436" y1="256" y2="256"><stop offset="0" stop-color="#80d8ff"/><stop offset="1" stop-color="#ea80fc"/></linearGradient><path d="m416 0h-320c-11.046 0-20 8.954-20 20v472c0 11.046 8.954 20 20 20s20-8.954 20-20v-18h280v18c0 11.046 8.954 20 20 20s20-8.954 20-20c0-24.748 0-434.087 0-472 0-11.046-8.954-20-20-20zm-300 184.667h280v104.666h-280zm0-144.667h280v104.667h-280zm0 289.333h280v104.667h-280zm165-237c0 13.807-11.193 25-25 25s-25-11.193-25-25 11.193-25 25-25 25 11.193 25 25zm0 144.667c0 13.807-11.193 25-25 25s-25-11.193-25-25 11.193-25 25-25 25 11.193 25 25zm0 144.667c0 13.807-11.193 25-25 25s-25-11.193-25-25 11.193-25 25-25 25 11.192 25 25z" fill="url(#SVGID_1_)"/></svg>