<svg id="Layer_1" enable-background="new 0 0 512 512" height="512" viewBox="0 0 512 512" width="512" xmlns="http://www.w3.org/2000/svg" xmlns:xlink="http://www.w3.org/1999/xlink"><linearGradient id="SVGID_1_" gradientUnits="userSpaceOnUse" x1="75.994" x2="436.006" y1="256" y2="256"><stop offset="0" stop-color="#80d8ff"/><stop offset="1" stop-color="#ea80fc"/></linearGradient><path d="m141.115 116h20.986c9.227 43.367 47.821 76 93.898 76s84.671-32.633 93.898-76h20.986c11.046 0 20-8.954 20-20s-8.954-20-20-20h-20.986c-9.225-43.367-47.819-76-93.897-76s-84.671 32.633-93.898 76h-20.986c-11.046 0-20 8.954-20 20s8.954 20 19.999 20zm114.885 36c-23.834 0-44.224-14.972-52.294-36h104.588c-8.069 21.028-28.46 36-52.294 36zm52.294-76h-32.294v-32.294c14.812 5.684 26.61 17.482 32.294 32.294zm-72.294-32.294v32.294h-32.294c5.684-14.812 17.482-26.61 32.294-32.294zm199.591 444.271-48.47-236c-1.91-9.301-10.095-15.977-19.591-15.977h-63.06c-5.305 0-10.392 2.107-14.143 5.858l-34.327 34.328-34.327-34.328c-3.751-3.75-8.838-5.858-14.143-5.858h-63.06c-9.495 0-17.681 6.676-19.591 15.977l-48.47 236c-2.547 12.404 6.944 24.023 19.591 24.023h320c12.661 0 22.136-11.633 19.591-24.023zm-315.065-15.977 40.254-196h38.467l42.611 42.612c7.811 7.811 20.475 7.811 28.285 0l42.611-42.612h38.467l40.254 196z" fill="url(#SVGID_1_)"/></svg>