<svg id="Layer_1" enable-background="new 0 0 512 512" height="512" viewBox="0 0 512 512" width="512" xmlns="http://www.w3.org/2000/svg" xmlns:xlink="http://www.w3.org/1999/xlink"><linearGradient id="SVGID_1_" gradientUnits="userSpaceOnUse" x1="111.158" x2="400.842" y1="256" y2="256"><stop offset="0" stop-color="#80d8ff"/><stop offset="1" stop-color="#ea80fc"/></linearGradient><path d="m380.842 396h-28.164l-30.325-166h13.647c11.046 0 20-8.954 20-20v-76c0-11.046-8.954-20-20-20h-12.496c6.047-10.988 9.496-23.597 9.496-37 0-42.458-34.542-77-77-77s-77 34.542-77 77c0 13.403 3.449 26.012 9.496 37h-12.496c-11.046 0-20 8.954-20 20v76c0 11.046 8.954 20 20 20h13.647l-30.325 166h-28.164c-11.046 0-20 8.954-20 20v76c0 11.046 8.954 20 20 20h249.684c11.046 0 20-8.954 20-20v-76c0-11.046-8.954-20-20-20zm-184.842-206v-36h120v36c-35.115 0-85.028 0-120 0zm23-113c0-20.402 16.598-37 37-37s37 16.598 37 37-16.598 37-37 37-37-16.598-37-37zm11.31 153h51.381l30.325 166h-112.032zm130.532 242h-209.684v-36h209.684z" fill="url(#SVGID_1_)"/></svg>