<svg id="Layer_1" enable-background="new 0 0 512 512" height="512" viewBox="0 0 512 512" width="512" xmlns="http://www.w3.org/2000/svg" xmlns:xlink="http://www.w3.org/1999/xlink"><linearGradient id="SVGID_1_" gradientUnits="userSpaceOnUse" x1="0" x2="512" y1="256" y2="256"><stop offset="0" stop-color="#80d8ff"/><stop offset="1" stop-color="#ea80fc"/></linearGradient><path d="m474 399.556v-63.556c0-11.046-8.954-20-20-20h-178v-40h60c12.863 0 22.446-12.016 19.461-24.614l-24.235-102.225c-2.139-9.019-10.192-15.386-19.461-15.386h-111.53c-9.269 0-17.322 6.368-19.461 15.386l-24.235 102.225c-2.966 12.516 6.514 24.614 19.461 24.614h60v40h-178c-11.046 0-20 8.954-20 20v63.557c-22.156 8.164-38 29.487-38 54.443 0 31.981 26.019 58 58 58s58-26.019 58-58c0-24.956-15.844-46.279-38-54.444v-43.556h158v43.557c-22.156 8.165-38 29.488-38 54.444 0 31.981 26.019 58 58 58s58-26.019 58-58c0-24.956-15.844-46.279-38-54.444v-43.557h158v43.557c-22.156 8.165-38 29.488-38 54.444 0 31.981 26.019 58 58 58s58-26.019 58-58c0-24.957-15.844-46.28-38-54.445zm-416 72.444c-9.925 0-18-8.075-18-18s8.075-18 18-18 18 8.075 18 18-8.075 18-18 18zm198 0c-9.925 0-18-8.075-18-18s8.075-18 18-18 18 8.075 18 18-8.075 18-18 18zm-54.704-236 14.752-62.225h79.904l14.752 62.225zm252.704 236c-9.925 0-18-8.075-18-18s8.075-18 18-18 18 8.075 18 18-8.075 18-18 18zm-198-356c31.981 0 58-26.019 58-58s-26.019-58-58-58-58 26.019-58 58 26.019 58 58 58zm0-76c9.925 0 18 8.075 18 18s-8.075 18-18 18-18-8.075-18-18 8.075-18 18-18z" fill="url(#SVGID_1_)"/></svg>