<svg id="Layer_1" enable-background="new 0 0 512 512" height="512" viewBox="0 0 512 512" width="512" xmlns="http://www.w3.org/2000/svg" xmlns:xlink="http://www.w3.org/1999/xlink"><linearGradient id="SVGID_1_" gradientUnits="userSpaceOnUse" x1="0" x2="512" y1="256" y2="256"><stop offset="0" stop-color="#80d8ff"/><stop offset="1" stop-color="#ea80fc"/></linearGradient><path d="m374 116c31.981 0 58-26.019 58-58s-26.019-58-58-58-58 26.019-58 58 26.019 58 58 58zm0-76c9.925 0 18 8.075 18 18s-8.075 18-18 18-18-8.075-18-18 8.075-18 18-18zm-236 76c31.981 0 58-26.019 58-58s-26.019-58-58-58-58 26.019-58 58 26.019 58 58 58zm0-76c9.925 0 18 8.075 18 18s-8.075 18-18 18-18-8.075-18-18 8.075-18 18-18zm354 196h-22.187l-20.587-86.839c-2.138-9.018-10.192-15.386-19.46-15.386h-111.53c-9.269 0-17.323 6.368-19.46 15.386l-20.589 86.839h-44.374l-20.587-86.839c-2.138-9.018-10.192-15.386-19.46-15.386h-111.531c-9.269 0-17.323 6.368-19.46 15.386l-20.588 86.839h-22.187c-11.046 0-20 8.954-20 20s8.954 20 20 20h18v216c0 11.046 8.954 20 20 20s20-8.954 20-20v-18.001h356v18.001c0 11.046 8.954 20 20 20s20-8.954 20-20c0-14.668 0-206.104 0-216h18c11.046 0 20-8.954 20-20s-8.954-20-20-20zm-157.952-62.225h79.904l14.752 62.225h-109.408zm-236 0h79.904l14.752 62.225h-109.408zm-20.048 102.225h356v157.999h-356z" fill="url(#SVGID_1_)"/></svg>