<svg id="Layer_1" enable-background="new 0 0 512 512" height="512" viewBox="0 0 512 512" width="512" xmlns="http://www.w3.org/2000/svg" xmlns:xlink="http://www.w3.org/1999/xlink"><linearGradient id="SVGID_1_" gradientUnits="userSpaceOnUse" x1="0" x2="512" y1="256" y2="256"><stop offset="0" stop-color="#80d8ff"/><stop offset="1" stop-color="#ea80fc"/></linearGradient><path d="m138 116c31.981 0 58-26.019 58-58s-26.019-58-58-58-58 26.019-58 58 26.019 58 58 58zm0-76c9.925 0 18 8.075 18 18s-8.075 18-18 18-18-8.075-18-18 8.075-18 18-18zm354 196c-11.134 0-46.928 0-57.845 0l-12.81-36h32.655c11.046 0 20-8.954 20-20v-160c0-11.046-8.954-20-20-20h-198c-11.046 0-20 8.954-20 20v160c0 11.046 8.954 20 20 20h32.655l-12.81 36h-42.032l-20.587-86.839c-2.138-9.018-10.192-15.386-19.46-15.386h-111.531c-9.269 0-17.323 6.368-19.46 15.386l-20.588 86.839h-22.187c-11.046 0-20 8.954-20 20s8.954 20 20 20h18v216c0 11.046 8.954 20 20 20s20-8.954 20-20v-18.001h356v18.001c0 11.046 8.954 20 20 20s20-8.954 20-20c0-14.668 0-206.104 0-216h18c11.046 0 20-8.954 20-20s-8.954-20-20-20zm-216-196h158v120c-34.219 0-124.247 0-158 0zm55.112 160h47.775l12.811 36h-73.396zm-233.064-26.225h79.904l14.752 62.225h-109.408zm335.952 260.224h-356v-157.999h356z" fill="url(#SVGID_1_)"/></svg>