<svg height="512pt" viewBox="0 -34 512 512" width="512pt" xmlns="http://www.w3.org/2000/svg" xmlns:xlink="http://www.w3.org/1999/xlink"><linearGradient id="a" gradientTransform="matrix(1.002065 0 0 -1.002065 0 469.873697)" gradientUnits="userSpaceOnUse" x1="76.2778" x2="530.8907" y1="391.9" y2="-62.7215"><stop offset="0" stop-color="#662d91"/><stop offset=".437" stop-color="#3873b3"/><stop offset="1" stop-color="#00c9dd"/></linearGradient><path d="m503.464844 358.398438h-6.5c11.78125-17.632813 7.039062-41.480469-10.597656-53.261719-6.304688-4.210938-13.71875-6.464844-21.300782-6.46875h-12.800781v-273.066407c0-14.140624-11.460937-25.601562-25.597656-25.601562-14.140625 0-25.601563 11.460938-25.601563 25.601562v273.066407h-12.800781c-21.207031.015625-38.386719 17.222656-38.367187 38.429687.003906 7.582032 2.257812 14.996094 6.46875 21.300782h-30.070313c11.15625-16.539063 7.640625-38.882813-8.054687-51.199219 16.496093-12.898438 19.410156-36.726563 6.511718-53.21875-1.898437-2.429688-4.085937-4.617188-6.511718-6.511719 16.582031-13.074219 19.429687-37.117188 6.355468-53.703125-7.285156-9.246094-18.425781-14.617187-30.199218-14.566406h-12.796876v-153.597657c0-14.140624-11.464843-25.601562-25.601562-25.601562s-25.597656 11.460938-25.597656 25.601562v153.597657h-12.800782c-21.117187-.09375-38.3125 16.949219-38.410156 38.066406-.050781 11.773437 5.320313 22.914063 14.566406 30.199219-16.496093 12.898437-19.410156 36.726562-6.511718 53.222656 1.898437 2.425781 4.085937 4.613281 6.511718 6.511719-15.695312 12.3125-19.210937 34.660156-8.054687 51.199219h-30.074219c11.15625-16.539063 7.640625-38.886719-8.054687-51.199219 16.496093-12.898438 19.410156-36.726563 6.511719-53.222657-1.894532-2.425781-4.082032-4.613281-6.511719-6.511718 16.496093-12.898438 19.410156-36.722656 6.511719-53.21875-1.894532-2.429688-4.082032-4.617188-6.511719-6.511719 16.496093-12.898437 19.410156-36.726563 6.511719-53.222656-1.894532-2.425781-4.082032-4.613281-6.511719-6.511719 16.585937-13.074219 19.433593-37.117188 6.359375-53.703125-7.289063-9.242187-18.429688-14.617187-30.199219-14.5625h-12.800781v-34.132813c0-14.140624-11.460938-25.601562-25.601563-25.601562-14.136719 0-25.597656 11.460938-25.597656 25.601562v34.132813h-12.800781c-21.117188-.09375-38.3125 16.949219-38.40625 38.066406-.054688 11.769531 5.320312 22.910157 14.5625 30.199219-16.492188 12.898438-19.410156 36.726562-6.511719 53.21875 1.898437 2.429688 4.085937 4.617188 6.511719 6.515625-16.492188 12.898437-19.410156 36.722656-6.511719 53.21875 1.898437 2.425781 4.085937 4.613281 6.511719 6.511719-16.492188 12.898437-19.410156 36.726562-6.511719 53.222656 1.898437 2.425781 4.085937 4.613281 6.511719 6.511719-15.691406 12.3125-19.207032 34.660156-8.054688 51.199219h-6.5c-4.714844 0-8.535156 3.820312-8.535156 8.535156v68.265625c0 4.710937 3.820312 8.53125 8.535156 8.53125h494.929688c4.714844 0 8.535156-3.820313 8.535156-8.53125v-68.265625c0-4.714844-3.820312-8.535156-8.535156-8.535156zm-85.332032-332.796876c0-4.714843 3.820313-8.535156 8.535157-8.535156 4.710937 0 8.53125 3.820313 8.53125 8.535156v273.066407h-17.066407zm-51.199218 311.464844c0-11.78125 9.550781-21.332031 21.332031-21.332031h76.800781c11.78125 0 21.332032 9.550781 21.332032 21.332031s-9.550782 21.332032-21.332032 21.332032h-76.800781c-11.78125 0-21.332031-9.550782-21.332031-21.332032zm-119.464844-311.464844c0-4.714843 3.820312-8.535156 8.53125-8.535156 4.714844 0 8.535156 3.820313 8.535156 8.535156v153.597657h-17.066406zm-51.203125 191.996094c0-11.78125 9.550781-21.332031 21.332031-21.332031h76.800782c11.785156 0 21.335937 9.550781 21.335937 21.332031s-9.554687 21.335938-21.335937 21.335938h-76.800782c-11.78125 0-21.332031-9.550782-21.332031-21.335938zm0 59.734375c0-11.78125 9.550781-21.332031 21.332031-21.332031h76.800782c11.785156 0 21.335937 9.550781 21.335937 21.332031 0 11.785157-9.554687 21.335938-21.335937 21.335938h-76.800782c-11.78125 0-21.332031-9.554688-21.332031-21.335938zm0 59.734375c0-11.78125 9.550781-21.332031 21.332031-21.332031h76.800782c11.785156 0 21.335937 9.550781 21.335937 21.332031s-9.554687 21.332032-21.335937 21.332032h-76.800782c-11.78125 0-21.332031-9.550782-21.332031-21.332032zm-119.464844-311.464844c0-4.714843 3.820313-8.535156 8.53125-8.535156 4.714844 0 8.535157 3.820313 8.535157 8.535156v34.132813h-17.066407zm-51.199219 72.53125c0-11.78125 9.550782-21.332031 21.332032-21.332031h76.800781c11.78125 0 21.332031 9.550781 21.332031 21.332031s-9.550781 21.332032-21.332031 21.332032h-76.800781c-11.78125 0-21.332032-9.550782-21.332032-21.332032zm0 59.734376c0-11.78125 9.550782-21.332032 21.332032-21.332032h76.800781c11.78125 0 21.332031 9.550782 21.332031 21.332032s-9.550781 21.332031-21.332031 21.332031h-76.800781c-11.78125 0-21.332032-9.550781-21.332032-21.332031zm0 59.730468c0-11.78125 9.550782-21.332031 21.332032-21.332031h76.800781c11.78125 0 21.332031 9.550781 21.332031 21.332031s-9.550781 21.335938-21.332031 21.335938h-76.800781c-11.78125 0-21.332032-9.550782-21.332032-21.335938zm0 59.734375c0-11.78125 9.550782-21.332031 21.332032-21.332031h76.800781c11.78125 0 21.332031 9.550781 21.332031 21.332031 0 11.785157-9.550781 21.335938-21.332031 21.335938h-76.800781c-11.78125 0-21.332032-9.554688-21.332032-21.335938zm0 59.734375c0-11.78125 9.550782-21.332031 21.332032-21.332031h76.800781c11.78125 0 21.332031 9.550781 21.332031 21.332031s-9.550781 21.332032-21.332031 21.332032h-76.800781c-11.78125 0-21.332032-9.550782-21.332032-21.332032zm469.332032 89.601563h-477.867188v-51.203125h477.867188zm0 0" fill="url(#a)"/></svg>