<svg height="512pt" viewBox="0 -65 512 512" width="512pt" xmlns="http://www.w3.org/2000/svg" xmlns:xlink="http://www.w3.org/1999/xlink"><linearGradient id="a"><stop offset="0" stop-color="#662d91"/><stop offset=".437" stop-color="#3873b3"/><stop offset="1" stop-color="#00c9dd"/></linearGradient><linearGradient id="b" gradientTransform="matrix(1.019049 0 0 -1.019049 0 438.787207)" gradientUnits="userSpaceOnUse" x1="46.4523" x2="405.5611" xlink:href="#a" y1="369.1765" y2="10.0677"/><linearGradient id="c" gradientTransform="matrix(1.019049 0 0 -1.019049 0 438.787207)" gradientUnits="userSpaceOnUse" x1="79.4774" x2="438.5863" xlink:href="#a" y1="402.2017" y2="43.0929"/><linearGradient id="d" gradientTransform="matrix(1.019049 0 0 -1.019049 0 438.787207)" gradientUnits="userSpaceOnUse" x1="32.6408" x2="391.7497" xlink:href="#a" y1="355.3651" y2="-3.7437"/><linearGradient id="e" gradientTransform="matrix(1.019049 0 0 -1.019049 0 438.787207)" gradientUnits="userSpaceOnUse" x1="122.0562" x2="481.165" xlink:href="#a" y1="444.7804" y2="85.6716"/><linearGradient id="f" gradientTransform="matrix(1.019049 0 0 -1.019049 0 438.787207)" gradientUnits="userSpaceOnUse" x1="75.2196" x2="434.3284" xlink:href="#a" y1="397.9438" y2="38.835"/><linearGradient id="g" gradientTransform="matrix(1.019049 0 0 -1.019049 0 438.787207)" gradientUnits="userSpaceOnUse" x1="81.6064" x2="440.7152" xlink:href="#a" y1="404.3307" y2="45.2218"/><linearGradient id="h" gradientTransform="matrix(1.019049 0 0 -1.019049 0 438.787207)" gradientUnits="userSpaceOnUse" x1="153.3697" x2="512.47" xlink:href="#a" y1="476.0855" y2="116.9766"/><path d="m8.679688 381.832031h494.640624c4.792969 0 8.679688-3.886719 8.679688-8.679687v-34.710938c0-4.792968-3.886719-8.679687-8.679688-8.679687h-63.78125l49.65625-19.863281c4.449219-1.78125 6.613282-6.832032 4.832032-11.28125l-80.574219-201.425782-19.335937-48.34375c-1.777344-4.449218-6.828126-6.613281-11.277344-4.832031h-.003906l-70.429688 28.160156v-2.753906c0-4.789063-3.886719-8.675781-8.675781-8.675781h-78.105469v-52.066406c0-4.792969-3.882812-8.679688-8.675781-8.679688h-173.558594c-4.792969 0-8.679687 3.886719-8.679687 8.679688v321.082031h-26.03125c-4.792969 0-8.679688 3.886719-8.679688 8.679687v34.710938c0 4.792968 3.886719 8.679687 8.679688 8.679687zm130.167968-52.070312v-52.066407h69.421875v52.066407zm-86.78125-86.777344h69.425782v17.355469h-69.425782zm242.984375 34.710937h-69.425781v-147.527343h69.425781zm-86.78125-17.355468h-69.421875v-17.355469h69.421875zm17.355469 34.710937h69.425781v34.710938h-69.425781zm86.78125-170.085937 81.910156 204.796875h-81.910156zm97.816406 197.855468-74.125-185.34375 64.460938-25.78125 74.125 185.316407zm-29-259.472656 12.886719 32.222656-64.460937 25.792969-12.902344-32.230469zm-86.171875 14.753906v34.710938h-69.425781v-34.710938zm-86.78125-8.679687v156.203125h-69.421875v-208.269531h69.421875zm-86.777343-52.066406v208.273437h-69.425782v-208.273437zm-69.425782 260.339843h69.425782v52.066407h-69.425782zm-34.710937 69.421876h477.289062v17.355468h-477.289062zm0 0" fill="url(#b)"/><path d="m78.101562 43.390625h17.355469c4.792969 0 8.679688-3.886719 8.679688-8.679687 0-4.792969-3.886719-8.675782-8.679688-8.675782h-17.355469c-4.792968 0-8.679687 3.882813-8.679687 8.675782 0 4.792968 3.886719 8.679687 8.679687 8.679687zm0 0" fill="url(#c)"/><path d="m86.777344 60.746094c-4.789063 0-8.675782 3.886718-8.675782 8.675781v121.492187c0 4.792969 3.886719 8.679688 8.675782 8.679688 4.792968 0 8.679687-3.886719 8.679687-8.679688v-121.492187c0-4.789063-3.882812-8.675781-8.679687-8.675781zm0 0" fill="url(#d)"/><path d="m164.882812 43.390625h17.355469c4.789063 0 8.675781-3.886719 8.675781-8.679687 0-4.792969-3.886718-8.675782-8.675781-8.675782h-17.355469c-4.792968 0-8.679687 3.882813-8.679687 8.675782 0 4.792968 3.886719 8.679687 8.679687 8.679687zm0 0" fill="url(#e)"/><path d="m173.558594 60.746094c-4.792969 0-8.675782 3.886718-8.675782 8.675781v121.492187c0 4.792969 3.882813 8.679688 8.675782 8.679688 4.792968 0 8.679687-3.886719 8.679687-8.679688v-121.492187c0-4.789063-3.886719-8.675781-8.679687-8.675781zm0 0" fill="url(#f)"/><path d="m260.339844 260.339844c4.792968 0 8.675781-3.886719 8.675781-8.679688v-95.457031c0-4.792969-3.882813-8.679687-8.675781-8.679687-4.792969 0-8.679688 3.886718-8.679688 8.679687v95.457031c0 4.792969 3.886719 8.679688 8.679688 8.679688zm0 0" fill="url(#g)"/><path d="m386.058594 145.53125c-1.78125-4.453125-6.832032-6.617188-11.28125-4.835938-4.453125 1.78125-6.613282 6.832032-4.835938 11.28125l35.449219 88.636719c1.785156 4.449219 6.835937 6.613281 11.289063 4.828125 4.449218-1.78125 6.609374-6.835937 4.828124-11.285156zm0 0" fill="url(#h)"/></svg>