<svg height="511pt" viewBox="-35 0 511 511.9991" width="511pt" xmlns="http://www.w3.org/2000/svg" xmlns:xlink="http://www.w3.org/1999/xlink"><linearGradient id="a"><stop offset="0" stop-color="#662d91"/><stop offset=".437" stop-color="#3873b3"/><stop offset="1" stop-color="#00c9dd"/></linearGradient><linearGradient id="b" gradientTransform="matrix(1.001979 0 0 -1.001979 -34.779639 521.028828)" gradientUnits="userSpaceOnUse" x1="26.982" x2="433.5321" xlink:href="#a" y1="450.4519" y2="43.9018"/><linearGradient id="c" gradientTransform="matrix(1.001979 0 0 -1.001979 -34.779639 521.028828)" gradientUnits="userSpaceOnUse" x1="49.4505" x2="456.0006" xlink:href="#a" y1="472.9204" y2="66.3703"/><linearGradient id="d" gradientTransform="matrix(1.001979 0 0 -1.001979 -34.779639 521.028828)" gradientUnits="userSpaceOnUse" x1="28.9498" x2="435.4999" xlink:href="#a" y1="452.4282" y2="45.8781"/><path d="m67.625 298.640625c0 84.824219 68.761719 153.585937 153.585938 153.585937 84.824218 0 153.585937-68.761718 153.585937-153.585937s-68.761719-153.585937-153.585937-153.585937c-84.78125.097656-153.488282 68.804687-153.585938 153.585937zm290.105469 0c0 75.398437-61.121094 136.523437-136.519531 136.523437-75.398438 0-136.523438-61.125-136.523438-136.523437s61.125-136.523437 136.523438-136.523437c75.363281.089843 136.433593 61.160156 136.519531 136.523437zm0 0" fill="url(#b)"/><path d="m405.207031 196.488281c1.371094 2.410157 3.828125 4 6.585938 4.265625.28125 0 .554687.042969.855469.042969 2.480468.003906 4.835937-1.074219 6.457031-2.949219 33.875-39.195312 29.566406-98.425781-9.628907-132.300781-22.773437-19.683594-53.605468-27.242187-82.898437-20.324219-20.792969 4.84375-39.285156 16.703125-52.363281 33.578125-2.902344 3.710938-2.246094 9.074219 1.46875 11.976563.761718.597656 1.621094 1.058594 2.542968 1.367187 22.320313 7.5625 43.351563 18.496094 62.363282 32.425781l-10.757813 10.722657c-29.734375-19.863281-64.359375-31.171875-100.089843-32.6875v-51.410157h34.132812c4.710938 0 8.53125-3.820312 8.53125-8.53125v-34.132812c0-4.710938-3.820312-8.53125-8.53125-8.53125h-85.328125c-4.710937 0-8.53125 3.820312-8.53125 8.53125v34.132812c0 4.710938 3.820313 8.53125 8.53125 8.53125h34.132813v51.410157c-35.730469 1.511719-70.355469 12.820312-100.089844 32.6875l-10.757813-10.71875c19.011719-13.925781 40.042969-24.859375 62.363281-32.421875 4.46875-1.5 6.878907-6.335938 5.378907-10.800782-.308594-.921874-.769531-1.78125-1.367188-2.546874-13.078125-16.878907-31.574219-28.738282-52.375-33.582032-50.414062-11.898437-100.925781 19.328125-112.824219 69.742188-6.910156 29.285156.652344 60.113281 20.332032 82.878906 1.621094 1.875 3.980468 2.953125 6.460937 2.953125.273438 0 .542969 0 .851563-.042969 2.757812-.269531 5.214844-1.859375 6.585937-4.265625 13.304688-23.289062 30.582031-44.0625 51.050781-61.394531l10.410157 10.410156c-84.582031 67.480469-98.449219 190.75-30.96875 275.332032 9.714843 12.179687 20.847656 23.152343 33.160156 32.695312l-9.785156 29.378906c-3.863281 11.570313 2.382812 24.085938 13.953125 27.949219 9.03125 3.015625 18.976562-.09375 24.679687-7.710937l17.160157-22.882813c47.628906 19.542969 101.042968 19.542969 148.671874 0l17.160157 22.882813c7.3125 9.765624 21.15625 11.753906 30.921875 4.441406 7.621094-5.707032 10.726562-15.652344 7.710937-24.679688l-9.84375-29.414062c85.535157-66.265625 101.152344-189.328125 34.886719-274.863282-9.539062-12.3125-20.515625-23.445312-32.695312-33.160156l10.410156-10.410156c20.484375 17.335938 37.773437 38.125 51.085937 61.425781zm-218.125-179.421875h68.257813v17.0625h-68.257813zm-157.984375 159.863282c-22.355468-35.988282-11.300781-83.289063 24.6875-105.644532 17.34375-10.773437 38.261719-14.1875 58.132813-9.492187 13 3.023437 24.972656 9.425781 34.707031 18.558593-48.351562 19.039063-89.476562 52.832032-117.527344 96.578126zm86.964844 315.957031c-.964844 1.269531-2.472656 2.011719-4.070312 2.003906-2.773438 0-5.023438-2.25-5.027344-5.023437 0-.542969.089844-1.078126.257812-1.589844l8.160156-24.472656c5.0625 3.253906 10.277344 6.277343 15.648438 9.070312zm219.09375-4.609375c.875 2.632812-.550781 5.480468-3.183594 6.355468-.5.167969-1.019531.253907-1.546875.257813-1.582031-.003906-3.070312-.746094-4.023437-2.003906l-15.054688-20.011719c5.367188-2.785156 10.582032-5.808594 15.648438-9.066406zm65.238281-189.636719c0 98.960937-80.222656 179.183594-179.183593 179.183594-98.960938 0-179.183594-80.222657-179.183594-179.183594s80.222656-179.183594 179.183594-179.183594c98.914062.113281 179.070312 80.269531 179.183593 179.183594zm-69.890625-236.847656c41.226563-9.757813 82.558594 15.753906 92.3125 56.976562 4.707032 19.878907 1.289063 40.8125-9.496094 58.164063-28.050781-43.746094-69.175781-77.539063-117.527343-96.582032 9.738281-9.132812 21.710937-15.535156 34.710937-18.558593zm0 0" fill="url(#c)"/><path d="m195.613281 204.78125v83.261719l-35.164062 35.164062c-10.167969 9.820313-10.449219 26.027344-.628907 36.195313 9.824219 10.167968 26.027344 10.449218 36.195313.628906.214844-.207031.425781-.417969.628906-.628906l35.769531-35.769532c.875-.886718 1.535157-1.960937 1.9375-3.140624 7.703126-4.589844 12.433594-12.886719 12.457032-21.851563-.007813-1.839844-.214844-3.675781-.621094-5.46875.398438-.972656.609375-2.011719.621094-3.0625v-85.328125c0-14.136719-11.460938-25.597656-25.597656-25.597656-14.136719 0-25.597657 11.460937-25.597657 25.597656zm25.597657 102.390625c-4.710938 0-8.53125-3.820313-8.53125-8.53125s3.820312-8.53125 8.53125-8.53125c4.710937 0 8.53125 3.820313 8.53125 8.53125s-3.820313 8.53125-8.53125 8.53125zm-36.628907 40.164063c-3.371093 3.234374-8.695312 3.234374-12.066406 0-3.332031-3.332032-3.332031-8.734376 0-12.066407l25.65625-25.664062c2.527344 5.289062 6.785156 9.550781 12.074219 12.074219zm45.160157-142.554688v69.832031c-5.496094-2.09375-11.566407-2.09375-17.0625 0v-69.832031c0-4.710938 3.820312-8.53125 8.53125-8.53125 4.714843 0 8.53125 3.820312 8.53125 8.53125zm0 0" fill="url(#d)"/></svg>