<svg height="512pt" viewBox="0 0 512 512.00002" width="512pt" xmlns="http://www.w3.org/2000/svg" xmlns:xlink="http://www.w3.org/1999/xlink"><linearGradient id="a"><stop offset="0" stop-color="#662d91"/><stop offset=".437" stop-color="#3873b3"/><stop offset="1" stop-color="#00c9dd"/></linearGradient><linearGradient id="b" gradientTransform="matrix(1.002057 0 0 -1.002057 -.001994 504.003105)" gradientUnits="userSpaceOnUse" x1="-71.6669" x2="337.1824" xlink:href="#a" y1="297.8879" y2="-110.9614"/><linearGradient id="c" gradientTransform="matrix(1.002057 0 0 -1.002057 -.001994 504.003105)" gradientUnits="userSpaceOnUse" x1="24.3244" x2="433.1738" xlink:href="#a" y1="393.8792" y2="-14.9701"/><linearGradient id="d" gradientTransform="matrix(1.002057 0 0 -1.002057 -.001994 504.003105)" gradientUnits="userSpaceOnUse" x1="125.9293" x2="534.7787" xlink:href="#a" y1="495.4756" y2="86.6348"/><path d="m68.265625 443.734375h102.398437c4.714844.007813 8.542969-3.804687 8.550782-8.515625.003906-1.503906-.390625-2.984375-1.140625-4.285156l-102.402344-179.199219c-2.339844-4.089844-7.550781-5.511719-11.640625-3.167969-2.667969 1.523438-4.308594 4.363282-4.296875 7.433594v179.199219c0 4.714843 3.820313 8.535156 8.53125 8.535156zm8.535156-17.066406v-5l48.554688-48.554688 30.609375 53.554688zm39.78125-68.914063-39.78125 39.78125v-109.398437zm0 0" fill="url(#b)"/><path d="m508.472656 219-.042968-.109375c-3.390626-17.617187-9.195313-34.679687-17.253907-50.707031-.050781-.117188-.042969-.238282-.097656-.347656-.050781-.113282-.175781-.1875-.238281-.308594-8.042969-15.875-18.199219-30.589844-30.1875-43.742188-.113282-.136718-.148438-.308594-.265625-.433594-.121094-.128906-.351563-.214843-.496094-.359374-12.035156-13.03125-25.769531-24.386719-40.832031-33.757813-.128906-.085937-.195313-.21875-.332032-.308594-.136718-.082031-.238281-.066406-.359374-.125-15.246094-9.390625-31.714844-16.636719-48.9375-21.539062-.058594 0-.113282-.070313-.171876-.085938-.058593-.015625-.128906 0-.1875 0-34.867187-9.894531-71.796874-9.894531-106.664062 0-.054688-.003906-.109375-.003906-.164062 0-.074219 0-.128907.085938-.203126.101563-17.179687 4.894531-33.605468 12.121094-48.828124 21.472656-.152344.082031-.324219.082031-.476563.175781-.152344.097657-.265625.285157-.425781.402344-15.058594 9.347656-28.78125 20.695313-40.789063 33.734375-.128906.117188-.292969.160156-.410156.289062-.121094.128907-.136719.273438-.238281.402344-12.089844 13.195313-22.308594 27.992188-30.371094 43.96875l-.085938.113282v.109374c-5.558593 11.019532-10.054687 22.539063-13.429687 34.40625l-102.339844-197.730468c-2.164062-4.1875-7.308593-5.828125-11.496093-3.671875l-.347657.199219c-4.082031-2.355469-9.300781-.960938-11.65625 3.121093-.75 1.300781-1.144531 2.769531-1.144531 4.269531v494.925782c0 4.714844 3.820312 8.535156 8.535156 8.535156h264.53125c4.710938-.003906 8.53125-3.824219 8.527344-8.535156 0-1.363282-.328125-2.703125-.953125-3.914063l-15.621094-30.214843h238.441407c4.714843-.003907 8.535156-3.824219 8.53125-8.535157 0-2.261719-.898438-4.433593-2.496094-6.035156l-190.234375-190.230469h184.199219c4.714843 0 8.535156-3.820312 8.535156-8.535156-.007813-12.371094-1.1875-24.714844-3.523438-36.863281-.011718-.050781.007813-.09375 0-.136719zm-278.074218 275.933594v-8.535156c0-4.710938-3.820313-8.53125-8.535157-8.53125-4.710937 0-8.53125 3.820312-8.53125 8.53125v8.535156h-17.066406v-8.535156c0-4.710938-3.820313-8.53125-8.535156-8.53125-4.710938 0-8.53125 3.820312-8.53125 8.53125v8.535156h-17.066407v-8.535156c0-4.710938-3.820312-8.53125-8.535156-8.53125-4.710937 0-8.53125 3.820312-8.53125 8.53125v8.535156h-17.066406v-8.535156c0-4.710938-3.820312-8.53125-8.535156-8.53125-4.710938 0-8.53125 3.820312-8.53125 8.53125v8.535156h-17.066406v-8.535156c0-4.710938-3.824219-8.53125-8.535157-8.53125-4.710937 0-8.535156 3.820312-8.535156 8.53125v8.535156h-17.0625v-8.535156c0-4.710938-3.824219-8.53125-8.535156-8.53125-4.710938 0-8.535157 3.820312-8.535157 8.53125v8.535156h-25.597656v-17.066406h8.535156c4.710938 0 8.53125-3.820313 8.53125-8.535157 0-4.710937-3.820312-8.53125-8.53125-8.53125h-8.535156v-17.066406h8.535156c4.710938 0 8.53125-3.820313 8.53125-8.535156 0-4.710938-3.820312-8.53125-8.53125-8.53125h-8.535156v-17.066407h8.535156c4.710938 0 8.53125-3.820312 8.53125-8.535156 0-4.710937-3.820312-8.53125-8.53125-8.53125h-8.535156v-17.066406h8.535156c4.710938 0 8.53125-3.820312 8.53125-8.535156 0-4.710938-3.820312-8.53125-8.53125-8.53125h-8.535156v-17.066406h8.535156c4.710938 0 8.53125-3.820313 8.53125-8.535157 0-4.710937-3.820312-8.53125-8.53125-8.53125h-8.535156v-17.066406h8.535156c4.710938 0 8.53125-3.824219 8.53125-8.535156 0-4.710938-3.820312-8.535157-8.53125-8.535157h-8.535156v-17.0625h8.535156c4.710938 0 8.53125-3.824218 8.53125-8.535156 0-4.710937-3.820312-8.535156-8.53125-8.535156h-8.535156v-17.066406h8.535156c4.710938 0 8.53125-3.820313 8.53125-8.53125 0-4.714844-3.820312-8.535156-8.53125-8.535156h-8.535156v-17.066407h8.535156c4.710938 0 8.53125-3.820312 8.53125-8.53125 0-4.714843-3.820312-8.535156-8.53125-8.535156h-8.535156v-17.066406h8.535156c4.710938 0 8.53125-3.820313 8.53125-8.53125 0-4.714844-3.820312-8.535157-8.53125-8.535157h-8.535156v-17.066406h8.535156c4.710938 0 8.53125-3.820312 8.53125-8.53125 0-4.714844-3.820312-8.535156-8.53125-8.535156h-8.535156v-17.066406h8.535156c4.710938 0 8.53125-3.820313 8.53125-8.53125 0-4.714844-3.820312-8.535156-8.53125-8.535156h-8.535156v-58.222657l241.976563 467.820313zm-71.3125-230.398438h50.710937l-33.421875 33.425782zm71.3125 137.871094-16.828126-32.535156 51.132813-58.402344 82.769531 89.597656h-117.074218zm213.332031 49.859375v-8.53125c0-4.714844-3.820313-8.535156-8.535157-8.535156-4.710937 0-8.53125 3.820312-8.53125 8.535156v8.53125h-17.066406v-8.53125c0-4.714844-3.820312-8.535156-8.535156-8.535156-4.710938 0-8.53125 3.820312-8.53125 8.535156v8.53125h-17.066406v-8.53125c0-4.714844-3.820313-8.535156-8.535156-8.535156-4.710938 0-8.53125 3.820312-8.53125 8.535156v8.53125h-17.066407v-8.53125c0-4.714844-3.820312-8.535156-8.535156-8.535156-4.710937 0-8.535156 3.820312-8.535156 8.535156v8.53125h-17.0625v-8.53125c0-4.714844-3.824219-8.535156-8.535157-8.535156-4.710937 0-8.535156 3.820312-8.535156 8.535156v8.53125h-17.0625v-8.53125c0-4.714844-3.824218-8.535156-8.535156-8.535156-4.714844 0-8.535156 3.820312-8.535156 8.535156v8.164063l-17.464844-33.765626h128.398438c4.710937.003907 8.535156-3.8125 8.539062-8.523437.003906-2.152344-.808594-4.222656-2.269531-5.804687l-102.394531-110.929688c-1.65625-1.761719-3.96875-2.753906-6.386719-2.742188-2.417969.035157-4.710938 1.097657-6.304688 2.917969l-52.964843 60.535157-20.632813-39.875c.246094-.144532.484375-.304688.714844-.476563l79.300781-79.300781 218.332031 218.332031zm-141.53125-204.796875-31.636719-31.632812c-3.328125-3.332032-8.730469-3.332032-12.0625 0l-31.632812 31.632812h-76.613282l-8.34375-16.144531 12.988282 2.492187c.53125.101563 1.074218.152344 1.621093.152344 4.710938-.007812 8.523438-3.835938 8.515625-8.550781-.007812-4.082031-2.910156-7.589844-6.921875-8.363281l-16.433593-3.15625c2.511718-10.511719 5.980468-20.769532 10.359374-30.652344l15.011719 7.542968c1.183594.601563 2.492188.914063 3.820313.914063 4.714844.007813 8.542968-3.804687 8.550781-8.515625.003906-3.238281-1.816406-6.195312-4.710937-7.648438l-15.042969-7.558593c5.296875-9.429688 11.445312-18.355469 18.363281-26.667969l12.433594 11.433594c3.472656 3.1875 8.871094 2.953125 12.058594-.519532 3.183593-3.472656 2.953124-8.871093-.523438-12.058593l-12.472656-11.476563c7.703125-7.601562 16.074218-14.488281 25.019531-20.582031l8.839844 14.351563c2.273437 4.128906 7.464843 5.628906 11.589843 3.355468 4.128907-2.277344 5.628907-7.464844 3.355469-11.59375-.136719-.246094-.28125-.480468-.441406-.710937l-8.8125-14.300781c9.46875-5.234376 19.398437-9.59375 29.660156-13.023438l4.566407 16.121094c1.207031 4.554687 5.875 7.269531 10.433593 6.066406 4.554688-1.207031 7.269531-5.878906 6.066407-10.433594-.027344-.09375-.054688-.191406-.082032-.285156l-4.566406-16.09375c10.527344-2.425781 21.253906-3.894531 32.042969-4.386719v16.691407c0 4.714843 3.820312 8.535156 8.535156 8.535156 4.710937 0 8.535156-3.820313 8.535156-8.535156v-16.644532c10.789063.492188 21.507813 1.96875 32.03125 4.402344l-4.554687 16.066406c-1.363282 4.511719 1.1875 9.273438 5.699218 10.636719 4.511719 1.363281 9.273438-1.1875 10.636719-5.703125.027344-.09375.054688-.1875.082031-.28125l4.546876-16.070312c10.242187 3.433593 20.152343 7.796874 29.601562 13.03125l-8.753906 14.191406c-2.277344 4.128906-.773438 9.316406 3.351562 11.59375 3.84375 2.117187 8.667969.976562 11.15625-2.640625l8.734375-14.183594c8.917969 6.101563 17.265625 12.992187 24.945313 20.589844l-12.28125 11.265625c-3.484375 3.183594-3.730469 8.59375-.542969 12.082031 3.183594 3.488281 8.59375 3.730469 12.082031.546875l12.269532-11.257812c6.929687 8.285156 13.101562 17.175781 18.433593 26.566406l-14.953125 7.515625c-4.210937 2.113281-5.914062 7.238281-3.804687 11.453125 1.449219 2.890625 4.410156 4.714844 7.644531 4.710937 1.332031 0 2.640625-.3125 3.824219-.914062l14.96875-7.527344c4.425781 9.867187 7.941406 20.113281 10.503906 30.617187l-16.539063 3.175782c-4.625.890625-7.65625 5.363281-6.765624 9.992187.769531 4.011719 4.277343 6.914063 8.363281 6.921875.542969-.003906 1.085937-.054687 1.621093-.15625l16.539063-3.171875c.792969 5.539063 1.355469 11.144531 1.628906 16.828125zm0 0" fill="url(#c)"/><path d="m392.460938 180.347656c-28.78125-44.902344-88.515626-57.972656-133.414063-29.1875-13.007813 8.335938-23.824219 19.667969-31.539063 33.050782l-4.5 7.800781c-2.351562 4.082031-.945312 9.300781 3.136719 11.652343 1.292969.746094 2.761719 1.136719 4.253907 1.136719h162.132812c4.710938 0 8.53125-3.820312 8.527344-8.535156 0-1.628906-.464844-3.222656-1.34375-4.59375zm-147.042969 7.386719c24.695312-36.304687 74.148437-45.714844 110.453125-21.015625 8.265625 5.621094 15.394531 12.753906 21.015625 21.015625zm0 0" fill="url(#d)"/></svg>