<svg height="512pt" viewBox="0 0 512 512.00031" width="512pt" xmlns="http://www.w3.org/2000/svg" xmlns:xlink="http://www.w3.org/1999/xlink"><linearGradient id="a"><stop offset="0" stop-color="#662d91"/><stop offset=".437" stop-color="#3873b3"/><stop offset="1" stop-color="#00c9dd"/></linearGradient><linearGradient id="b" gradientTransform="matrix(1.002065 0 0 -1.002065 -.000514 504.007339)" gradientUnits="userSpaceOnUse" x1="170.0036" x2="350.7076" xlink:href="#a" y1="309.6367" y2="128.9326"/><linearGradient id="c" gradientTransform="matrix(1.002065 0 0 -1.002065 -.000514 504.007339)" gradientUnits="userSpaceOnUse" x1="373.2117" x2="553.9158" xlink:href="#a" y1="512.8533" y2="332.1493"/><path d="m423.636719 0c-23.441407-.0625-45.9375 9.253906-62.472657 25.875l-323.941406 323.992188c-1.117187 1.125-1.902344 2.535156-2.269531 4.078124l-34.738281 147.628907c-1.046875 4.59375 1.832031 9.167969 6.425781 10.214843.617187.140626 1.25.210938 1.886719.210938.65625 0 1.3125-.074219 1.953125-.222656l147.625-34.738282c1.546875-.363281 2.957031-1.148437 4.082031-2.269531l323.921875-323.941406c34.507813-34.496094 34.519531-90.433594.023437-124.941406-16.570312-16.578125-39.054687-25.89062525-62.496093-25.886719zm10.363281 178.808594-28.671875-28.691406-72.117187-72.105469 22.621093-22.679688 100.832031 100.828125zm-386.023438 194.269531h47.53125v34.875c0 4.714844 3.820313 8.535156 8.53125 8.535156h34.886719v47.53125l-53.429687 12.570313c-2.734375-12.4375-9.085938-23.785156-18.25-32.625-8.644532-8.859375-19.730469-14.9375-31.847656-17.457032zm273.132813-283.007813 22.675781 22.664063-243.277344 243.277344h-45.328124zm-177.183594 309.351563h-31.351562v-31.34375l243.257812-243.277344 31.359375 31.359375zm-112.46875 43.859375c9.050781 1.71875 17.347657 6.1875 23.761719 12.800781 6.890625 6.59375 11.648438 15.105469 13.65625 24.429688l-48.890625 11.488281zm124.535157 13.535156v-45.332031l243.265624-243.273437 22.675782 22.664062zm318.054687-318.054687-5.316406 5.316406-100.824219-100.8125 5.328125-5.324219c27.839844-27.839844 72.976563-27.839844 100.816406.003906 27.835938 27.839844 27.835938 72.976563-.003906 100.816407zm0 0" fill="url(#b)"/><path d="m463.292969 53.699219c-3.332031 3.332031-3.332031 8.734375 0 12.066406 10.785156 10.816406 10.785156 28.320313 0 39.136719-3.390625 3.273437-3.484375 8.675781-.210938 12.0625 3.277344 3.390625 8.675781 3.484375 12.066407.210937.070312-.066406.140624-.136719.210937-.210937 17.433594-17.484375 17.433594-45.78125 0-63.265625-3.332031-3.332031-8.734375-3.332031-12.066406 0zm0 0" fill="url(#c)"/></svg>