<svg height="511pt" viewBox="-19 1 511 511.99904" width="511pt" xmlns="http://www.w3.org/2000/svg" xmlns:xlink="http://www.w3.org/1999/xlink"><linearGradient id="a"><stop offset="0" stop-color="#662d91"/><stop offset=".437" stop-color="#3873b3"/><stop offset="1" stop-color="#00c9dd"/></linearGradient><linearGradient id="b" gradientTransform="matrix(1.002061 0 0 -1.002061 -18.398924 504.005097)" gradientUnits="userSpaceOnUse" x1="93.7508" x2="435.1385" xlink:href="#a" y1="393.3627" y2="51.9836"/><linearGradient id="c" gradientTransform="matrix(1.002061 0 0 -1.002061 -18.398924 504.005097)" gradientUnits="userSpaceOnUse" x1="102.5656" x2="443.9532" xlink:href="#a" y1="402.186" y2="60.7984"/><path d="m452.492188 256.136719c24.660156-45.992188 29.695312-92.023438 9.140624-127.621094-20.558593-35.601563-62.644531-54.136719-114.59375-55.878906-3.773437-6.207031-7.859374-12.222657-12.238281-18.019531 4.519531-5.871094 6.984375-13.070313 7.015625-20.480469.027344-18.824219-15.207031-34.1093752-34.03125-34.136719-9.226562-.015625-18.070312 3.714844-24.5 10.335938-13.40625-6.6875-28.164062-10.222657-43.144531-10.33203175-41.375 0-78.949219 27.71484375-106.535156 72.59765575-52.308594 1.570313-94.816407 20.234376-115.414063 55.910157-20.597656 35.679687-15.488281 81.613281 9.164063 127.609375-21.332031 39.363281-28.023438 78.804687-16.519531 112.007812-13.496094 13.097656-13.816407 34.660156-.71875 48.15625 11.734374 12.085938 30.535156 13.78125 44.238281 3.992188 24.507812 13.4375 52.035156 20.40625 79.984375 20.253906 27.492187 44.203125 64.765625 71.46875 105.8125 71.46875 41.042968 0 78.128906-27.136719 105.597656-71.160156 12.042969-.304688 24.035156-1.667969 35.839844-4.070313 10.378906 15.734375 31.550781 20.078125 47.289062 9.699219 9.527344-6.285156 15.285156-16.921875 15.335938-28.335938-.035156-3.480468-.609375-6.933593-1.703125-10.238281 7.582031-6.742187 14.042969-14.648437 19.148437-23.417969 20.160156-34.933593 16.832032-80.363281-9.167968-128.339843zm-5.640626-119.089844c16.445313 28.484375 13.652344 64.964844-4.359374 102.511719-16.164063-24.554688-35.578126-46.804688-57.710938-66.152344-5.664062-29.066406-15.179688-57.25-28.296875-83.804688 41.234375 3.292969 74 19.097657 90.367187 47.445313zm-110.15625 286.742187c-23.824218-.542968-47.492187-4.019531-70.46875-10.351562 17.234376-7.050781 33.980469-15.25 50.125-24.53125 16.21875-9.363281 31.800782-19.800781 46.636719-31.234375-6 23.042969-14.828125 45.25-26.292969 66.117187zm-28.875-49.660156c-21.601562 12.472656-44.3125 22.921875-67.839843 31.203125-23.582031-8.261719-46.339844-18.710937-67.976563-31.203125-21.511718-12.382812-41.84375-26.710937-60.738281-42.804687-9.175781-49.28125-9.273437-99.820313-.292969-149.136719 18.9375-16.3125 39.375-30.808594 61.03125-43.289062 21.625-12.53125 44.359375-23.03125 67.917969-31.375 47.3125 16.792968 91.128906 42.144531 129.269531 74.792968 4.507813 24.300782 6.769532 48.96875 6.757813 73.683594.046875 25.117188-2.238281 50.1875-6.828125 74.878906-19.050782 16.277344-39.566406 30.757813-61.285156 43.25zm-190.429687-16.042968c14.667969 11.273437 30.058594 21.566406 46.078125 30.820312 16.105469 9.269531 32.792969 17.492188 49.957031 24.609375-22.792969 6.253906-46.261719 9.691406-69.890625 10.242187-11.378906-20.734374-20.160156-42.792968-26.144531-65.671874zm-26.285156-45.371094c-17.011719-16.683594-31.898438-35.402344-44.320313-55.730469 12.34375-20.4375 27.15625-39.273437 44.101563-56.089844-4.886719 37.105469-4.808594 74.699219.21875 111.785157zm52.054687-223.71875c23.871094.535156 47.585938 4.027344 70.597656 10.402344-17.277343 7.128906-34.0625 15.394531-50.246093 24.746093-16.132813 9.3125-31.636719 19.664063-46.421875 30.992188 5.933594-23.03125 14.683594-45.246094 26.054687-66.140625zm219.988282 66.492187c-14.878907-11.472656-30.496094-21.949219-46.753907-31.371093-16.1875-9.351563-32.980469-17.617188-50.261719-24.746094 23.085938-6.398438 46.875-9.894532 70.828126-10.410156 11.433593 21.015624 20.230468 43.359374 26.1875 66.527343zm26.285156 45.710938c16.828125 16.660156 31.535156 35.339843 43.773437 55.613281-12.3125 20.21875-27.066406 38.847656-43.929687 55.464844 2.5-18.65625 3.746094-37.457032 3.738281-56.277344-.011719-18.324219-1.21875-36.628906-3.609375-54.800781zm-81.75-184.132813c9.425781 0 17.066406 7.640625 17.066406 17.066406 0 9.425782-7.640625 17.066407-17.066406 17.066407-9.425782 0-17.066406-7.640625-17.066406-17.066407 0-9.425781 7.640624-17.066406 17.066406-17.066406zm-67.542969 0c12.039063.109375 23.90625 2.902344 34.730469 8.167969-.835938 2.894531-1.28125 5.890625-1.320313 8.902344-.0625 18.789062 15.121094 34.070312 33.910157 34.132812 4.828124.015625 9.605468-.996093 14.011718-2.96875 1.839844 2.433594 3.632813 4.929688 5.382813 7.492188-29.601563 1.671875-58.839844 7.347656-86.917969 16.878906-28.054688-9.53125-57.269531-15.210937-86.851562-16.878906 23.59375-34.757813 53.953124-55.726563 87.054687-55.726563zm-207.128906 119.980469c16.460937-28.519531 49.535156-44.320313 91.121093-47.488281-13.195312 26.328125-22.789062 54.3125-28.519531 83.199218-22.371093 19.46875-41.996093 41.886719-58.335937 66.636719-17.910156-37.484375-20.691406-73.90625-4.265625-102.347656zm1.605469 272.554687c-9.425782 0-17.066407-7.640624-17.066407-17.066406 0-9.425781 7.640625-17.066406 17.066407-17.066406 9.425781 0 17.066406 7.640625 17.066406 17.066406 0 9.425782-7.640625 17.066406-17.066406 17.066406zm30.839843-2.671874c2.144531-4.496094 3.269531-9.414063 3.292969-14.394532 0-18.851562-15.28125-34.136718-34.132812-34.136718-2.921876.039062-5.828126.457031-8.644532 1.246093-7.628906-25.292969-2.875-55.21875 11.820313-85.878906 16.261719 24.695313 35.777343 47.085937 58.023437 66.5625 5.8125 28.804687 15.480469 56.699219 28.742188 82.925781-20.652344-1.082031-40.820313-6.652344-59.101563-16.324218zm174.683594 88.003906c-32.808594 0-62.941406-20.582032-86.441406-54.785156 29.234375-1.804688 58.097656-7.472657 85.84375-16.851563 28.003906 9.675781 57.203125 15.46875 86.777343 17.21875-23.460937 33.988281-53.488281 54.417969-86.179687 54.417969zm169.941406-59.734375c-9.425781 0-17.066406-7.640625-17.066406-17.066407 0-9.425781 7.640625-17.066406 17.066406-17.066406s17.066407 7.640625 17.066407 17.066406c0 9.425782-7.640626 17.066407-17.066407 17.066407zm36.769531-59.21875c-3.753906 6.324219-8.378906 12.085937-13.738281 17.125-13.75-12.789063-35.269531-12.011719-48.058593 1.738281-5.882813 6.328125-9.136719 14.652344-9.105469 23.289062 0 .800782.179687 1.554688.238281 2.339844-6.742188 1.277344-13.558594 2.171875-20.402344 2.667969 13.300782-26.347656 22.980469-54.375 28.773438-83.320313 22.109375-19.414062 41.503906-41.714843 57.667968-66.300781 18.722657 39.007813 20.480469 74.992188 4.625 102.460938zm0 0" fill="url(#b)"/><path d="m239.417969 170.667969c-47.128907 0-85.335938 38.203125-85.335938 85.332031s38.207031 85.332031 85.335938 85.332031c47.125 0 85.332031-38.203125 85.332031-85.332031-.050781-47.105469-38.226562-85.28125-85.332031-85.332031zm0 153.597656c-37.703125 0-68.269531-30.5625-68.269531-68.265625s30.566406-68.265625 68.269531-68.265625c37.699219 0 68.265625 30.5625 68.265625 68.265625-.042969 37.6875-30.582032 68.226562-68.265625 68.265625zm0 0" fill="url(#c)"/></svg>