<svg height="511pt" viewBox="-68 0 511 511.99972" width="511pt" xmlns="http://www.w3.org/2000/svg" xmlns:xlink="http://www.w3.org/1999/xlink"><linearGradient id="a"><stop offset="0" stop-color="#662d91"/><stop offset=".437" stop-color="#3873b3"/><stop offset="1" stop-color="#00c9dd"/></linearGradient><linearGradient id="b" gradientTransform="matrix(1.002061 0 0 -1.002061 -67.758506 521.071674)" gradientUnits="userSpaceOnUse" x1="17.9905" x2="373.4632" xlink:href="#a" y1="353.4788" y2="-2.0024"/><linearGradient id="c" gradientTransform="matrix(1.002061 0 0 -1.002061 -67.758506 521.071674)" gradientUnits="userSpaceOnUse" x1="117.8072" x2="473.2884" xlink:href="#a" y1="453.2954" y2="97.8142"/><path d="m180.074219 346.785156-8.601563 28.679688h-31.863281c-4.710937.003906-8.527344 3.832031-8.523437 8.542968.003906 2.453126 1.0625 4.789063 2.910156 6.40625l23.679687 20.730469-8.859375 29.496094c-1.359375 4.515625 1.195313 9.273437 5.710938 10.632813 2.4375.734374 5.082031.339843 7.199218-1.074219l26.523438-17.707031 26.554688 17.707031c3.917968 2.617187 9.21875 1.5625 11.835937-2.355469 1.417969-2.117188 1.8125-4.761719 1.074219-7.203125l-8.855469-29.496094 23.679687-20.730469c3.542969-3.105468 3.898438-8.496093.792969-12.039062-1.625-1.855469-3.976562-2.917969-6.441406-2.910156h-31.863281l-8.601563-28.679688c-1.351562-4.515625-6.109375-7.078125-10.621093-5.726562-2.753907.820312-4.90625 2.972656-5.730469 5.726562zm18.601562 45.746094h15.53125l-10.714843 9.386719c-2.519532 2.199219-3.523438 5.671875-2.5625 8.875l3.625 12.058593-11.570313-7.683593c-2.867187-1.910157-6.601563-1.910157-9.46875 0l-11.570313 7.683593 3.625-12.058593c.960938-3.207031-.042968-6.675781-2.5625-8.875l-10.714843-9.386719h15.53125c3.769531 0 7.089843-2.472656 8.171875-6.085938l2.253906-7.515624 2.253906 7.515624c1.082032 3.613282 4.402344 6.085938 8.171875 6.085938zm0 0" fill="url(#b)"/><path d="m374.890625 4.351562c-1.511719-2.6875-4.355469-4.351562-7.441406-4.351562h-76.800781c-3.054688-.0078125-5.878907 1.621094-7.40625 4.265625l-94.992188 166.273437-94.992188-166.273437c-1.527343-2.644531-4.351562-4.2734375-7.40625-4.265625h-76.800781c-4.714843-.0078125-8.539062 3.804688-8.550781 8.515625-.003906 1.503906.390625 2.980469 1.144531 4.285156l136.53125 238.933594c1.527344 2.644531 4.351563 4.269531 7.40625 4.265625h34.132813v15.8125l-23.414063 78.054688h-87.515625c-4.714844 0-8.535156 3.820312-8.53125 8.53125 0 2.460937 1.058594 4.796874 2.90625 6.417968l64.136719 56.121094-24.023437 80.078125c-1.351563 4.515625 1.210937 9.269531 5.722656 10.625 2.4375.730469 5.074218.335937 7.191406-1.078125l72.0625-48.058594 72.0625 48.042969c3.921875 2.617187 9.21875 1.558594 11.835938-2.359375 1.410156-2.117188 1.804687-4.753906 1.074218-7.191406l-24.019531-80.074219 64.136719-56.125c3.53125-3.117187 3.871094-8.507813.753906-12.042969-1.617188-1.832031-3.9375-2.882812-6.378906-2.890625h-87.515625l-23.417969-78.050781v-15.8125h25.769531c.675781-.007812 1.347657-.097656 2-.265625.265625-.085937.523438-.1875.777344-.308594.425781-.132812.84375-.304687 1.242187-.511719.246094-.160156.484376-.335937.710938-.519531.371094-.238281.722656-.507812 1.046875-.800781.449219-.570312.898437-1.140625 1.351563-1.707031l145.066406-238.933594c1.59375-2.632813 1.648437-5.917969.144531-8.601563zm-161.039063 362.582032h71.148438l-51.199219 44.78125c-2.515625 2.199218-3.515625 5.664062-2.558593 8.867187l18.773437 62.632813-57.082031-38.050782c-2.867188-1.910156-6.605469-1.910156-9.46875 0l-57.082032 38.050782 18.773438-62.632813c.957031-3.203125-.042969-6.667969-2.558594-8.867187l-51.199218-44.78125h71.25c3.773437 0 7.09375-2.476563 8.175781-6.085938l17.425781-58.085937 17.425781 58.085937c1.082031 3.609375 4.402344 6.085938 8.175781 6.085938zm81.746094-349.867188h14.328125l-105.761719 181.316406-6.082031-10.652343zm-271.84375 0h23.039063l126.753906 221.867188h-23.039063zm169.445313 221.867188-126.777344-221.867188h14.503906l126.753907 221.867188zm29.40625-8.277344-8.671875-15.164062 115.746094-198.425782h22.605468zm0 0" fill="url(#c)"/></svg>