<svg height="511pt" viewBox="-85 0 511 511.9998" width="511pt" xmlns="http://www.w3.org/2000/svg" xmlns:xlink="http://www.w3.org/1999/xlink"><linearGradient id="a" gradientTransform="matrix(1.001831 0 0 -1.001831 -84.873173 520.952712)" gradientUnits="userSpaceOnUse" x1="86.6395" x2="474.1058" y1="433.3606" y2="45.8943"><stop offset="0" stop-color="#662d91"/><stop offset=".437" stop-color="#3873b3"/><stop offset="1" stop-color="#00c9dd"/></linearGradient><path d="m341.753906 112.675781v-87.59375c-.285156-14.128906-11.976562-25.355469-26.109375-25.0703122-10.671875.2187502-20.09375 7.0390622-23.628906 17.1132812h-241.777344c-4.683593-13.339844-19.289062-20.355469-32.628906-15.671875-10.074219 3.535156-16.894531 12.953125-17.109375 23.628906v87.59375c.03125 50.792969 23.179688 98.808594 62.902344 130.46875 3.652344 2.972657 9.027344 2.421875 12-1.230469 2.976562-3.65625 2.425781-9.027343-1.230469-12.003906-.023437-.019531-.046875-.039062-.070313-.058594-35.683593-28.429687-56.492187-71.554687-56.539062-117.175781v-87.59375c0-4.710937 3.820312-8.53125 8.53125-8.53125s8.53125 3.820313 8.53125 8.53125v87.59375c.234375 47.980469 25.757812 92.285157 67.152344 116.554688 3.988281 2.507812 9.253906 1.304687 11.761718-2.683594 2.507813-3.988281 1.308594-9.257813-2.683593-11.765625-.144531-.089844-.292969-.175781-.445313-.261719-4.902344-2.894531-9.59375-6.140625-14.035156-9.707031h149.488281c-21.214843 16.960938-47.574219 26.191406-74.738281 26.164062-93.558594-.519531-169.886719 74.789063-170.625 168.351563v87.589844c.285156 14.132812 11.976562 25.355469 26.109375 25.070312 10.671875-.21875 20.09375-7.039062 23.628906-17.109375h241.777344c4.683594 13.335938 19.289063 20.351563 32.628906 15.667969 10.074219-3.535156 16.894531-12.953125 17.109375-23.628906v-87.589844c-.167968-46.613281-19.695312-91.058594-53.917968-122.707031-3.457032-3.203125-8.855469-3-12.058594.457031-3.203125 3.453125-3 8.855469.457031 12.058594 30.949219 28.265625 48.542969 68.273437 48.457031 110.191406v87.589844c0 4.710937-3.820312 8.53125-8.53125 8.53125-4.710937 0-8.53125-3.820313-8.53125-8.53125v-87.589844c.074219-42.273437-19.777344-82.109375-53.578125-107.496094-3.769531-2.851562-9.136719-2.109375-11.992187 1.660157-2.851563 3.769531-2.109375 9.136718 1.660156 11.988281.726562.546875 1.339844 1.179687 2.039062 1.707031h-149.367187c21.214844-16.960938 47.574219-26.191406 74.734375-26.164062 93.5625.519531 169.890625-74.789063 170.628906-168.347657zm-78.394531 75.074219h-184.277344c-6.464843-7.8125-11.910156-16.410156-16.210937-25.59375h216.605468c-4.257812 9.183594-9.675781 17.785156-16.117187 25.59375zm-211.671875-85.3125v-25.59375h238.878906v25.59375zm238.878906-42.65625h-238.878906v-25.59375h238.878906zm-4.667968 85.3125h-229.492188c-2.433594-8.339844-3.925781-16.925781-4.453125-25.59375h238.261719c-.484375 8.664062-1.929688 17.25-4.316406 25.59375zm-251.273438 341.824219c0 4.710937-3.820312 8.53125-8.53125 8.53125s-8.53125-3.820313-8.53125-8.53125v-87.589844c.726562-84.140625 69.421875-151.816406 153.5625-151.289063 75.039062.226563 136.101562-60.328124 136.503906-135.363281v-87.59375c0-4.710937 3.820313-8.53125 8.53125-8.53125 4.710938 0 8.53125 3.820313 8.53125 8.53125v87.59375c-.726562 84.140625-69.421875 151.816407-153.566406 151.285157-75.039062-.226563-136.101562 60.328124-136.5 135.367187zm244.902344-137.074219h-216.75c4.257812-9.183594 9.675781-17.785156 16.117187-25.59375h184.507813c6.460937 7.796875 11.878906 16.402344 16.125 25.59375zm-223.171875 17.0625h229.492187c2.386719 8.347656 3.839844 16.929688 4.324219 25.59375h-238.132813c.484376-8.664062 1.929688-17.246094 4.316407-25.59375zm-4.667969 42.660156h238.878906v25.59375h-238.878906zm0 42.65625h238.878906v25.59375h-238.878906zm0 0" fill="url(#a)"/></svg>