<svg height="512pt" viewBox="0 -51 512 512" width="512pt" xmlns="http://www.w3.org/2000/svg" xmlns:xlink="http://www.w3.org/1999/xlink"><linearGradient id="a"><stop offset="0" stop-color="#662d91"/><stop offset=".437" stop-color="#3873b3"/><stop offset="1" stop-color="#00c9dd"/></linearGradient><linearGradient id="b" gradientTransform="matrix(1.002065 0 0 -1.002065 0 452.806529)" gradientUnits="userSpaceOnUse" x1="57.4813" x2="453.276" xlink:href="#a" y1="415.6822" y2="19.8874"/><linearGradient id="c" gradientTransform="matrix(1.002065 0 0 -1.002065 0 452.806529)" gradientUnits="userSpaceOnUse" x1="110.7047" x2="506.4994" xlink:href="#a" y1="468.9055" y2="73.1108"/><path d="m503.464844 59.734375h-170.664063v-34.132813c0-14.140624-11.460937-25.601562-25.601562-25.601562h-110.933594c-14.136719 0-25.597656 11.460938-25.597656 25.601562v34.132813h-162.132813c-4.714844 0-8.535156 3.820313-8.535156 8.53125v332.800781c0 4.710938 3.820312 8.535156 8.535156 8.535156h494.929688c4.714844 0 8.535156-3.824218 8.535156-8.535156v-332.800781c0-4.710937-3.820312-8.53125-8.535156-8.53125zm-8.53125 187.730469c0 18.851562-15.285156 34.132812-34.132813 34.132812h-34.132812v-8.53125h8.53125c4.714843 0 8.535156-3.820312 8.535156-8.535156v-59.730469c0-4.714843-3.820313-8.535156-8.535156-8.535156h-8.53125v-119.464844h68.265625zm-349.867188-34.132813v42.667969h-25.601562v-8.535156c0-4.710938-3.820313-8.53125-8.53125-8.53125-4.714844 0-8.535156 3.820312-8.535156 8.53125v8.535156h-25.597657v-42.667969zm281.601563 0v42.667969h-25.601563v-8.535156c0-4.710938-3.820312-8.53125-8.535156-8.53125-4.710938 0-8.53125 3.820312-8.53125 8.53125v8.535156h-25.601562v-42.667969zm-76.800781-17.066406c-4.714844 0-8.535157 3.820313-8.535157 8.535156v59.730469c0 4.714844 3.820313 8.535156 8.535157 8.535156h8.53125v8.535156h-213.332032v-8.535156h8.535156c4.710938 0 8.53125-3.820312 8.53125-8.535156v-59.730469c0-4.714843-3.820312-8.535156-8.53125-8.535156h-8.535156v-119.464844h213.335938v119.464844zm-256 76.800781h8.53125v8.53125c0 4.714844 3.824218 8.535156 8.535156 8.535156 4.710937 0 8.535156-3.820312 8.535156-8.535156v-8.53125h8.53125v47.667969l-17.066406 17.066406-17.066406-17.066406zm51.199218 25.597656h213.335938v93.867188h-213.335938zm230.398438 0v-25.597656h8.535156v8.53125c0 4.714844 3.820312 8.535156 8.535156 8.535156 4.710938 0 8.53125-3.820312 8.53125-8.535156v-8.53125h8.535156v47.667969l-17.066406 17.066406-17.066406-17.066406v-22.070313zm34.136718-221.863281v119.464844h-34.136718v-119.464844zm-221.867187-51.199219c0-4.714843 3.820313-8.535156 8.53125-8.535156h110.933594c4.714843 0 8.535156 3.820313 8.535156 8.535156v34.132813h-128zm-59.734375 51.199219v119.464844h-34.132812v-119.464844zm-110.933594 0h59.734375v119.464844h-8.535156c-4.710937 0-8.535156 3.820313-8.535156 8.535156v59.730469c0 4.714844 3.824219 8.535156 8.535156 8.535156h8.535156v8.53125h-25.601562c-18.851563 0-34.132813-15.28125-34.132813-34.132812zm0 208.722657c9.359375 8.457031 21.519532 13.140624 34.132813 13.140624h25.601562v93.867188h-59.734375zm76.800782 107.007812v-47.664062l11.03125 11.03125c3.332031 3.332031 8.734374 3.332031 12.066406 0l11.035156-11.03125v47.664062zm281.597656 0v-47.664062l11.035156 11.03125c3.332031 3.332031 8.734375 3.332031 12.066406 0l11.035156-11.03125v47.664062zm51.203125 0v-93.863281h34.132812c12.609375-.003907 24.773438-4.6875 34.132813-13.144531v107.007812zm0 0" fill="url(#b)"/><path d="m315.734375 93.867188h-119.46875c-4.710937 0-8.53125 3.820312-8.53125 8.53125v51.199218c0 4.714844 3.820313 8.535156 8.53125 8.535156h119.46875c4.710937 0 8.53125-3.820312 8.53125-8.535156v-51.199218c0-4.710938-3.820313-8.53125-8.53125-8.53125zm-8.535156 51.199218h-102.398438v-34.132812h102.398438zm0 0" fill="url(#c)"/></svg>