<svg height="512pt" viewBox="-17 0 512 512" width="512pt" xmlns="http://www.w3.org/2000/svg" xmlns:xlink="http://www.w3.org/1999/xlink"><linearGradient id="a" gradientTransform="matrix(1.002065 0 0 -1.002065 -17.066166 504.00703)" gradientUnits="userSpaceOnUse" x1="54.3571" x2="471.9692" y1="452.2924" y2="34.6719"><stop offset="0" stop-color="#662d91"/><stop offset=".437" stop-color="#3873b3"/><stop offset="1" stop-color="#00c9dd"/></linearGradient><path d="m0 102.398438v332.800781c.0390625 32.972656 26.757812 59.695312 59.734375 59.734375h17.066406v8.53125c0 4.714844 3.820313 8.535156 8.53125 8.535156h384c4.710938 0 8.535157-3.820312 8.535157-8.535156v-427.195313c-.046876-42.101562-34.167969-76.222656-76.273438-76.269531h-247.992188c-29.140624.0390625-55.742187 16.566406-68.695312 42.667969h-25.171875c-32.976563.035156-59.6953125 26.757812-59.734375 59.730469zm76.800781 339.765624c-10.191406-3.605468-17.023437-13.222656-17.066406-24.03125v-298.667968c.042969-10.808594 6.875-20.425782 17.066406-24.027344zm17.066407-348.296874h119.464843v401.066406h-119.464843zm136.535156 401.066406v-51.199219h25.597656v25.597656c0 4.714844 3.820312 8.535157 8.535156 8.535157h51.199219c4.710937 0 8.53125-3.820313 8.53125-8.535157v-25.597656h42.667969v25.597656c0 4.714844 3.820312 8.535157 8.535156 8.535157h51.199219c4.710937 0 8.53125-3.820313 8.53125-8.535157v-25.597656h25.601562v51.199219zm76.796875-34.132813h-34.132813v-51.199219h34.132813zm110.933593 0h-34.132812v-51.199219h34.132812zm-16.539062-443.734375c32.6875.03125 59.171875 26.519532 59.207031 59.203125v350.394531h-25.601562v-25.597656c0-4.710937-3.820313-8.535156-8.53125-8.535156h-51.203125c-4.710938 0-8.53125 3.824219-8.53125 8.535156v25.601563h-42.667969v-25.601563c0-4.710937-3.820313-8.535156-8.53125-8.535156h-51.199219c-4.714844 0-8.535156 3.824219-8.535156 8.535156v25.601563h-25.597656v-341.335938c-.039063-1.511719-.492188-2.988281-1.308594-4.265625.816406-1.277344 1.269531-2.753906 1.308594-4.265625-.007813-23.222656-10.539063-45.1875-28.640625-59.734375zm-247.992188 0c32.972657.039063 59.695313 26.757813 59.730469 59.734375h-119.464843c.039062-32.976562 26.757812-59.695312 59.734374-59.734375zm-93.867187 42.667969h19.046875c-1.300781 5.59375-1.964844 11.320313-1.980469 17.066406v.851563c-19.855469 4.078125-34.113281 21.546875-34.132812 41.8125v298.667968c.023437 20.265626 14.28125 37.730469 34.132812 41.8125v17.921876h-17.066406c-23.554687-.03125-42.640625-19.117188-42.667969-42.667969v-332.800781c.027344-23.550782 19.113282-42.636719 42.667969-42.664063zm0 0" fill="url(#a)"/></svg>