<svg height="512pt" viewBox="0 -86 512 511" width="512pt" xmlns="http://www.w3.org/2000/svg" xmlns:xlink="http://www.w3.org/1999/xlink"><linearGradient id="a"><stop offset="0" stop-color="#662d91"/><stop offset=".437" stop-color="#3873b3"/><stop offset="1" stop-color="#00c9dd"/></linearGradient><linearGradient id="b" gradientTransform="matrix(1.019049 0 0 -1.019049 0 426.270582)" gradientUnits="userSpaceOnUse" x1="109.2825" x2="414.5975" xlink:href="#a" y1="393.686" y2="88.371"/><linearGradient id="c" gradientTransform="matrix(1.019049 0 0 -1.019049 0 426.270582)" gradientUnits="userSpaceOnUse" x1="68.799" x2="374.1054" xlink:href="#a" y1="353.194" y2="47.8876"/><linearGradient id="d" gradientTransform="matrix(1.019049 0 0 -1.019049 0 426.270582)" gradientUnits="userSpaceOnUse" x1="122.3154" x2="427.6303" xlink:href="#a" y1="406.7188" y2="101.4039"/><linearGradient id="e" gradientTransform="matrix(1.019049 0 0 -1.019049 0 426.270582)" gradientUnits="userSpaceOnUse" x1="171.0215" x2="476.3279" xlink:href="#a" y1="455.4164" y2="150.11"/><linearGradient id="f" gradientTransform="matrix(1.019049 0 0 -1.019049 0 426.270582)" gradientUnits="userSpaceOnUse" x1="215.3683" x2="520.6747" xlink:href="#a" y1="499.7632" y2="194.4568"/><linearGradient id="g" gradientTransform="matrix(1.019049 0 0 -1.019049 0 426.270582)" gradientUnits="userSpaceOnUse" x1="21.9962" x2="327.3111" xlink:href="#a" y1="306.3996" y2="1.0847"/><linearGradient id="h" gradientTransform="matrix(1.019049 0 0 -1.019049 0 426.270582)" gradientUnits="userSpaceOnUse" x1="73.0906" x2="378.4056" xlink:href="#a" y1="357.4941" y2="52.1791"/><path d="m8.679688 321.585938c-4.792969 0-8.679688 3.886718-8.679688 8.675781 0 4.792969 3.886719 8.679687 8.679688 8.679687h494.640624c4.792969 0 8.679688-3.886718 8.679688-8.679687 0-4.789063-3.886719-8.675781-8.679688-8.675781h-329.761718v-17.355469h329.761718c4.792969 0 8.679688-3.886719 8.679688-8.679688v-286.371093c0-4.792969-3.886719-8.679688-8.679688-8.679688h-494.640624c-4.792969 0-8.679688 3.886719-8.679688 8.679688v286.371093c0 4.792969 3.886719 8.679688 8.679688 8.679688h43.386718v17.355469zm139.566406-60.746094h-104.855469v-216.949219h425.21875v216.949219zm-78.824219 25.3125c.007813-4.394532 3.566406-7.953125 7.960937-7.957032h70.863282c4.394531.003907 7.953125 3.5625 7.957031 7.957032v9.398437h-86.78125zm-52.066406.722656v-269.019531h477.289062v269.019531h-321.085937v-.722656c-.03125-2.710938-.507813-5.398438-1.40625-7.957032h305.136718c4.792969 0 8.675782-3.886718 8.675782-8.679687v-234.304687c0-4.792969-3.882813-8.675782-8.675782-8.675782h-442.578124c-4.792969 0-8.675782 3.882813-8.675782 8.675782v234.304687c0 4.792969 3.882813 8.679687 8.675782 8.679687h18.761718c-.898437 2.558594-1.371094 5.246094-1.40625 7.957032v.722656zm52.066406 26.03125h86.78125v8.679688h-86.78125zm0 0" fill="url(#b)"/><path d="m120.625 66.046875c-2.558594-4.289063-8.109375-5.695313-12.398438-3.136719-1.289062.765625-2.367187 1.84375-3.136718 3.136719l-26.035156 52.066406c-2.140626 4.289063-.398438 9.503907 3.890624 11.644531 4.289063 2.140626 9.5.402344 11.644532-3.886718l6.230468-12.558594h23.984376l6.277343 12.558594c2.140625 4.289062 7.355469 6.027344 11.644531 3.886718 4.289063-2.140624 6.027344-7.355468 3.886719-11.644531zm-11.125 29.910156 3.3125-6.628906 3.316406 6.628906zm0 0" fill="url(#c)"/><path d="m221.289062 61.246094h-30.375c-4.792968 0-8.675781 3.886718-8.675781 8.679687v52.066407c0 4.792968 3.882813 8.679687 8.675781 8.679687h30.375c11.980469 0 21.691407-9.714844 21.691407-21.695313 0-4.695312-1.519531-9.261718-4.335938-13.019531 7.1875-9.582031 5.246094-23.183593-4.339843-30.371093-3.753907-2.816407-8.324219-4.339844-13.015626-4.339844zm0 52.066406h-21.695312v-8.675781h21.695312c2.394532 0 4.335938 1.941406 4.335938 4.339843 0 2.394532-1.941406 4.335938-4.335938 4.335938zm0-26.03125h-21.695312v-8.679688h21.695312c2.394532 0 4.335938 1.941407 4.335938 4.339844 0 2.398438-1.941406 4.339844-4.335938 4.339844zm0 0" fill="url(#d)"/><path d="m303.730469 78.601562h8.675781c3.105469-.003906 5.972656 1.652344 7.523438 4.339844 2.273437 4.21875 7.535156 5.800782 11.753906 3.53125 4.21875-2.273437 5.800781-7.535156 3.53125-11.753906-.082032-.15625-.171875-.304688-.261719-.453125-4.667969-8.039063-13.25-12.996094-22.546875-13.019531h-8.675781c-14.378907 0-26.035157 11.65625-26.035157 26.035156v17.355469c0 14.375 11.65625 26.03125 26.035157 26.03125h8.675781c9.300781-.015625 17.894531-4.972657 22.5625-13.015625 2.523438-4.078125 1.261719-9.425782-2.8125-11.945313-4.078125-2.523437-9.425781-1.261719-11.945312 2.8125-.09375.148438-.179688.300781-.261719.453125-1.554688 2.695313-4.433594 4.347656-7.542969 4.339844h-8.675781c-4.792969 0-8.679688-3.886719-8.679688-8.679688v-17.355468c0-4.789063 3.886719-8.675782 8.679688-8.675782zm0 0" fill="url(#e)"/><path d="m407.863281 61.246094h-26.03125c-4.792969 0-8.679687 3.886718-8.679687 8.679687v52.066407c0 4.792968 3.886718 8.679687 8.679687 8.679687h26.03125c14.378907 0 26.035157-11.65625 26.035157-26.035156v-17.355469c0-14.378906-11.65625-26.035156-26.035157-26.035156zm8.679688 43.390625c0 4.792969-3.886719 8.675781-8.679688 8.675781h-17.355469v-34.710938h17.355469c4.792969 0 8.679688 3.886719 8.679688 8.679688zm0 0" fill="url(#f)"/><path d="m130.167969 182.738281c4.792969 0 8.679687-3.886719 8.679687-8.679687 0-4.792969-3.886718-8.675782-8.679687-8.675782h-43.390625c-4.789063 0-8.675782 3.882813-8.675782 8.675782v52.066406c0 4.792969 3.886719 8.679688 8.675782 8.679688h43.390625c4.792969 0 8.679687-3.886719 8.679687-8.679688 0-4.789062-3.886718-8.675781-8.679687-8.675781h-34.710938v-8.679688h26.035157c4.792968 0 8.675781-3.886719 8.675781-8.675781 0-4.792969-3.882813-8.679688-8.675781-8.679688h-26.035157v-8.679687h34.710938zm0 0" fill="url(#g)"/><path d="m234.304688 165.382812h-43.390626c-4.792968 0-8.675781 3.886719-8.675781 8.675782v52.070312c0 4.792969 3.882813 8.675782 8.675781 8.675782 4.792969 0 8.679688-3.882813 8.679688-8.675782v-17.355468h17.355469c4.792969 0 8.675781-3.886719 8.675781-8.679688s-3.882812-8.679688-8.675781-8.679688h-17.355469v-8.675781h34.710938c4.792968 0 8.679687-3.886719 8.679687-8.679687 0-4.792969-3.886719-8.675782-8.679687-8.675782zm0 0" fill="url(#h)"/></svg>