<svg height="511pt" viewBox="-8 1 511 511.99901" width="511pt" xmlns="http://www.w3.org/2000/svg" xmlns:xlink="http://www.w3.org/1999/xlink"><linearGradient id="a"><stop offset="0" stop-color="#662d91"/><stop offset=".437" stop-color="#3873b3"/><stop offset="1" stop-color="#00c9dd"/></linearGradient><linearGradient id="b" gradientTransform="matrix(1.002049 0 0 -1.002049 -8.037953 521.065538)" gradientUnits="userSpaceOnUse" x1="110.6553" x2="430.0723" xlink:href="#a" y1="386.5302" y2="67.1132"/><linearGradient id="c" gradientTransform="matrix(1.002049 0 0 -1.002049 -8.037953 521.065538)" gradientUnits="userSpaceOnUse" x1="24.1294" x2="343.5549" xlink:href="#a" y1="300.0128" y2="-19.4127"/><linearGradient id="d" gradientTransform="matrix(1.002049 0 0 -1.002049 -8.037953 521.065538)" gradientUnits="userSpaceOnUse" x1="134.834" x2="454.2596" xlink:href="#a" y1="410.7175" y2="91.2919"/><linearGradient id="e" gradientTransform="matrix(1.002049 0 0 -1.002049 -8.037953 521.065538)" gradientUnits="userSpaceOnUse" x1="237.0229" x2="556.4485" xlink:href="#a" y1="512.9064" y2="193.4809"/><linearGradient id="f" gradientTransform="matrix(1.002049 0 0 -1.002049 -8.037953 521.065538)" gradientUnits="userSpaceOnUse" x1="292.2043" x2="611.6213" xlink:href="#a" y1="568.0792" y2="248.6622"/><linearGradient id="g" gradientTransform="matrix(1.002049 0 0 -1.002049 -8.037953 521.065538)" gradientUnits="userSpaceOnUse" x1="245.5387" x2="564.9642" xlink:href="#a" y1="521.4221" y2="201.9966"/><linearGradient id="h" gradientTransform="matrix(1.002049 0 0 -1.002049 -8.037953 521.065538)" gradientUnits="userSpaceOnUse" x1="-22.6313" x2="296.7857" xlink:href="#a" y1="253.2437" y2="-66.1734"/><path d="m161.914062 374.605469c16.546876 10.984375 26.441407 29.574219 26.316407 49.433593v53.820313c0 .171875.085937.316406.09375.484375.054687.582031.167969 1.152344.34375 1.707031.117187.558594.296875 1.097657.535156 1.613281.042969.160157.09375.316407.152344.46875l14.628906 25.597657c1.523437 2.648437 4.351563 4.273437 7.40625 4.269531h73.144531c3.054688.003906 5.878906-1.621094 7.410156-4.269531l14.625-25.597657c.058594-.152343.109376-.308593.152344-.46875.238282-.515624.417969-1.058593.539063-1.613281.171875-.554687.285156-1.125.339843-1.707031 0-.167969.09375-.3125.09375-.484375v-53.835937c-.128906-20.101563 10.003907-38.882813 26.878907-49.808594 46.957031-30.726563 75.332031-82.992188 75.519531-139.109375.121094-89.539063-72.367188-162.226563-161.910156-162.351563-86.398438-.117187-157.710938 67.535156-162.140625 153.820313-3.078125 59.378906 25.867187 115.859375 75.871093 148.03125zm129.082032 43.519531c-.15625 1.964844-.367188 3.910156-.367188 5.898438v11.167968h-85.332031v-11.152344c0-1.996093-.214844-3.949218-.359375-5.914062zm-85.699219 34.132812h85.332031v17.066407h-85.332031zm11.039063 42.667969-4.871094-8.535156h72.996094l-4.875 8.535156zm-113.242188-267.515625c4.117188-74.996094 64.34375-134.695312 139.375-138.152344 39.324219-1.621093 77.585938 13 105.808594 40.429688 28.738281 27.519531 44.914062 65.632812 44.75 105.417969-.160156 50.328125-25.597656 97.203125-67.703125 124.765625-14.886719 9.644531-25.894531 24.230468-31.085938 41.1875h-37.742187v-129.011719l40.832031-34.226563c3.613281-3.027343 4.085937-8.414062 1.058594-12.023437-3.027344-3.613281-8.414063-4.085937-12.023438-1.058594l-38.402343 32.179688-38.398438-32.179688c-3.613281-3.027343-8.996094-2.554687-12.023438 1.058594-3.027343 3.609375-2.554687 8.996094 1.058594 12.023437l40.832032 34.21875v129.019532h-37.675782c-5.019531-16.839844-15.894531-31.332032-30.660156-40.863282-44.835938-28.867187-70.78125-79.53125-68-132.785156zm0 0" fill="url(#b)"/><path d="m9.03125 238.929688h34.132812c4.714844 0 8.535157-3.820313 8.535157-8.535157 0-4.710937-3.820313-8.53125-8.535157-8.53125h-34.132812c-4.710938 0-8.53125 3.820313-8.53125 8.53125 0 4.714844 3.820312 8.535157 8.53125 8.535157zm0 0" fill="url(#c)"/><path d="m97.113281 91.613281c3.390625 3.273438 8.789063 3.179688 12.066407-.210937 3.191406-3.304688 3.191406-8.550782 0-11.855469l-25.847657-25.847656c-3.390625-3.273438-8.792969-3.179688-12.066406.210937-3.195313 3.304688-3.195313 8.546875 0 11.855469zm0 0" fill="url(#d)"/><path d="m247.960938 51.199219c4.714843 0 8.535156-3.820313 8.535156-8.535157v-34.128906c0-4.714844-3.820313-8.535156-8.535156-8.535156-4.710938 0-8.53125 3.820312-8.53125 8.535156v34.132813c0 4.710937 3.820312 8.53125 8.53125 8.53125zm0 0" fill="url(#e)"/><path d="m392.777344 94.113281c2.265625 0 4.433594-.902343 6.035156-2.5l25.847656-25.847656c3.273438-3.390625 3.179688-8.792969-.210937-12.066406-3.304688-3.195313-8.550781-3.195313-11.855469 0l-25.847656 25.847656c-3.332032 3.332031-3.332032 8.734375.003906 12.066406 1.597656 1.601563 3.765625 2.5 6.027344 2.5zm0 0" fill="url(#f)"/><path d="m452.757812 238.929688h34.132813c4.714844 0 8.535156-3.820313 8.535156-8.535157 0-4.710937-3.820312-8.53125-8.535156-8.53125h-34.132813c-4.710937 0-8.53125 3.820313-8.53125 8.53125 0 4.714844 3.820313 8.535157 8.53125 8.535157zm0 0" fill="url(#g)"/><path d="m398.8125 369.179688c-3.390625-3.273438-8.792969-3.179688-12.066406.210937-3.195313 3.304687-3.195313 8.550781 0 11.855469l25.847656 25.847656c3.390625 3.273438 8.792969 3.179688 12.066406-.210938 3.191406-3.304687 3.191406-8.550781 0-11.855468zm0 0" fill="url(#d)"/><path d="m77.296875 409.59375c2.265625 0 4.433594-.898438 6.035156-2.5l25.847657-25.847656c3.273437-3.390625 3.179687-8.792969-.210938-12.066406-3.304688-3.191407-8.550781-3.191407-11.855469 0l-25.847656 25.847656c-3.332031 3.332031-3.332031 8.734375.003906 12.066406 1.597657 1.601562 3.765625 2.5 6.027344 2.5zm0 0" fill="url(#h)"/></svg>