<svg height="512pt" viewBox="0 -60 512.001 512" width="512pt" xmlns="http://www.w3.org/2000/svg" xmlns:xlink="http://www.w3.org/1999/xlink"><linearGradient id="a"><stop offset="0" stop-color="#662d91"/><stop offset=".437" stop-color="#3873b3"/><stop offset="1" stop-color="#00c9dd"/></linearGradient><linearGradient id="b" gradientTransform="matrix(1.002065 0 0 -1.002065 0 444.603926)" gradientUnits="userSpaceOnUse" x1="66.7038" x2="401.8494" xlink:href="#a" y1="428.0769" y2="92.9313"/><linearGradient id="c" gradientTransform="matrix(1.002065 0 0 -1.002065 0 444.603926)" gradientUnits="userSpaceOnUse" x1="85.8642" x2="421.0098" xlink:href="#a" y1="447.2373" y2="112.0917"/><linearGradient id="d" gradientTransform="matrix(1.002065 0 0 -1.002065 0 444.603926)" gradientUnits="userSpaceOnUse" x1="68.8328" x2="403.9783" xlink:href="#a" y1="430.2058" y2="95.0602"/><linearGradient id="e" gradientTransform="matrix(1.002065 0 0 -1.002065 0 444.603926)" gradientUnits="userSpaceOnUse" x1="51.8013" x2="386.9468" xlink:href="#a" y1="413.1743" y2="78.0287"/><linearGradient id="f" gradientTransform="matrix(1.002065 0 0 -1.002065 0 444.603926)" gradientUnits="userSpaceOnUse" x1="34.7698" x2="369.9153" xlink:href="#a" y1="396.1428" y2="60.9972"/><linearGradient id="g" gradientTransform="matrix(1.002065 0 0 -1.002065 0 444.603926)" gradientUnits="userSpaceOnUse" x1="17.7383" x2="352.8839" xlink:href="#a" y1="379.1113" y2="43.9658"/><linearGradient id="h" gradientTransform="matrix(1.002065 0 0 -1.002065 0 444.603926)" gradientUnits="userSpaceOnUse" x1=".7068" x2="335.8524" xlink:href="#a" y1="362.0799" y2="26.9343"/><linearGradient id="i" gradientTransform="matrix(1.002065 0 0 -1.002065 0 444.603926)" gradientUnits="userSpaceOnUse" x1="-16.3247" x2="318.8209" xlink:href="#a" y1="345.0484" y2="9.9028"/><linearGradient id="j" gradientTransform="matrix(1.002065 0 0 -1.002065 0 444.603926)" gradientUnits="userSpaceOnUse" x1="-33.3562" x2="301.7894" xlink:href="#a" y1="328.0169" y2="-7.1287"/><linearGradient id="k" gradientTransform="matrix(1.002065 0 0 -1.002065 0 444.603926)" gradientUnits="userSpaceOnUse" x1="211.4714" x2="546.6171" xlink:href="#a" y1="572.8445" y2="237.6989"/><linearGradient id="l" gradientTransform="matrix(1.002065 0 0 -1.002065 0 444.603926)" gradientUnits="userSpaceOnUse" x1="194.44" x2="529.5856" xlink:href="#a" y1="555.813" y2="220.6674"/><linearGradient id="m" gradientTransform="matrix(1.002065 0 0 -1.002065 0 444.603926)" gradientUnits="userSpaceOnUse" x1="177.4085" x2="512.5541" xlink:href="#a" y1="538.7816" y2="203.6359"/><linearGradient id="n" gradientTransform="matrix(1.002065 0 0 -1.002065 0 444.603926)" gradientUnits="userSpaceOnUse" x1="160.377" x2="495.5226" xlink:href="#a" y1="521.7501" y2="186.6045"/><linearGradient id="o" gradientTransform="matrix(1.002065 0 0 -1.002065 0 444.603926)" gradientUnits="userSpaceOnUse" x1="143.3455" x2="478.4911" xlink:href="#a" y1="504.7186" y2="169.573"/><linearGradient id="p" gradientTransform="matrix(1.002065 0 0 -1.002065 0 444.603926)" gradientUnits="userSpaceOnUse" x1="126.314" x2="461.4596" xlink:href="#a" y1="487.6871" y2="152.5415"/><linearGradient id="q" gradientTransform="matrix(1.002065 0 0 -1.002065 0 444.603926)" gradientUnits="userSpaceOnUse" x1="109.2825" x2="444.4281" xlink:href="#a" y1="470.6556" y2="135.51"/><linearGradient id="r" gradientTransform="matrix(1.002065 0 0 -1.002065 0 444.603926)" gradientUnits="userSpaceOnUse" x1="73.0906" x2="408.2362" xlink:href="#a" y1="434.4637" y2="99.3181"/><linearGradient id="s" gradientTransform="matrix(1.002065 0 0 -1.002065 0 444.603926)" gradientUnits="userSpaceOnUse" x1="-5.7541" x2="329.3915" xlink:href="#a" y1="355.619" y2="20.4733"/><path d="m503.464844 34.136719h-25.597656v-8.535157c0-4.714843-3.820313-8.535156-8.535157-8.535156h-119.464843v-8.53125c0-4.714844-3.820313-8.535156-8.535157-8.535156h-51.199219c-4.710937 0-8.53125 3.820312-8.53125 8.535156v8.53125h-238.933593c-4.714844 0-8.535157 3.820313-8.535157 8.535156v8.535157h-25.597656c-4.714844 0-8.535156 3.820312-8.535156 8.53125v324.265625c0 4.714844 3.820312 8.535156 8.535156 8.535156h209.449219c19.789063 20.996094 52.851563 21.972656 73.847656 2.183594.75-.707032 1.476563-1.433594 2.183594-2.183594h209.453125c4.710938 0 8.53125-3.820312 8.53125-8.535156v-324.265625c0-4.710938-3.820312-8.53125-8.535156-8.53125zm-204.796875-17.066407h34.132812v213.332032l-10.242187-13.652344c-2.828125-3.769531-8.175782-4.535156-11.945313-1.707031-.648437.484375-1.222656 1.058593-1.707031 1.707031l-10.238281 13.652344zm-11.230469 247.03125c3.484375 1.160157 7.320312-.039062 9.523438-2.980468l18.773437-25.027344 18.773437 25.027344c1.609376 2.148437 4.140626 3.414062 6.828126 3.414062.914062-.003906 1.824218-.148437 2.695312-.433594 3.484375-1.164062 5.835938-4.425781 5.835938-8.097656v-221.867187h110.933593v290.132812h-196.269531v-290.132812h17.066406v221.863281c0 3.675781 2.351563 6.9375 5.839844 8.101562zm-236.238281-229.964843h196.265625v290.132812h-196.265625zm443.734375 324.265625h-204.800782c-2.59375-.003906-5.042968 1.175781-6.664062 3.199218-12.125 15.167969-34.253906 17.636719-49.425781 5.511719-2.035157-1.628906-3.886719-3.476562-5.511719-5.511719-1.621094-2.023437-4.074219-3.203124-6.667969-3.199218h-204.796875v-307.199219h17.066406v281.597656c0 4.714844 3.820313 8.535157 8.53125 8.535157h426.667969c4.710938 0 8.535157-3.820313 8.535157-8.535157v-281.597656h17.066406zm0 0" fill="url(#b)"/><path d="m76.800781 68.269531h145.066407c4.710937 0 8.535156-3.820312 8.535156-8.535156 0-4.710937-3.824219-8.535156-8.535156-8.535156h-145.066407c-4.714843 0-8.535156 3.824219-8.535156 8.535156 0 4.714844 3.820313 8.535156 8.535156 8.535156zm0 0" fill="url(#c)"/><path d="m76.800781 102.402344h145.066407c4.710937 0 8.535156-3.820313 8.535156-8.535156 0-4.710938-3.824219-8.53125-8.535156-8.53125h-145.066407c-4.714843 0-8.535156 3.820312-8.535156 8.53125 0 4.714843 3.820313 8.535156 8.535156 8.535156zm0 0" fill="url(#d)"/><path d="m76.800781 136.535156h145.066407c4.710937 0 8.535156-3.820312 8.535156-8.535156 0-4.710938-3.824219-8.53125-8.535156-8.53125h-145.066407c-4.714843 0-8.535156 3.820312-8.535156 8.53125 0 4.714844 3.820313 8.535156 8.535156 8.535156zm0 0" fill="url(#e)"/><path d="m76.800781 170.667969h145.066407c4.710937 0 8.535156-3.820313 8.535156-8.535157 0-4.710937-3.824219-8.53125-8.535156-8.53125h-145.066407c-4.714843 0-8.535156 3.820313-8.535156 8.53125 0 4.714844 3.820313 8.535157 8.535156 8.535157zm0 0" fill="url(#f)"/><path d="m76.800781 204.800781h145.066407c4.710937 0 8.535156-3.820312 8.535156-8.53125 0-4.714843-3.824219-8.535156-8.535156-8.535156h-145.066407c-4.714843 0-8.535156 3.820313-8.535156 8.535156 0 4.710938 3.820313 8.53125 8.535156 8.53125zm0 0" fill="url(#g)"/><path d="m76.800781 238.933594h145.066407c4.710937 0 8.535156-3.820313 8.535156-8.53125 0-4.714844-3.824219-8.535156-8.535156-8.535156h-145.066407c-4.714843 0-8.535156 3.820312-8.535156 8.535156 0 4.710937 3.820313 8.53125 8.535156 8.53125zm0 0" fill="url(#h)"/><path d="m76.800781 273.066406h145.066407c4.710937 0 8.535156-3.820312 8.535156-8.53125 0-4.714844-3.824219-8.535156-8.535156-8.535156h-145.066407c-4.714843 0-8.535156 3.820312-8.535156 8.535156 0 4.710938 3.820313 8.53125 8.535156 8.53125zm0 0" fill="url(#i)"/><path d="m76.800781 307.203125h145.066407c4.710937 0 8.535156-3.824219 8.535156-8.535156 0-4.710938-3.824219-8.535157-8.535156-8.535157h-145.066407c-4.714843 0-8.535156 3.824219-8.535156 8.535157 0 4.710937 3.820313 8.535156 8.535156 8.535156zm0 0" fill="url(#j)"/><path d="m366.933594 68.269531h68.265625c4.714843 0 8.535156-3.820312 8.535156-8.535156 0-4.710937-3.820313-8.535156-8.535156-8.535156h-68.265625c-4.714844 0-8.535156 3.824219-8.535156 8.535156 0 4.714844 3.820312 8.535156 8.535156 8.535156zm0 0" fill="url(#k)"/><path d="m366.933594 102.402344h68.265625c4.714843 0 8.535156-3.820313 8.535156-8.535156 0-4.710938-3.820313-8.53125-8.535156-8.53125h-68.265625c-4.714844 0-8.535156 3.820312-8.535156 8.53125 0 4.714843 3.820312 8.535156 8.535156 8.535156zm0 0" fill="url(#l)"/><path d="m366.933594 136.535156h68.265625c4.714843 0 8.535156-3.820312 8.535156-8.535156 0-4.710938-3.820313-8.53125-8.535156-8.53125h-68.265625c-4.714844 0-8.535156 3.820312-8.535156 8.53125 0 4.714844 3.820312 8.535156 8.535156 8.535156zm0 0" fill="url(#m)"/><path d="m366.933594 170.667969h68.265625c4.714843 0 8.535156-3.820313 8.535156-8.535157 0-4.710937-3.820313-8.53125-8.535156-8.53125h-68.265625c-4.714844 0-8.535156 3.820313-8.535156 8.53125 0 4.714844 3.820312 8.535157 8.535156 8.535157zm0 0" fill="url(#n)"/><path d="m366.933594 204.800781h68.265625c4.714843 0 8.535156-3.820312 8.535156-8.53125 0-4.714843-3.820313-8.535156-8.535156-8.535156h-68.265625c-4.714844 0-8.535156 3.820313-8.535156 8.535156 0 4.710938 3.820312 8.53125 8.535156 8.53125zm0 0" fill="url(#o)"/><path d="m366.933594 238.933594h68.265625c4.714843 0 8.535156-3.820313 8.535156-8.53125 0-4.714844-3.820313-8.535156-8.535156-8.535156h-68.265625c-4.714844 0-8.535156 3.820312-8.535156 8.535156 0 4.710937 3.820312 8.53125 8.535156 8.53125zm0 0" fill="url(#p)"/><path d="m366.933594 273.066406h68.265625c4.714843 0 8.535156-3.820312 8.535156-8.53125 0-4.714844-3.820313-8.535156-8.535156-8.535156h-68.265625c-4.714844 0-8.535156 3.820312-8.535156 8.535156 0 4.710938 3.820312 8.53125 8.535156 8.53125zm0 0" fill="url(#q)"/><path d="m290.132812 307.203125h145.066407c4.714843 0 8.535156-3.824219 8.535156-8.535156 0-4.710938-3.820313-8.535157-8.535156-8.535157h-145.066407c-4.710937 0-8.535156 3.824219-8.535156 8.535157.003906 4.710937 3.824219 8.535156 8.535156 8.535156zm0 0" fill="url(#r)"/><path d="m266.488281 344.425781c-4.3125 5.789063-12.5 6.992188-18.292969 2.679688-1.019531-.757813-1.925781-1.660157-2.683593-2.679688-3.007813-3.636719-8.390625-4.144531-12.023438-1.136719-3.632812 3.007813-4.140625 8.390626-1.136719 12.023438 10.078126 13.058594 28.832032 15.476562 41.890626 5.398438 2.027343-1.558594 3.839843-3.375 5.402343-5.398438 3.007813-3.632812 2.496094-9.015625-1.136719-12.023438-3.632812-3.007812-9.011718-2.5-12.019531 1.136719zm0 0" fill="url(#s)"/></svg>