<svg height="511pt" viewBox="0 0 511 511.99866" width="511pt" xmlns="http://www.w3.org/2000/svg" xmlns:xlink="http://www.w3.org/1999/xlink"><linearGradient id="a"><stop offset="0" stop-color="#662d91"/><stop offset=".437" stop-color="#3873b3"/><stop offset="1" stop-color="#00c9dd"/></linearGradient><linearGradient id="b" gradientTransform="matrix(1.002012 0 0 -1.002012 .49547 503.979695)" gradientUnits="userSpaceOnUse" x1="128.0924" x2="486.4774" xlink:href="#a" y1="426.6558" y2="68.2793"/><linearGradient id="c" gradientTransform="matrix(1.002012 0 0 -1.002012 .49547 503.979695)" gradientUnits="userSpaceOnUse" x1="126.7432" x2="485.1197" xlink:href="#a" y1="425.3066" y2="66.9216"/><linearGradient id="d" gradientTransform="matrix(1.002012 0 0 -1.002012 .49547 503.979695)" gradientUnits="userSpaceOnUse" x1="25.5469" x2="383.9319" xlink:href="#a" y1="324.1103" y2="-34.2747"/><linearGradient id="e" gradientTransform="matrix(1.002012 0 0 -1.002012 .49547 503.979695)" gradientUnits="userSpaceOnUse" x1="72.3835" x2="430.7685" xlink:href="#a" y1="370.9469" y2="12.5619"/><linearGradient id="f" gradientTransform="matrix(1.002012 0 0 -1.002012 .49547 503.979695)" gradientUnits="userSpaceOnUse" x1="187.346" x2="545.731" xlink:href="#a" y1="485.9094" y2="127.5244"/><linearGradient id="g" gradientTransform="matrix(1.002012 0 0 -1.002012 .49547 503.979695)" gradientUnits="userSpaceOnUse" x1="234.1826" x2="592.5676" xlink:href="#a" y1="532.746" y2="174.361"/><path d="m461.269531 147.347656c48.144531-25.316406 52.589844-53.917968 50.953125-68.722656-3.058594-27.726562-30.523437-52.539062-69.972656-63.214844-57.167969-15.441406-155.246094-22.03125-220.53125-6.3125-10 2.40625-19.855469 5.273438-29.523438 8.371094l-4.464843-11.902344c-1.636719-4.417968-6.550781-6.671875-10.96875-5.03125-1.84375.683594-3.394531 1.984375-4.386719 3.679688l-15.589844 26.367187c-112.011718 47.945313-174.3125 136.457031-151.671875 215.992188 15.640625 54.925781 68.261719 95.824219 144.5625 112.542969l3.882813 131.914062c.503906 12.074219 10.699218 21.453125 22.773437 20.949219 11.40625-.476563 20.527344-9.640625 20.949219-21.050781l3.667969-124.757813c7.75.484375 15.523437.785156 23.347656.785156 32.089844-.089843 64.058594-3.972656 95.234375-11.570312 23.742188-5.648438 46.828125-13.757813 68.886719-24.191407 37.144531-16.929687 56.925781-57.949218 47.042969-97.554687l-4.183594-16.785156c-6.382813-20.75-.480469-43.328125 15.25-58.296875 4.269531-4.515625 9.25-8.300782 14.742187-11.210938zm-290.117187-36.394531h8.535156v59.730469h-8.535156zm-22.765625-17.824219c1.535156 4.027344 3.445312 7.898438 5.699219 11.570313v12.414062c-8.085938-4.578125-10.925782-14.847656-6.347657-22.933593.203125-.355469.417969-.707032.648438-1.050782zm-.246094 209.910156c-7.125 6.171876-17.902344 5.398438-24.074219-1.722656-6.171875-7.125-5.402344-17.902344 1.722656-24.074218 6.289063-5.449219 15.589844-5.570313 22.019532-.28125-.050782 8.722656.109375 17.40625.304687 26.09375zm29.839844-274.785156 8.53125 22.757813c5.230469 14.074219 4.070312 29.730469-3.183594 42.878906h-15.828125c-7.117188-12.933594-8.359375-28.289063-3.410156-42.195313zm-156.453125 213.644532c-19.027344-66.835938 31.53125-141.78125 124.136718-187.441407-1.46875 6.761719-1.910156 13.699219-1.304687 20.589844-1.660156.179687-3.226563.855469-4.496094 1.9375-14.023437 12.515625-15.246093 34.027344-2.730469 48.046875 4.5 5.042969 10.402344 8.632812 16.953126 10.308594v43.46875c-3.257813 26.210937-5.117188 52.691406-5.886719 79.167968-17.773438-6.277343-37.273438 3.042969-43.546875 20.820313-6.277344 17.773437 3.042968 37.269531 20.816406 43.546875 7.492188 2.644531 15.667969 2.59375 23.121094-.140625l.5625 19.265625c-66.742188-15.722656-114.253906-52.578125-127.625-99.570312zm163.832031 74.066406-5.117187 174.351562c-.125 2.65625-2.378907 4.707032-5.035157 4.582032-2.4375-.113282-4.40625-2.035157-4.574219-4.46875l-5.121093-174.566407c-1.777344-42.761719-.214844-85.59375 4.675781-128.113281h10.460938c4.914062 42.550781 6.488281 85.417969 4.710937 128.214844zm229.355469-94.9375 4.183594 16.777344c7.820312 31.6875-8.0625 64.449218-37.785157 77.9375-21 9.941406-42.980469 17.664062-65.585937 23.039062-37.292969 9.136719-75.746094 12.617188-114.074219 10.324219l.964844-32.535157c1.898437-46 .003906-92.082031-5.667969-137.769531v-74.101562c10.945312-17.96875 13.050781-39.960938 5.71875-59.679688l-4.324219-11.550781c9.019531-2.867188 18.207031-5.53125 27.527344-7.78125 62.628906-15.089844 157.003906-8.707031 212.074219 6.203125 32.125 8.683594 55.226562 28.226563 57.476562 48.636719 2 18.097656-12.902344 36.46875-41.929687 51.734375-31.726563 17.195312-47.644531 53.808593-38.578125 88.742187zm0 0" fill="url(#b)"/><path d="m299.5625 212.1875c-19.609375 1.328125-37.96875 10.113281-51.304688 24.550781-5.90625 6.847657-8.785156 15.796875-7.988281 24.804688 2.355469 21.332031 26.835938 35.992187 57.707031 35.992187 3.652344-.003906 7.300782-.203125 10.929688-.597656 19.613281-1.328125 37.976562-10.113281 51.320312-24.550781 5.894532-6.851563 8.773438-15.796875 7.976563-24.804688-2.628906-23.746093-32.75-39.351562-68.640625-35.394531zm47.351562 49.492188c-10.550781 10.832031-24.761718 17.347656-39.859374 18.269531-27.695313 3.011719-48.492188-8.289063-49.820313-20.308594-.273437-4.5 1.289063-8.914063 4.324219-12.246094 10.550781-10.835937 24.761718-17.347656 39.855468-18.261719 2.984376-.332031 5.980469-.5 8.980469-.5 23.113281 0 39.660157 10.109376 40.835938 20.800782.296875 4.503906-1.257813 8.9375-4.300781 12.269531zm0 0" fill="url(#c)"/><path d="m77.289062 196.285156c-18.847656 0-34.128906 15.28125-34.128906 34.128906 0 18.851563 15.28125 34.132813 34.128906 34.132813 18.851563 0 34.132813-15.28125 34.132813-34.132813 0-18.847656-15.28125-34.128906-34.132813-34.128906zm0 51.195313c-9.421874 0-17.0625-7.640625-17.0625-17.066407 0-9.425781 7.640626-17.0625 17.0625-17.0625 9.425782 0 17.066407 7.636719 17.066407 17.0625 0 9.425782-7.640625 17.066407-17.066407 17.066407zm0 0" fill="url(#d)"/><path d="m94.355469 187.75c18.851562 0 34.132812-15.28125 34.132812-34.132812 0-18.847657-15.28125-34.128907-34.132812-34.128907-18.847657 0-34.128907 15.28125-34.128907 34.128907 0 18.851562 15.28125 34.132812 34.128907 34.132812zm0-51.199219c9.425781 0 17.066406 7.640625 17.066406 17.066407 0 9.425781-7.640625 17.066406-17.066406 17.066406-9.421875 0-17.0625-7.640625-17.0625-17.066406-.003907-9.421876 7.640625-17.066407 17.0625-17.066407zm0 0" fill="url(#e)"/><path d="m282.078125 76.824219c0-18.851563-15.277344-34.132813-34.128906-34.132813-18.851563 0-34.132813 15.28125-34.132813 34.132813 0 18.847656 15.28125 34.128906 34.132813 34.128906 18.851562 0 34.128906-15.28125 34.128906-34.128906zm-51.195313 0c0-9.425781 7.640626-17.066407 17.066407-17.066407s17.0625 7.640626 17.0625 17.066407c0 9.421875-7.636719 17.0625-17.0625 17.0625s-17.066407-7.636719-17.066407-17.0625zm0 0" fill="url(#f)"/><path d="m333.277344 102.421875c18.851562 0 34.132812-15.28125 34.132812-34.132813 0-18.847656-15.28125-34.128906-34.132812-34.128906-18.847656 0-34.132813 15.28125-34.132813 34.128906 0 18.851563 15.28125 34.132813 34.132813 34.132813zm0-51.199219c9.425781 0 17.066406 7.640625 17.066406 17.066406 0 9.425782-7.640625 17.066407-17.066406 17.066407-9.425782 0-17.066406-7.640625-17.066406-17.066407 0-9.425781 7.640624-17.066406 17.066406-17.066406zm0 0" fill="url(#g)"/></svg>