<svg height="512pt" viewBox="0 0 512 512.00032" width="512pt" xmlns="http://www.w3.org/2000/svg" xmlns:xlink="http://www.w3.org/1999/xlink"><linearGradient id="a"><stop offset="0" stop-color="#662d91"/><stop offset=".437" stop-color="#3873b3"/><stop offset="1" stop-color="#00c9dd"/></linearGradient><linearGradient id="b" gradientTransform="matrix(1.002063 0 0 -1.002063 -.000842 504.006359)" gradientUnits="userSpaceOnUse" x1="14.9032" x2="427.9423" xlink:href="#a" y1="407.1644" y2="-5.8747"/><linearGradient id="c" gradientTransform="matrix(1.002063 0 0 -1.002063 -.000842 504.006359)" gradientUnits="userSpaceOnUse" x1="59.6248" x2="472.6638" xlink:href="#a" y1="451.886" y2="38.8469"/><linearGradient id="d" gradientTransform="matrix(1.002063 0 0 -1.002063 -.000842 504.006359)" gradientUnits="userSpaceOnUse" x1="59.6009" x2="472.64" xlink:href="#a" y1="451.862" y2="38.823"/><linearGradient id="e" gradientTransform="matrix(1.002063 0 0 -1.002063 -.000842 504.006359)" gradientUnits="userSpaceOnUse" x1="-89.4144" x2="323.6247" xlink:href="#a" y1="302.8467" y2="-110.1923"/><linearGradient id="f" gradientTransform="matrix(1.002063 0 0 -1.002063 -.000842 504.006359)" gradientUnits="userSpaceOnUse" x1="85.1583" x2="498.1974" xlink:href="#a" y1="477.4195" y2="64.3804"/><path d="m503.464844 221.867188h-128v-34.132813h25.601562c4.710938-.003906 8.527344-3.828125 8.523438-8.542969-.003906-2.886718-1.46875-5.578125-3.890625-7.148437l-141.167969-91.347657v-14.296874l95.941406-23.984376c4.570313-1.148437 7.347656-5.78125 6.203125-10.351562-.765625-3.054688-3.148437-5.4375-6.203125-6.203125l-102.398437-25.601563c-4.570313-1.144531-9.207031 1.632813-10.351563 6.203126-.171875.679687-.257812 1.375-.257812 2.074218v72.15625l-141.164063 91.351563c-3.953125 2.5625-5.082031 7.847656-2.515625 11.800781 1.570313 2.421875 4.261719 3.886719 7.148438 3.890625h25.601562v34.132813h-128c-4.714844 0-8.535156 3.820312-8.535156 8.535156v76.796875c0 4.714843 3.820312 8.535156 8.535156 8.535156v187.730469c0 4.714844 3.820313 8.535156 8.53125 8.535156h477.867188c4.710937 0 8.53125-3.820312 8.53125-8.535156v-187.730469c4.714844 0 8.535156-3.820313 8.535156-8.535156v-76.796875c0-4.714844-3.820312-8.535156-8.535156-8.535156zm-238.933594-202.402344 58.683594 14.671875-58.683594 14.667969zm230.402344 219.46875v59.734375h-119.46875v-59.734375zm-477.867188 0h119.464844v59.734375h-119.464844zm8.535156 76.800781h110.933594v179.199219h-110.933594zm127.996094-8.53125v-128c0-4.714844-3.820312-8.535156-8.53125-8.535156h-5.242187l116.175781-75.171875 116.171875 75.171875h-5.242187c-4.710938 0-8.53125 3.820312-8.53125 8.535156v315.730469h-34.132813v-145.066406c0-4.710938-3.824219-8.535157-8.535156-8.535157h-119.464844c-4.714844 0-8.535156 3.824219-8.535156 8.535157v145.066406h-34.132813zm153.601563 68.265625h-102.398438v-17.066406h102.398438zm-102.398438 17.066406h42.664063v102.398438h-42.664063zm59.730469 0h42.667969v102.398438h-42.667969zm221.867188 102.398438h-110.933594v-179.199219h110.933594zm0 0" fill="url(#b)"/><path d="m256 324.269531c42.414062 0 76.800781-34.386719 76.800781-76.800781 0-42.417969-34.386719-76.800781-76.800781-76.800781-42.417969 0-76.800781 34.382812-76.800781 76.800781.050781 42.394531 34.40625 76.746094 76.800781 76.800781zm0-136.535156c32.988281 0 59.730469 26.742187 59.730469 59.734375 0 32.988281-26.742188 59.730469-59.730469 59.730469-32.992188 0-59.734375-26.742188-59.734375-59.730469.039063-32.976562 26.757813-59.695312 59.734375-59.734375zm0 0" fill="url(#c)"/><path d="m230.398438 273.070312c1.683593-.003906 3.328124-.5 4.730468-1.4375l25.597656-17.0625c2.375-1.582031 3.804688-4.246093 3.804688-7.101562v-42.667969c0-4.710937-3.820312-8.53125-8.53125-8.53125-4.714844 0-8.535156 3.820313-8.535156 8.53125v38.101563l-21.800782 14.507812c-3.933593 2.59375-5.023437 7.882813-2.429687 11.820313 1.585937 2.40625 4.28125 3.851562 7.164063 3.839843zm0 0" fill="url(#d)"/><path d="m110.933594 332.800781h-59.734375c-4.710938 0-8.53125 3.820313-8.53125 8.535157v59.730468c0 4.714844 3.820312 8.535156 8.53125 8.535156h59.734375c4.710937 0 8.535156-3.820312 8.535156-8.535156v-59.730468c-.003906-4.714844-3.824219-8.535157-8.535156-8.535157zm-8.535156 59.734375h-42.664063v-42.667968h42.664063zm0 0" fill="url(#e)"/><path d="m401.066406 409.601562h59.730469c4.714844 0 8.535156-3.820312 8.535156-8.535156v-59.734375c0-4.710937-3.820312-8.53125-8.535156-8.53125h-59.730469c-4.714844 0-8.535156 3.820313-8.535156 8.53125v59.734375c0 4.714844 3.820312 8.535156 8.535156 8.535156zm8.53125-59.734374h42.667969v42.667968h-42.667969zm0 0" fill="url(#f)"/></svg>