<svg height="512pt" viewBox="0 -107 512 512" width="512pt" xmlns="http://www.w3.org/2000/svg" xmlns:xlink="http://www.w3.org/1999/xlink"><linearGradient id="a"><stop offset="0" stop-color="#662d91"/><stop offset=".437" stop-color="#3873b3"/><stop offset="1" stop-color="#00c9dd"/></linearGradient><linearGradient id="b" gradientTransform="matrix(1.002065 0 0 -1.002065 0 405.874624)" gradientUnits="userSpaceOnUse" x1="78.4078" x2="376.5269" xlink:href="#a" y1="381.2564" y2="83.1287"/><linearGradient id="c" gradientTransform="matrix(1.002065 0 0 -1.002065 0 405.874624)" gradientUnits="userSpaceOnUse" x1="100.06" x2="398.1876" xlink:href="#a" y1="402.9086" y2="104.7809"/><linearGradient id="d" gradientTransform="matrix(1.002065 0 0 -1.002065 0 405.874624)" gradientUnits="userSpaceOnUse" x1="138.3808" x2="436.5085" xlink:href="#a" y1="441.2294" y2="143.1018"/><path d="m503.464844 204.800781v-51.199219c0-14.140624-11.460938-25.601562-25.597656-25.601562h-70.453126l-23.773437-79.25c-1.082031-3.609375-4.402344-6.082031-8.175781-6.082031h-25.597656v-34.132813c0-4.714844-3.820313-8.535156-8.535157-8.535156h-34.132812c-4.710938 0-8.53125 3.820312-8.53125 8.535156v34.132813h-221.867188v-34.132813c0-4.714844-3.820312-8.535156-8.535156-8.535156h-34.132813c-4.710937 0-8.53125 3.820312-8.53125 8.535156v37.671875c-15.523437 6.734375-25.5781245 22.027344-25.601562 38.949219v162.3125c0 4.710938 3.820312 8.53125 8.535156 8.53125h60.5c4.683594 27.851562 31.0625 46.632812 58.914063 41.949219 21.492187-3.613281 38.335937-20.453125 41.949219-41.949219h197.804687c4.683594 27.851562 31.058594 46.632812 58.910156 41.949219 21.496094-3.613281 38.335938-20.453125 41.953125-41.949219h34.898438c4.714844 0 8.535156-3.820312 8.535156-8.53125v-34.136719c0-4.710937-3.820312-8.53125-8.535156-8.53125zm-113.867188-76.800781h-31.199218v-42.667969h17.066406v-4.433593zm-73.863281-110.933594h17.0625v25.601563h-17.0625zm-273.066406 0h17.066406v25.601563h-17.066406zm-25.601563 204.800782h58.128906c-3.058593 5.273437-5.144531 11.054687-6.160156 17.066406h-51.96875zm102.398438 59.734374c-18.847656 0-34.132813-15.28125-34.132813-34.132812s15.285157-34.136719 34.132813-34.136719c18.851562 0 34.132812 15.28125 34.132812 34.136719 0 18.851562-15.28125 34.132812-34.132812 34.132812zm0-85.335937c-10.050782-.007813-19.878906 2.964844-28.242188 8.535156h-74.15625v-119.644531c.019532-14.035156 11.390625-25.402344 25.421875-25.421875h326.628907l2.558593 8.535156h-320.476562c-14.136719 0-25.597657 11.460938-25.597657 25.597657v42.667968c0 4.710938 3.820313 8.53125 8.53125 8.53125h153.601563v93.867188h-17.835937c-4.179688-24.605469-25.476563-42.621094-50.433594-42.667969zm25.601562-110.933594h42.667969v42.667969h-42.667969zm-51.199218 0h34.132812v42.667969h-34.132812zm-51.199219 42.667969v-34.132812c0-4.710938 3.820312-8.535157 8.53125-8.535157h25.601562v42.667969zm162.132812 8.535156v-51.199218h59.730469v153.597656h-59.730469zm76.800781 102.398438v-153.601563h59.730469v153.601563zm86.097657 0h-9.300781v-93.867188h119.46875c4.710937 0 8.53125 3.824219 8.53125 8.535156v51.199219h-40.019532c-23.511718-15.613281-55.234375-9.210937-70.847656 14.300781-3.976562 5.984376-6.644531 12.746094-7.832031 19.832032zm50.433593 42.667968c-18.851562 0-34.132812-15.28125-34.132812-34.132812s15.28125-34.136719 34.132812-34.136719c18.851563 0 34.132813 15.28125 34.132813 34.136719 0 18.851562-15.28125 34.132812-34.132813 34.132812zm76.800782-42.667968h-26.367188c-1.015625-6.011719-3.105468-11.792969-6.164062-17.066406h32.53125zm0 0" fill="url(#b)"/><path d="m247.46875 93.867188h-25.601562c-4.710938 0-8.535157 3.820312-8.535157 8.535156v68.265625c0 4.710937 3.824219 8.535156 8.535157 8.535156h25.601562c4.710938 0 8.53125-3.824219 8.53125-8.535156v-68.265625c0-4.714844-3.820312-8.535156-8.53125-8.535156zm-8.535156 68.265624h-8.535156v-51.199218h8.535156zm0 0" fill="url(#c)"/><path d="m324.265625 93.867188h-25.597656c-4.714844 0-8.535157 3.820312-8.535157 8.535156v68.265625c0 4.710937 3.820313 8.535156 8.535157 8.535156h25.597656c4.714844 0 8.535156-3.824219 8.535156-8.535156v-68.265625c0-4.714844-3.820312-8.535156-8.535156-8.535156zm-8.53125 68.265624h-8.535156v-51.199218h8.535156zm0 0" fill="url(#d)"/></svg>