<svg height="511pt" viewBox="-76 0 511 511.99937" width="511pt" xmlns="http://www.w3.org/2000/svg" xmlns:xlink="http://www.w3.org/1999/xlink"><linearGradient id="a"><stop offset="0" stop-color="#662d91"/><stop offset=".437" stop-color="#3873b3"/><stop offset="1" stop-color="#00c9dd"/></linearGradient><linearGradient id="b" gradientTransform="matrix(1.002079 0 0 -1.002079 -76.297609 504.013935)" gradientUnits="userSpaceOnUse" x1="70.2515" x2="472.4756" xlink:href="#a" y1="462.5187" y2="60.2946"/><linearGradient id="c" gradientTransform="matrix(1.002079 0 0 -1.002079 -76.297609 504.013935)" gradientUnits="userSpaceOnUse" x1="72.3804" x2="474.6046" xlink:href="#a" y1="464.6477" y2="62.4235"/><linearGradient id="d" gradientTransform="matrix(1.002079 0 0 -1.002079 -76.297609 504.013935)" gradientUnits="userSpaceOnUse" x1="131.9906" x2="534.2148" xlink:href="#a" y1="524.2579" y2="122.0337"/><linearGradient id="e" gradientTransform="matrix(1.002079 0 0 -1.002079 -76.297609 504.013935)" gradientUnits="userSpaceOnUse" x1="102.1855" x2="504.4097" xlink:href="#a" y1="494.4528" y2="92.2286"/><linearGradient id="f" gradientTransform="matrix(1.002079 0 0 -1.002079 -76.297609 504.013935)" gradientUnits="userSpaceOnUse" x1="85.154" x2="487.3782" xlink:href="#a" y1="477.4213" y2="75.1972"/><linearGradient id="g" gradientTransform="matrix(1.002079 0 0 -1.002079 -76.297609 504.013935)" gradientUnits="userSpaceOnUse" x1="68.1226" x2="470.3467" xlink:href="#a" y1="460.3898" y2="58.1657"/><linearGradient id="h" gradientTransform="matrix(1.002079 0 0 -1.002079 -76.297609 504.013935)" gradientUnits="userSpaceOnUse" x1="17.0281" x2="419.2522" xlink:href="#a" y1="409.2953" y2="7.0712"/><linearGradient id="i" gradientTransform="matrix(1.002079 0 0 -1.002079 -76.297609 504.013935)" gradientUnits="userSpaceOnUse" x1="9.1167" x2="411.3408" xlink:href="#a" y1="401.384" y2="-.8401"/><path d="m350.371094 0h-341.335938c-4.714844 0-8.535156 3.820312-8.535156 8.535156v435.203125c0 4.714844 3.820312 8.535157 8.535156 8.535157h13.53125l-2.5 2.5c-2.625 2.621093-3.257812 6.640624-1.558594 9.941406 1.722657 3.273437 5.339844 5.085937 8.992188 4.503906l39.417969-6.5625-6.5625 39.417969c-.769531 4.648437 2.375 9.042969 7.023437 9.808593 2.714844.449219 5.476563-.433593 7.421875-2.378906l57.234375-57.230468h95.335938l57.234375 57.230468c3.335937 3.332032 8.738281 3.324219 12.066406-.011718 1.941406-1.945313 2.828125-4.707032 2.378906-7.417969l-6.5625-39.417969 39.414063 6.5625c4.652344.769531 9.042968-2.375 9.8125-7.023438.449218-2.714843-.4375-5.476562-2.378906-7.421874l-2.5-2.5h13.535156c4.710937 0 8.53125-3.820313 8.53125-8.535157v-435.203125c0-4.714844-3.816406-8.535156-8.53125-8.535156zm-267.035156 446.238281c-1.949219-1.945312-4.71875-2.832031-7.433594-2.378906l-24.9375 4.15625 62.601562-62.609375 22.1875 8.394531 8.398438 22.1875-62.585938 62.617188 4.15625-24.933594c.449219-2.71875-.4375-5.484375-2.386718-7.433594zm52.265624-101.101562-11.09375-16.683594 20.925782-7.910156c2.507812-.949219 4.421875-3.023438 5.171875-5.597657l5.972656-20.308593 18.773437 11.339843c2.832032 1.710938 6.398438 1.628907 9.148438-.207031l16.683594-11.089843 7.910156 20.921874c.871094 2.289063 2.679688 4.09375 4.964844 4.96875l20.925781 7.910157-11.09375 16.679687c-1.914063 2.871094-1.914063 6.605469 0 9.472656l11.09375 16.683594-20.925781 7.917969c-2.289063.863281-4.097656 2.671875-4.964844 4.960937l-7.910156 20.921876-16.683594-11.09375c-2.867188-1.910157-6.605469-1.910157-9.472656 0l-16.679688 11.09375-7.921875-20.921876c-.863281-2.289062-2.671875-4.09375-4.957031-4.960937l-20.925781-7.917969 11.09375-16.683594c1.914062-2.878906 1.898437-6.632812-.035157-9.496093zm13.5 90.070312 10.4375-10.4375 20.164063-13.457031 20.164063 13.441406 10.4375 10.453125zm134.402344 8.652344c-4.652344-.769531-9.042968 2.375-9.816406 7.023437-.152344.921876-.152344 1.867188 0 2.789063l4.15625 24.933594-62.609375-62.597657 8.398437-22.1875 22.1875-8.398437 62.617188 62.585937zm58.332032-8.652344h-22.066407l-65.167969-65.171875-13.457031-20.164062 13.90625-20.863282c2.621094-3.921874 1.566407-9.21875-2.351562-11.839843-.539063-.359375-1.117188-.65625-1.726563-.886719l-27.355468-10.339844-10.34375-27.359375c-1.664063-4.410156-6.589844-6.632812-11-4.964843-.605469.230468-1.183594.527343-1.722657.886718l-21.085937 14.054688-23.65625-14.257813c-4.039063-2.433593-9.28125-1.132812-11.714844 2.902344-.378906.628906-.675781 1.304687-.882812 2.011719l-7.847657 26.863281-26.976562 10.238281c-4.40625 1.667969-6.628907 6.59375-4.964844 11 .230469.605469.527344 1.1875.886719 1.726563l13.953125 20.828125-13.441407 20.164062-65.1875 65.171875h-22.066406v-418.140625h324.269532zm0 0" fill="url(#b)"/><path d="m43.167969 409.605469h8.53125c4.714843 0 8.535156-3.820313 8.535156-8.535157 0-4.710937-3.820313-8.53125-8.535156-8.53125v-341.339843h256.003906v341.339843c-4.710937 0-8.53125 3.820313-8.53125 8.53125 0 4.714844 3.820313 8.535157 8.53125 8.535157h8.535156c4.710938 0 8.53125-3.820313 8.53125-8.535157v-358.402343c0-4.714844-3.820312-8.535157-8.53125-8.535157h-273.070312c-4.714844 0-8.535157 3.820313-8.535157 8.535157v358.402343c0 4.714844 3.820313 8.535157 8.535157 8.535157zm0 0" fill="url(#c)"/><path d="m213.835938 102.402344c0-18.851563-15.28125-34.132813-34.132813-34.132813s-34.132813 15.28125-34.132813 34.132813c0 18.851562 15.28125 34.132812 34.132813 34.132812s34.132813-15.28125 34.132813-34.132812zm-51.199219 0c0-9.425782 7.640625-17.066406 17.066406-17.066406 9.421875 0 17.066406 7.640624 17.066406 17.066406 0 9.425781-7.644531 17.066406-17.066406 17.066406-9.425781 0-17.066406-7.640625-17.066406-17.066406zm0 0" fill="url(#d)"/><path d="m265.035156 153.601562h-170.667968c-4.710938 0-8.535157 3.820313-8.535157 8.535157 0 4.710937 3.824219 8.53125 8.535157 8.53125h170.667968c4.714844 0 8.535156-3.820313 8.535156-8.53125 0-4.714844-3.820312-8.535157-8.535156-8.535157zm0 0" fill="url(#e)"/><path d="m265.035156 187.734375h-170.667968c-4.710938 0-8.535157 3.820313-8.535157 8.535156 0 4.710938 3.824219 8.535157 8.535157 8.535157h170.667968c4.714844 0 8.535156-3.824219 8.535156-8.535157 0-4.714843-3.820312-8.535156-8.535156-8.535156zm0 0" fill="url(#f)"/><path d="m265.035156 221.871094h-170.667968c-4.710938 0-8.535157 3.820312-8.535157 8.53125 0 4.714844 3.824219 8.535156 8.535157 8.535156h170.667968c4.714844 0 8.535156-3.820312 8.535156-8.535156 0-4.710938-3.820312-8.53125-8.535156-8.53125zm0 0" fill="url(#g)"/><path d="m265.035156 256.003906h-34.132812c-4.710938 0-8.535156 3.820313-8.535156 8.53125 0 4.714844 3.824218 8.535156 8.535156 8.535156h34.132812c4.714844 0 8.535156-3.820312 8.535156-8.535156 0-4.710937-3.820312-8.53125-8.535156-8.53125zm0 0" fill="url(#f)"/><path d="m128.5 256.003906h-34.132812c-4.710938 0-8.535157 3.820313-8.535157 8.53125 0 4.714844 3.824219 8.535156 8.535157 8.535156h34.132812c4.714844 0 8.535156-3.820312 8.535156-8.535156 0-4.710937-3.820312-8.53125-8.535156-8.53125zm0 0" fill="url(#h)"/><path d="m180.929688 384.003906c9.34375.046875 18.058593-4.695312 23.09375-12.570312 2.484374-4.003906 1.25-9.265625-2.757813-11.75-4.003906-2.484375-9.265625-1.25-11.75 2.757812-1.90625 2.867188-5.140625 4.5625-8.585937 4.496094-5.042969.3125-9.394532-3.492188-9.761719-8.53125v-17.066406c.367187-5.042969 4.71875-8.847656 9.761719-8.535156 3.445312-.066407 6.679687 1.628906 8.585937 4.496093 2.484375 4.007813 7.746094 5.242188 11.75 2.757813 4.007813-2.484375 5.242187-7.746094 2.757813-11.75-5.035157-7.871094-13.75-12.617188-23.09375-12.570313-14.46875-.316406-26.464844 11.132813-26.828126 25.601563v17.066406c.363282 14.464844 12.363282 25.914062 26.828126 25.597656zm0 0" fill="url(#i)"/></svg>