<svg height="512pt" viewBox="-21 0 512 512.00005" width="512pt" xmlns="http://www.w3.org/2000/svg" xmlns:xlink="http://www.w3.org/1999/xlink"><linearGradient id="a"><stop offset="0" stop-color="#662d91"/><stop offset=".437" stop-color="#3873b3"/><stop offset="1" stop-color="#00c9dd"/></linearGradient><linearGradient id="b" gradientTransform="matrix(1.002065 0 0 -1.002065 -21.331804 504.007078)" gradientUnits="userSpaceOnUse" x1="68.1365" x2="459.9544" xlink:href="#a" y1="362.4732" y2="-29.3362"/><linearGradient id="c" gradientTransform="matrix(1.002065 0 0 -1.002065 -21.331804 504.007078)" gradientUnits="userSpaceOnUse" x1="34.0591" x2="425.8684" xlink:href="#a" y1="328.3958" y2="-63.4136"/><linearGradient id="d" gradientTransform="matrix(1.002065 0 0 -1.002065 -21.331804 504.007078)" gradientUnits="userSpaceOnUse" x1="85.1535" x2="476.9628" xlink:href="#a" y1="379.4902" y2="-12.3191"/><linearGradient id="e" gradientTransform="matrix(1.002065 0 0 -1.002065 -21.331804 504.007078)" gradientUnits="userSpaceOnUse" x1="-8.5196" x2="383.2897" xlink:href="#a" y1="285.817" y2="-105.9924"/><linearGradient id="f" gradientTransform="matrix(1.002065 0 0 -1.002065 -21.331804 504.007078)" gradientUnits="userSpaceOnUse" x1="-51.0984" x2="340.711" xlink:href="#a" y1="243.2383" y2="-148.5711"/><linearGradient id="g" gradientTransform="matrix(1.002065 0 0 -1.002065 -21.331804 504.007078)" gradientUnits="userSpaceOnUse" x1="31.9301" x2="423.7395" xlink:href="#a" y1="326.2668" y2="-65.5426"/><linearGradient id="h" gradientTransform="matrix(1.002065 0 0 -1.002065 -21.331804 504.007078)" gradientUnits="userSpaceOnUse" x1="53.2195" x2="445.0288" xlink:href="#a" y1="347.5562" y2="-44.2532"/><linearGradient id="i" gradientTransform="matrix(1.002065 0 0 -1.002065 -21.331804 504.007078)" gradientUnits="userSpaceOnUse" x1="95.7982" x2="487.6075" xlink:href="#a" y1="390.1349" y2="-1.6745"/><linearGradient id="j" gradientTransform="matrix(1.002065 0 0 -1.002065 -21.331804 504.007078)" gradientUnits="userSpaceOnUse" x1="117.0876" x2="508.8969" xlink:href="#a" y1="411.4242" y2="19.6149"/><linearGradient id="k" gradientTransform="matrix(1.002065 0 0 -1.002065 -21.331804 504.007078)" gradientUnits="userSpaceOnUse" x1="108.5718" x2="500.3811" xlink:href="#a" y1="402.9085" y2="11.0992"/><linearGradient id="l" gradientTransform="matrix(1.002065 0 0 -1.002065 -21.331804 504.007078)" gradientUnits="userSpaceOnUse" x1="129.8612" x2="521.6705" xlink:href="#a" y1="424.1978" y2="32.3885"/><linearGradient id="m" gradientTransform="matrix(1.002065 0 0 -1.002065 -21.331804 504.007078)" gradientUnits="userSpaceOnUse" x1="155.4084" x2="547.2178" xlink:href="#a" y1="449.7451" y2="57.9357"/><path d="m8.597656 446.90625c-13.726562 17.476562-10.691406 42.769531 6.78125 56.496094 7.085938 5.570312 15.839844 8.597656 24.851563 8.597656h388.269531c22.554688-.003906 40.835938-18.289062 40.835938-40.84375 0-8.511719-2.660157-16.8125-7.609376-23.738281l-163.0625-228.28125v-169.507813c13.304688-4.683594 20.289063-19.269531 15.605469-32.574218-3.605469-10.234376-13.285156-17.0742192-24.136719-17.054688h-119.46875c-14.105468-.0273438-25.5625 11.386719-25.589843 25.492188-.019531 10.851562 6.820312 20.53125 17.054687 24.136718v169.625zm443.667969 24.246094c-.015625 13.125-10.648437 23.761718-23.777344 23.78125h-388.257812c-12.789063-.015625-23.152344-10.378906-23.167969-23.167969.050781-5.398437 1.921875-10.617187 5.316406-14.8125l68.121094-100.992187 16.214844 12.304687c44.710937 28.597656 100.96875 32.261719 149.007812 9.703125 33.417969-15.644531 71.707032-17.242188 106.308594-4.4375l32.316406 8.933594 53.46875 74.863281c2.894532 4.027344 4.449219 8.863281 4.449219 13.824219zm-73.652344-110.730469-11.382812-3.140625c-38.683594-14.183594-81.429688-12.304688-118.71875 5.214844-42.523438 20.027344-92.339844 16.925781-132.050781-8.226563l-16.410157-12.46875 79.148438-117.324219v-173.277343h102.398437v173.398437zm-207.949219-343.355469h119.464844c4.714844 0 8.535156 3.820313 8.535156 8.535156 0 4.710938-3.820312 8.53125-8.535156 8.53125h-119.464844c-4.714843 0-8.535156-3.820312-8.535156-8.53125 0-4.714843 3.820313-8.535156 8.535156-8.535156zm0 0" fill="url(#b)"/><path d="m273.0625 401.066406c-18.847656 0-34.132812 15.28125-34.132812 34.132813 0 18.851562 15.28125 34.132812 34.132812 34.132812s34.132812-15.28125 34.132812-34.132812c0-18.851563-15.28125-34.132813-34.132812-34.132813zm0 51.199219c-9.425781 0-17.066406-7.640625-17.066406-17.066406s7.640625-17.066407 17.066406-17.066407 17.066406 7.640626 17.066406 17.066407-7.640625 17.066406-17.066406 17.066406zm0 0" fill="url(#c)"/><path d="m328.53125 375.464844c-7.070312 0-12.800781 5.734375-12.800781 12.800781 0 7.070313 5.730469 12.800781 12.800781 12.800781s12.800781-5.730468 12.800781-12.800781c0-7.066406-5.730469-12.800781-12.800781-12.800781zm0 17.066406c-2.355469 0-4.265625-1.910156-4.265625-4.265625s1.910156-4.265625 4.265625-4.265625 4.265625 1.910156 4.265625 4.265625-1.910156 4.265625-4.265625 4.265625zm0 0" fill="url(#d)"/><path d="m174.929688 401.066406c-11.78125 0-21.332032 9.550782-21.332032 21.332032s9.550782 21.332031 21.332032 21.332031 21.332031-9.550781 21.332031-21.332031-9.550781-21.332032-21.332031-21.332032zm0 25.601563c-2.355469 0-4.265626-1.910157-4.265626-4.269531 0-2.355469 1.910157-4.265626 4.265626-4.265626 2.359374 0 4.269531 1.910157 4.269531 4.265626 0 2.359374-1.910157 4.269531-4.269531 4.269531zm0 0" fill="url(#e)"/><path d="m123.730469 443.734375c-7.070313 0-12.800781 5.730469-12.800781 12.800781 0 7.066406 5.730468 12.800782 12.800781 12.800782 7.070312 0 12.800781-5.734376 12.800781-12.800782 0-7.070312-5.730469-12.800781-12.800781-12.800781zm0 17.066406c-2.355469 0-4.265625-1.910156-4.265625-4.269531 0-2.355469 1.910156-4.265625 4.265625-4.265625 2.359375 0 4.265625 1.910156 4.265625 4.265625 0 2.359375-1.910156 4.269531-4.265625 4.269531zm0 0" fill="url(#f)"/><path d="m162.132812 315.734375h-8.535156c-4.710937 0-8.535156 3.820313-8.535156 8.53125 0 4.714844 3.824219 8.535156 8.535156 8.535156h8.535156c4.710938 0 8.53125-3.820312 8.53125-8.535156 0-4.710937-3.820312-8.53125-8.53125-8.53125zm0 0" fill="url(#g)"/><path d="m204.796875 315.734375h-8.535156c-4.710938 0-8.53125 3.820313-8.53125 8.53125 0 4.714844 3.820312 8.535156 8.53125 8.535156h8.535156c4.714844 0 8.535156-3.820312 8.535156-8.535156 0-4.710937-3.820312-8.53125-8.535156-8.53125zm0 0" fill="url(#h)"/><path d="m179.199219 315.734375c4.710937 0 8.53125-3.820313 8.53125-8.535156v-8.53125c0-4.714844-3.820313-8.535157-8.53125-8.535157-4.714844 0-8.535157 3.820313-8.535157 8.535157v8.53125c0 4.714843 3.820313 8.535156 8.535157 8.535156zm0 0" fill="url(#h)"/><path d="m179.199219 332.800781c-4.714844 0-8.535157 3.820313-8.535157 8.53125v8.535157c0 4.710937 3.820313 8.535156 8.535157 8.535156 4.710937 0 8.53125-3.824219 8.53125-8.535156v-8.535157c0-4.710937-3.820313-8.53125-8.53125-8.53125zm0 0" fill="url(#g)"/><path d="m264.53125 290.132812h-8.535156c-4.710938 0-8.53125 3.820313-8.53125 8.535157 0 4.710937 3.820312 8.53125 8.53125 8.53125h8.535156c4.710938 0 8.53125-3.820313 8.53125-8.53125 0-4.714844-3.820312-8.535157-8.53125-8.535157zm0 0" fill="url(#i)"/><path d="m298.664062 307.199219h8.53125c4.714844 0 8.535157-3.820313 8.535157-8.53125 0-4.714844-3.820313-8.535157-8.535157-8.535157h-8.53125c-4.714843 0-8.535156 3.820313-8.535156 8.535157.003906 4.710937 3.820313 8.53125 8.535156 8.53125zm0 0" fill="url(#j)"/><path d="m273.0625 273.066406v8.535156c0 4.710938 3.820312 8.53125 8.535156 8.53125 4.710938 0 8.535156-3.820312 8.535156-8.53125v-8.535156c0-4.710937-3.824218-8.535156-8.535156-8.535156-4.714844 0-8.535156 3.824219-8.535156 8.535156zm0 0" fill="url(#j)"/><path d="m281.597656 307.199219c-4.714844 0-8.535156 3.820312-8.535156 8.535156v8.53125c0 4.714844 3.820312 8.535156 8.535156 8.535156 4.710938 0 8.535156-3.820312 8.535156-8.535156v-8.53125c0-4.714844-3.824218-8.535156-8.535156-8.535156zm0 0" fill="url(#i)"/><path d="m213.332031 213.332031h-8.535156c-4.710937 0-8.535156 3.824219-8.535156 8.535157 0 4.710937 3.824219 8.535156 8.535156 8.535156h8.535156c4.710938 0 8.53125-3.824219 8.53125-8.535156 0-4.710938-3.820312-8.535157-8.53125-8.535157zm0 0" fill="url(#k)"/><path d="m255.996094 230.398438c4.714844 0 8.535156-3.820313 8.535156-8.53125 0-4.714844-3.820312-8.535157-8.535156-8.535157h-8.53125c-4.714844 0-8.535156 3.820313-8.535156 8.535157 0 4.710937 3.820312 8.53125 8.535156 8.53125zm0 0" fill="url(#l)"/><path d="m230.398438 213.332031c4.710937 0 8.53125-3.820312 8.53125-8.53125v-8.535156c0-4.710937-3.820313-8.53125-8.53125-8.53125-4.714844 0-8.535157 3.820313-8.535157 8.53125v8.535156c0 4.710938 3.820313 8.53125 8.535157 8.53125zm0 0" fill="url(#l)"/><path d="m230.398438 230.398438c-4.714844 0-8.535157 3.820312-8.535157 8.535156v8.535156c0 4.710938 3.820313 8.53125 8.535157 8.53125 4.710937 0 8.53125-3.820312 8.53125-8.53125v-8.535156c0-4.714844-3.820313-8.535156-8.53125-8.535156zm0 0" fill="url(#k)"/><path d="m196.265625 170.667969c4.710937 0 8.53125-3.820313 8.53125-8.535157v-93.867187c0-4.710937-3.820313-8.53125-8.53125-8.53125-4.714844 0-8.535156 3.820313-8.535156 8.53125v93.867187c0 4.714844 3.820312 8.535157 8.535156 8.535157zm0 0" fill="url(#m)"/></svg>