<svg height="512pt" viewBox="0 -7 512.00094 512" width="512pt" xmlns="http://www.w3.org/2000/svg" xmlns:xlink="http://www.w3.org/1999/xlink"><linearGradient id="a" gradientTransform="matrix(1.001277 0 0 -1.001277 .000029 510.737007)" gradientUnits="userSpaceOnUse" x1="52.2795" x2="452.6813" y1="439.7277" y2="39.3259"><stop offset="0" stop-color="#662d91"/><stop offset=".437" stop-color="#3873b3"/><stop offset="1" stop-color="#00c9dd"/></linearGradient><path d="m435.171875 111.105469c-42.363281.046875-76.691406 34.375-76.738281 76.738281 0 .792969.09375 1.550781.117187 2.335938l-45.105469 15.042968c-22.289062-25.410156-58.675781-33.054687-89.304687-18.761718l-77.429687-77.429688c17.75-38.5625.882812-84.214844-37.679688-101.96875s-84.214844-.882812-101.96875 37.679688-.882812 84.214843 37.679688 101.96875c22.441406 10.328124 48.480468 9.246093 69.984374-2.917969l74.589844 74.585937c-9.863281 17.289063-12.515625 37.773438-7.382812 57.007813l-48.015625 32.007812c-33.117188-27.109375-81.945313-22.242187-109.054688 10.878907-27.113281 33.121093-22.242187 81.949218 10.878907 109.058593 33.121093 27.109375 81.945312 22.242188 109.058593-10.878906 15.738281-19.230469 21.304688-44.835937 14.964844-68.863281l48.011719-32.011719c20.171875 16.5 47.371094 21.542969 72.117187 13.378906l23.875 35.34375c-30.503906 30.585938-30.4375 80.109375.148438 110.613281 30.585937 30.503907 80.109375 30.4375 110.613281-.148437s30.4375-80.109375-.148438-110.613281c-17.777343-17.726563-42.980468-25.84375-67.757812-21.824219l-27.960938-41.933594c11.457032-15.878906 16.242188-35.609375 13.335938-54.972656l40.453125-13.480469c24.355469 34.6875 72.214844 43.0625 106.902344 18.703125 34.683593-24.355469 43.058593-72.214843 18.703125-106.902343-14.386719-20.484376-37.855469-32.664063-62.886719-32.636719zm-417.800781-34.109375c0-32.960938 26.71875-59.683594 59.683594-59.683594 32.964843 0 59.6875 26.722656 59.6875 59.683594 0 32.964844-26.722657 59.6875-59.6875 59.6875-32.949219-.039063-59.648438-26.738282-59.683594-59.6875zm120.222656 47.007812 90.960938 90.972656c2.558593 2.554688 2.558593 6.703126 0 9.257813-.300782.304687-.636719.578125-.996094.820313-2.605469 1.707031-6.050782 1.351562-8.253906-.855469l-90.628907-90.585938c3.238281-2.945312 6.21875-6.160156 8.917969-9.609375zm-52.011719 302.585938c-32.964843 0-59.6875-26.722656-59.6875-59.6875s26.722657-59.6875 59.6875-59.6875c32.964844 0 59.6875 26.722656 59.6875 59.6875-.039062 32.949218-26.738281 59.648437-59.6875 59.6875zm60.453125-106.796875 42.171875-28.136719c2.140625 4.039062 4.632813 7.882812 7.453125 11.484375l-42.171875 28.136719c-2.136719-4.042969-4.632812-7.886719-7.453125-11.484375zm272.085938 98.269531c0 32.964844-26.722656 59.683594-59.6875 59.683594s-59.683594-26.71875-59.683594-59.683594 26.71875-59.6875 59.683594-59.6875c32.949218.039062 59.648437 26.738281 59.6875 59.6875zm-101.058594-64.53125-37.167969-55.046875c-2.117187-3.28125-1.175781-7.660156 2.105469-9.78125 3.28125-2.117187 7.660156-1.175781 9.78125 2.105469l37.515625 56.277344c-4.265625 1.773437-8.359375 3.929687-12.234375 6.445312zm-11.085938-72.175781c-7.441406-11.054688-22.4375-13.980469-33.492187-6.539063-10.851563 7.308594-13.902344 21.933594-6.878906 32.972656l4.261719 6.308594c-31.953126 7.691406-64.085938-11.980468-71.777344-43.929687-3.152344-13.101563-1.765625-26.882813 3.933594-39.09375l5.234374 5.226562c9.371094 9.0625 24.3125 8.8125 33.375-.554687 8.847657-9.152344 8.847657-23.667969 0-32.816406l-3.410156-3.410157c31.050782-10.59375 64.808594 5.992188 75.398438 37.046875 2.140625 6.273438 3.214844 12.863282 3.183594 19.492188.035156 10.109375-2.523438 20.058594-7.4375 28.894531zm21.820313-52.488281c-1.164063-3.117188-2.527344-6.152344-4.085937-9.089844l37.332031-12.441406c.828125 3.1875 1.863281 6.320312 3.09375 9.378906zm107.375 18.664062c-32.960937 0-59.683594-26.722656-59.683594-59.6875s26.722657-59.6875 59.683594-59.6875c32.964844 0 59.6875 26.722656 59.6875 59.6875-.039063 32.949219-26.738281 59.648438-59.6875 59.6875zm0 0" fill="url(#a)"/></svg>