<svg height="512pt" viewBox="-17 0 511 512" width="512pt" xmlns="http://www.w3.org/2000/svg" xmlns:xlink="http://www.w3.org/1999/xlink"><linearGradient id="a"><stop offset="0" stop-color="#662d91"/><stop offset=".437" stop-color="#3873b3"/><stop offset="1" stop-color="#00c9dd"/></linearGradient><linearGradient id="b" gradientTransform="matrix(1.002069 0 0 -1.002069 -16.56523 504.009003)" gradientUnits="userSpaceOnUse" x1="128.1052" x2="463.072" xlink:href="#a" y1="319.5195" y2="-15.4473"/><linearGradient id="c" gradientTransform="matrix(1.002069 0 0 -1.002069 -16.56523 504.009003)" gradientUnits="userSpaceOnUse" x1="41.3716" x2="376.3384" xlink:href="#a" y1="232.1046" y2="-102.8621"/><linearGradient id="d" gradientTransform="matrix(1.002069 0 0 -1.002069 -16.56523 504.009003)" gradientUnits="userSpaceOnUse" x1="279.5965" x2="614.5632" xlink:href="#a" y1="470.3295" y2="135.3627"/><path d="m9.035156 512h460.800782c4.710937 0 8.53125-3.820312 8.53125-8.535156v-51.199219c0-4.710937-3.820313-8.53125-8.53125-8.53125h-19.925782c26.179688-52.269531 28.457032-101.316406 28.457032-159.019531-.039063-44.417969-12.09375-88-34.882813-126.125 3-19.125-3.027344-38.5625-16.316406-52.640625l14.582031-14.585938c3.332031-3.332031 3.332031-8.734375 0-12.066406l-76.796875-76.796875c-3.332031-3.332031-8.734375-3.332031-12.066406 0l-17.066407 17.0625c-3.332031 3.332031-3.332031 8.734375 0 12.066406l2.480469 2.5-5 5-2.5-2.5c-3.332031-3.328125-8.734375-3.328125-12.066406 0l-168.898437 168.902344-23.835938-23.832031c-3.332031-3.332031-8.734375-3.332031-12.066406 0l-25.597656 25.601562c-3.332032 3.328125-3.332032 8.730469 0 12.0625l23.832031 23.835938-6.765625 6.765625c-1.601563 1.601562-2.5 3.769531-2.5 6.035156v76.800781c0 4.710938 3.820312 8.53125 8.53125 8.53125v9.804688c.003906 2.503906 1.105468 4.882812 3.011718 6.503906l8.535157 7.261719c1.542969 1.308594 3.5 2.03125 5.523437 2.03125h17.066406c2.019532 0 3.976563-.71875 5.519532-2.03125l8.535156-7.261719c1.910156-1.621094 3.007812-4 3.011719-6.503906v-9.804688h8.53125v18.023438c0 2.4375 1.042969 4.761719 2.867187 6.382812l8.535156 7.578125c1.5625 1.386719 3.578126 2.152344 5.664063 2.148438h17.066406c2.089844.003906 4.105469-.761719 5.667969-2.148438l8.53125-7.578125c1.824219-1.621093 2.867188-3.945312 2.867188-6.382812v-18.023438c4.714843 0 8.535156-3.820312 8.535156-8.53125v-14.507812l15.164062-22.75 95.417969-95.394531c8.542969 6.539062 18.601563 10.804687 29.234375 12.398437 14.117188 22.894531 27.027344 44.867187 27.027344 73.171875 0 67.261719-51.371094 136.40625-117.15625 158.011719h-271.554688c-4.714844 0-8.535156 3.824219-8.535156 8.535156v51.199219c0 4.714844 3.820312 8.535156 8.535156 8.535156zm371.199219-315.734375c-25.921875 0-46.933594-21.011719-46.933594-46.933594s21.011719-46.933593 46.933594-46.933593 46.933594 21.011718 46.933594 46.933593c-.027344 25.910157-21.023438 46.90625-46.933594 46.933594zm-21.332031-175.667969 64.734375 64.734375-5 5-64.734375-64.734375zm-8.535156 25.601563 40.023437 40.019531c-3.355469-.566406-6.75-.863281-10.15625-.886719-.238281 0-.460937 0-.699219 0l-34.132812-34.132812zm-25.597657 8.53125 34.277344 34.277343c-28.804687 9.855469-46.515625 38.8125-42.164063 68.941407l-66.414062 66.417969c-3.390625 3.273437-3.484375 8.675781-.210938 12.066406 3.277344 3.386718 8.675782 3.480468 12.066407.207031.074219-.066406.144531-.136719.210937-.207031l59.871094-59.871094c1.921875 4.078125 4.273438 7.9375 7.011719 11.519531l-89.984375 89.984375-6.304688-6.304687c9.75-14.34375 9.105469-33.347657-1.59375-46.996094l73.667969-73.667969c3.273437-3.390625 3.179687-8.789062-.210937-12.066406-3.304688-3.191406-8.550782-3.191406-11.855469 0l-74.710938 74.710938c-5.746093-3.121094-12.171875-4.777344-18.710937-4.820313-10.085938.070313-19.777344 3.929687-27.148438 10.8125l-6.398437-6.402344zm-109.5 256.265625c-.933593 1.402344-1.433593 3.050781-1.433593 4.734375v8.535156h-93.867188v-17.066406h97.832031zm-61.167969-85.597656 8.449219 8.449218c-8.613281 20.40625.953125 43.933594 21.359375 52.542969 12.011719 5.066406 25.738282 3.980469 36.800782-2.914063l6.65625 6.65625h-107.398438v-30.601562zm68.855469 23.832031c0 12.839843-10.410156 23.246093-23.246093 23.246093-12.835938 0-23.246094-10.40625-23.246094-23.246093 0-12.835938 10.410156-23.242188 23.246094-23.242188 12.832031.011719 23.230468 10.410157 23.246093 23.242188zm-102.988281-49.433594 13.53125 13.535156-13.53125 13.535157-13.535156-13.535157zm25.597656 147.398437-3.140625 2.671876h-10.785156l-3.140625-2.671876v-5.863281h17.066406zm59.734375 8.328126-3.242187 2.875h-10.582032l-3.242187-2.875v-14.191407h17.066406zm209.511719-69.800782c0-29.015625-11.402344-51.886718-24.210938-73.304687 19.246094-3.175781 35.996094-14.945313 45.507813-31.972657 16.53125 32.273438 25.164063 68.007813 25.191406 104.269532 0 60.152344-2.242187 107.128906-30.609375 159.019531h-109.335937c55.203125-33.058594 93.457031-95.269531 93.457031-158.011719zm-397.246094 175.078125h443.734375v34.132813h-443.734375zm0 0" fill="url(#b)"/><path d="m34.632812 413.867188c-.304687 11.4375 8.695313 20.972656 20.132813 21.332031h224.273437c11.78125 0 21.332032-9.550781 21.332032-21.332031s-9.550782-21.332032-21.332032-21.332032h-224.273437c-11.441406.355469-20.4375 9.890625-20.132813 21.332032zm20.132813-4.269532h224.273437c1.449219 0 3.0625 1.757813 3.0625 4.269532 0 2.507812-1.613281 4.265624-3.0625 4.265624h-224.273437c-1.453125 0-3.066406-1.757812-3.066406-4.265624 0-2.511719 1.613281-4.269532 3.066406-4.269532zm0 0" fill="url(#c)"/><path d="m380.234375 119.464844c-16.496094 0-29.867187 13.371094-29.867187 29.867187 0 16.496094 13.371093 29.867188 29.867187 29.867188s29.867187-13.371094 29.867187-29.867188c0-16.496093-13.371093-29.867187-29.867187-29.867187zm0 42.667968c-7.070313 0-12.800781-5.730468-12.800781-12.800781 0-7.070312 5.730468-12.800781 12.800781-12.800781s12.800781 5.730469 12.800781 12.800781c0 7.070313-5.730468 12.800781-12.800781 12.800781zm0 0" fill="url(#d)"/></svg>