<svg height="511pt" viewBox="-77 0 511 511.99878" width="511pt" xmlns="http://www.w3.org/2000/svg" xmlns:xlink="http://www.w3.org/1999/xlink"><linearGradient id="a" gradientTransform="matrix(.998656 0 0 -.998656 -76.911401 502.290343)" gradientUnits="userSpaceOnUse" x1="86.9213" x2="439.3879" y1="354.5123" y2="2.0457"><stop offset="0" stop-color="#662d91"/><stop offset=".437" stop-color="#3873b3"/><stop offset="1" stop-color="#00c9dd"/></linearGradient><path d="m9.003906 511.996094c4.695313 0 8.503906-3.804688 8.503906-8.503906v-109.976563c-.046874-29.105469 12.328126-56.851563 34.015626-76.265625v186.246094c0 4.695312 3.808593 8.503906 8.507812 8.503906 4.695312 0 8.503906-3.808594 8.503906-8.503906v-246.628906h25.511719v246.628906c0 4.695312 3.808594 8.503906 8.503906 8.503906 4.695313 0 8.503907-3.808594 8.503907-8.503906v-211.835938c1.703124-.136718 3.402343-.398437 5.101562-.449218l57.976562 41.296874c2.949219 2.101563 6.910157 2.101563 9.863282 0l58.023437-41.296874c1.703125.050781 3.402344.3125 5.105469.449218v211.835938c0 4.695312 3.804688 8.503906 8.503906 8.503906 4.695313 0 8.503906-3.808594 8.503906-8.503906v-246.628906h25.511719v246.628906c0 4.695312 3.808594 8.503906 8.503907 8.503906 4.699218 0 8.507812-3.808594 8.507812-8.503906v-186.246094c21.695312 19.425781 34.070312 47.1875 34.015625 76.308594v109.9375c0 4.695312 3.808594 8.503906 8.503906 8.503906 4.695313 0 8.503907-3.808594 8.503907-8.503906v-109.980469c.011718-15.246094-2.875-30.359375-8.503907-44.527344v-70.324219c-.023437-21.421874-17.382812-38.78125-38.804687-38.804687h-52.078125c1.882812-3.042969 3.585937-6.195313 5.101562-9.4375 1.144531.597656 2.414063.917969 3.707031.9375 22.144532-.347656 39.832032-18.542969 39.554688-40.6875v-59.402344c.480469-51.261719-29.570312-97.902343-76.453125-118.640625l-6.285156-2.722656c-31.890625-13.753906-68.152344-13.160156-99.578125 1.625-44.785156 21.722656-73.109375 67.238281-72.8125 117.011719v62.132812c-.28125 22.144531 17.414062 40.34375 39.558594 40.683594 1.292968-.019531 2.5625-.339844 3.710937-.9375 1.515625 3.242187 3.21875 6.394531 5.101563 9.441406h-52.097657c-21.417969.027344-38.773437 17.386719-38.796875 38.804688v70.320312c-5.628906 14.171875-8.515625 29.28125-8.503906 44.527344v109.980469c0 4.695312 3.804688 8.5 8.503906 8.5zm301.367188-255.128906c12.03125.011718 21.785156 9.765624 21.796875 21.796874v41.070313c-7.265625-9.261719-15.863281-17.398437-25.515625-24.136719v-38.730468zm-63.25 17.589843c-2.550782-.171875-5.195313-.292969-7.796875-.292969-1.769531.003907-3.492188.554688-4.933594 1.582032l-55.300781 39.394531-55.28125-39.394531c-1.4375-1.027344-3.160156-1.578125-4.929688-1.582032-2.601562 0-5.207031.121094-7.800781.292969v-17.589843c.679687-.050782 1.347656-.183594 1.992187-.398438 16.203126 16.484375 38.320313 25.8125 61.433594 25.910156h9.167969c23.125-.089844 45.253906-9.421875 61.460937-25.910156.644532.214844 1.3125.347656 1.992188.398438v17.589843zm-63.449219-9.082031h-9.167969c-40.816406-1.1875-72.988281-35.15625-71.953125-75.980469v-43.710937c25.996094-.695313 97.398438-5.152344 128.277344-32.589844 4.660156 11.90625 12.613281 26.367188 24.800781 31.109375v45.195313c1.03125 40.820312-31.140625 74.789062-71.957031 75.976562zm-115.140625-74.703125v-62.132813c-.308594-43.195312 24.222656-82.726562 63.0625-101.625 27.011719-12.699218 58.175781-13.191406 85.578125-1.363281l6.285156 2.722657c40.640625 18.046874 66.65625 58.53125 66.1875 102.996093v59.402344c.207031 11.847656-8.542969 21.949219-20.300781 23.4375 2.160156-8.0625 3.269531-16.371094 3.292969-24.714844v-52.089843c0-4.695313-3.808594-8.503907-8.503907-8.503907-8.632812 0-18.175781-20.605469-21.746093-35.488281-.839844-3.507812-3.796875-6.101562-7.382813-6.480469-3.589844-.414062-7.039062 1.519531-8.5625 4.796875-14.507812 30.460938-100.496094 37.164063-132.394531 37.171875-4.699219 0-8.507813 3.808594-8.507813 8.503907v52.089843c.027344 8.34375 1.132813 16.652344 3.292969 24.714844-11.753906-1.488281-20.507812-11.589844-20.300781-23.4375zm-42.519531 87.992187c.007812-12.027343 9.757812-21.78125 21.785156-21.796874h3.726563v38.738281c-9.652344 6.738281-18.25 14.867187-25.511719 24.128906zm0 0" fill="url(#a)"/></svg>