<svg height="512pt" viewBox="0 0 512 512" width="512pt" xmlns="http://www.w3.org/2000/svg" xmlns:xlink="http://www.w3.org/1999/xlink"><linearGradient id="a" gradientTransform="matrix(1.002065 0 0 -1.002065 0 504.00703)" gradientUnits="userSpaceOnUse" x1="28.531" x2="484.1404" y1="457.6936" y2="2.0844"><stop offset="0" stop-color="#662d91"/><stop offset=".437" stop-color="#3873b3"/><stop offset="1" stop-color="#00c9dd"/></linearGradient><path d="m503.464844 494.933594v-443.734375c-.027344-28.265625-22.933594-51.1718752-51.199219-51.199219h-392.53125c-28.265625.0273438-51.171875 22.933594-51.199219 51.199219v443.734375c-4.714844 0-8.535156 3.820312-8.535156 8.53125 0 4.714844 3.820312 8.535156 8.535156 8.535156h51.199219c4.710937 0 8.53125-3.820312 8.53125-8.535156 0-4.710938-3.820313-8.53125-8.53125-8.53125v-435.199219c0-4.714844 3.820313-8.535156 8.53125-8.535156h34.132813v349.867187h-8.53125c-4.714844 0-8.535157 3.820313-8.535157 8.535156v34.132813c0 4.710937 3.820313 8.53125 8.535157 8.53125h136.53125c4.714843 0 8.535156-3.820313 8.535156-8.53125v-34.132813c0-4.714843-3.820313-8.535156-8.535156-8.535156h-8.53125v-349.867187h68.265624v264.535156h-8.535156c-4.710937 0-8.53125 3.820313-8.53125 8.53125v34.132813c0 4.714843 3.820313 8.535156 8.53125 8.535156h136.535156c4.710938 0 8.535157-3.820313 8.535157-8.535156v-34.132813c0-4.710937-3.824219-8.53125-8.535157-8.53125h-8.535156v-264.535156h34.132813c4.714843 0 8.535156 3.820312 8.535156 8.535156v435.199219c-4.710937 0-8.535156 3.820312-8.535156 8.53125 0 4.714844 3.824219 8.535156 8.535156 8.535156h51.199219c4.714844 0 8.535156-3.820312 8.535156-8.535156 0-4.710938-3.820312-8.53125-8.535156-8.53125zm-281.597656-59.734375h-119.46875v-17.066407h119.46875zm-17.066407-34.132813h-85.335937v-349.867187h85.335937zm204.800781-51.199218h-119.46875v-17.066407h119.46875zm-17.070312-34.132813h-85.332031v-264.535156h85.332031zm76.800781 179.199219v-435.199219c0-14.140625-11.460937-25.601563-25.597656-25.601563h-375.46875c-14.136719 0-25.597656 11.460938-25.597656 25.601563v435.199219h-17.066407v-443.734375c0-18.851563 15.28125-34.132813 34.132813-34.132813h392.53125c18.851563 0 34.132813 15.28125 34.132813 34.132813v443.734375zm0 0" fill="url(#a)"/></svg>