<svg height="512pt" viewBox="-8 0 512 512.00009" width="512pt" xmlns="http://www.w3.org/2000/svg" xmlns:xlink="http://www.w3.org/1999/xlink"><linearGradient id="a"><stop offset="0" stop-color="#662d91"/><stop offset=".437" stop-color="#3873b3"/><stop offset="1" stop-color="#00c9dd"/></linearGradient><linearGradient id="b" gradientTransform="matrix(1.002294 0 0 -1.002294 -8.484376 504.122558)" gradientUnits="userSpaceOnUse" x1=".6208" x2="467.6667" xlink:href="#a" y1="429.95" y2="-37.1044"/><linearGradient id="c" gradientTransform="matrix(1.002294 0 0 -1.002294 -8.484376 504.122558)" gradientUnits="userSpaceOnUse" x1="132.6118" x2="599.6577" xlink:href="#a" y1="561.941" y2="94.8866"/><linearGradient id="d" gradientTransform="matrix(1.002294 0 0 -1.002294 -8.484376 504.122558)" gradientUnits="userSpaceOnUse" x1="9.1727" x2="476.2271" xlink:href="#a" y1="438.5104" y2="-28.544"/><path d="m384.089844 153.519531h-8.539063v-51.210937c0-.265625-.125-.496094-.152343-.761719.015624-.253906.015624-.511719 0-.765625l-13.996094-77.09375c-2.949219-15.753906-18.109375-26.132812-33.863282-23.1875-11.773437 2.203125-20.984374 11.414062-23.1875 23.1875l-5.617187 30.898438-5.617187-30.898438c-2.945313-15.753906-18.105469-26.132812-33.859376-23.183594-11.773437 2.203125-20.984374 11.414063-23.1875 23.183594l-5.617187 30.898438-5.617187-30.898438c-2.945313-15.753906-18.105469-26.132812-33.859376-23.183594-11.773437 2.203125-20.984374 11.414063-23.1875 23.183594l-5.617187 30.898438-5.617187-30.898438c-2.945313-15.753906-18.105469-26.132812-33.859376-23.183594-11.773437 2.203125-20.984374 11.414063-23.1875 23.183594l-5.617187 30.898438-5.617187-30.898438c-2.949219-15.753906-18.109376-26.136719-33.863282-23.1875-11.773437 2.203125-20.984375 11.414062-23.1875 23.1875l-14.015625 77.089844c-.011719.257812-.011719.511718 0 .769531 0 .265625-.152343.496094-.152343.757813v51.210937h-8.519532c-4.714844 0-8.535156 3.824219-8.535156 8.539063v341.410156c0 4.714844 3.820312 8.535156 8.535156 8.535156h375.554688c4.710937 0 8.535156-3.820312 8.535156-8.535156v-341.410156c0-4.714844-3.824219-8.535157-8.535156-8.535157zm-145.101563 0v-8.535156h51.210938v8.535156zm-68.28125 0v-8.535156h51.210938v8.535156zm-68.28125 0v-8.535156h51.210938v8.535156zm-68.285156-42.675781h51.210937v17.066406h-51.210937zm324.34375 17.066406h-51.214844v-17.066406h51.214844zm-68.285156 0h-51.210938v-17.066406h51.210938zm-68.28125 0h-51.210938v-17.066406h51.210938zm-68.28125 0h-51.210938v-17.066406h51.210938zm153.632812 17.074219h51.214844v8.535156h-51.214844zm13.878907-118.25c1.265624-6.476563 7.542968-10.699219 14.019531-9.433594 4.773437.933594 8.503906 4.664063 9.4375 9.433594l12.171875 67.039063h-47.800782zm-68.28125 0c1.265624-6.476563 7.542968-10.699219 14.019531-9.433594 4.773437.933594 8.503906 4.664063 9.4375 9.433594l12.167969 67.039063h-47.796876zm-68.28125 0c1.265624-6.476563 7.542968-10.699219 14.019531-9.433594 4.769531.933594 8.5 4.664063 9.433593 9.433594l12.171876 67.039063h-47.796876zm-68.285157 0c1.265625-6.476563 7.542969-10.699219 14.023438-9.433594 4.769531.933594 8.5 4.664063 9.433593 9.433594l12.171876 67.039063h-47.796876zm-68.28125 0c1.265625-6.476563 7.542969-10.699219 14.019531-9.433594 4.773438.933594 8.503907 4.664063 9.4375 9.433594l12.171876 67.035156h-47.800782zm-13.878906 118.25h51.210937v8.535156h-51.210937zm341.414063 349.945313h-358.484376v-324.339844h358.480469v324.339844zm0 0" fill="url(#b)"/><path d="m494.910156 100.777344-14.015625-77.089844c-2.945312-15.753906-18.105469-26.132812-33.859375-23.1875-11.777344 2.203125-20.988281 11.414062-23.191406 23.1875l-14.011719 77.089844c-.015625.257812-.015625.511718 0 .769531 0 .265625-.15625.496094-.15625.757813v401.160156c0 4.714844 3.824219 8.535156 8.535157 8.535156h68.285156c4.710937 0 8.535156-3.820312 8.535156-8.535156v-401.160156c0-.261719-.128906-.492188-.15625-.757813.027344-.257813.035156-.511719.035156-.769531zm-16.933594 27.132812h-51.210937v-17.066406h51.210937zm0 17.074219v290.199219h-51.210937v-290.199219zm-51.210937 307.269531h51.210937v8.535156h-51.210937zm13.878906-425.519531c1.265625-6.476563 7.542969-10.699219 14.019531-9.433594 4.773438.933594 8.503907 4.664063 9.433594 9.433594l12.171875 67.039063h-47.796875zm-13.878906 468.195313v-17.070313h51.210937v17.070313zm0 0" fill="url(#c)"/><path d="m341.414062 213.265625h-298.734374c-4.714844 0-8.539063 3.820313-8.539063 8.535156v68.28125c0 4.714844 3.824219 8.535157 8.539063 8.535157h298.734374c4.710938 0 8.535157-3.820313 8.535157-8.535157v-68.28125c-.003907-4.714843-3.824219-8.535156-8.535157-8.535156zm-170.707031 17.070313h51.210938v51.210937h-51.210938zm-17.070312 51.210937h-51.210938v-51.210937h51.210938zm85.351562-51.210937h51.210938v51.210937h-51.210938zm-187.777343 0h34.140624v51.210937h-34.140624zm281.667968 51.210937h-25.609375v-51.210937h25.609375zm0 0" fill="url(#d)"/></svg>