<svg height="512pt" viewBox="-73 0 512 512" width="512pt" xmlns="http://www.w3.org/2000/svg" xmlns:xlink="http://www.w3.org/1999/xlink"><linearGradient id="a" gradientTransform="matrix(1.002065 0 0 -1.002065 -72.533459 504.00703)" gradientUnits="userSpaceOnUse" x1="104.3179" x2="452.5862" y1="339.0405" y2="-9.2279"><stop offset="0" stop-color="#662d91"/><stop offset=".437" stop-color="#3873b3"/><stop offset="1" stop-color="#00c9dd"/></linearGradient><path d="m358.398438 256h-34.132813c-4.710937 0-8.53125 3.820312-8.53125 8.53125v8.535156h-17.871094l-67.695312-164.378906c-.644531-12.535156-6.808594-24.144531-16.835938-31.699219 0-.070312 0-.121093 0-.1875v-68.265625c0-4.714844-3.820312-8.535156-8.53125-8.535156h-34.136719c-4.710937 0-8.53125 3.820312-8.53125 8.535156v68.265625.1875c-10.015624 7.53125-16.1875 19.101563-16.863281 31.617188l-72.589843 164.460937h-21.480469v-8.535156c0-4.710938-3.820313-8.53125-8.535157-8.53125h-34.128906c-4.714844 0-8.535156 3.820312-8.535156 8.53125v34.136719c0 4.710937 3.820312 8.53125 8.535156 8.53125h34.132813c4.710937 0 8.53125-3.820313 8.53125-8.53125v-8.535157h13.945312l-46.199219 104.644532c-1.246093 3.054687-1.882812 6.320312-1.878906 9.617187v39.339844c.050782 10.921875 7.023438 20.609375 17.367188 24.121094-.148438.484375-.25.976562-.300782 1.476562v34.132813c0 4.714844 3.824219 8.535156 8.535157 8.535156 4.710937 0 8.535156-3.820312 8.535156-8.535156v-34.132813c-.050781-.5-.152344-.992187-.300781-1.476562 10.34375-3.511719 17.316406-13.199219 17.367187-24.121094v-15.363281l58.65625-138.238282h52.277344v17.066407c0 4.710937 3.820313 8.535156 8.53125 8.535156 4.714844 0 8.535156-3.824219 8.535156-8.535156v-17.066407h47.972657l54.425781 138.144532v23.988281c.046875 10.8125 6.875 20.425781 17.066406 24.03125v27.167969c0 4.714844 3.820313 8.535156 8.535156 8.535156 4.710938 0 8.53125-3.820312 8.53125-8.535156v-27.167969c10.191407-3.605469 17.023438-13.222656 17.066407-24.03125v-47.871094c.003906-3.3125-.640626-6.59375-1.894532-9.660156l-43.074218-104.601563h10.835937v8.535157c0 4.710937 3.820313 8.53125 8.535156 8.53125h34.132813c4.710937 0 8.53125-3.820313 8.53125-8.53125v-34.136719c0-4.710938-3.820313-8.53125-8.535156-8.53125zm-324.265626 34.132812h-17.066406v-17.066406h17.066406zm145.066407-221.867187v-51.199219h17.066406v51.199219zm8.535156 17.066406c14.136719 0 25.597656 11.460938 25.597656 25.601563 0 14.136718-11.460937 25.597656-25.597656 25.597656-14.140625 0-25.601563-11.460938-25.601563-25.597656 0-14.140625 11.460938-25.601563 25.601563-25.601563zm-136.535156 339.628907v18.773437c0 4.710937-3.820313 8.53125-8.535157 8.53125-4.710937 0-8.53125-3.820313-8.53125-8.53125v-39.339844c-.003906-1.011719.171876-2.011719.519532-2.960937l117.734375-266.605469c4.078125 5.910156 9.574219 10.699219 15.984375 13.933594zm145.066406-151.894532v-17.066406c0-4.710938-3.820313-8.53125-8.53125-8.53125-4.714844 0-8.535156 3.820312-8.535156 8.53125v17.066406h-45.03125l50.800781-119.746094c.929688.058594 1.816406.28125 2.761719.28125.949219 0 1.707031-.214843 2.621093-.265624l47.171876 119.730468zm136.535156 131.328125v47.871094c0 4.714844-3.820312 8.535156-8.535156 8.535156-4.710937 0-8.53125-3.820312-8.53125-8.535156v-27.210937l-108.816406-276.226563c6.28125-3.148437 11.691406-7.796875 15.75-13.53125l109.507812 265.898437c.414063 1.015626.625 2.101563.625 3.199219zm17.066407-114.261719h-17.066407v-17.066406h17.066407zm0 0" fill="url(#a)"/></svg>