<svg height="512pt" viewBox="0 -17 512 512" width="512pt" xmlns="http://www.w3.org/2000/svg" xmlns:xlink="http://www.w3.org/1999/xlink"><linearGradient id="a"><stop offset="0" stop-color="#662d91"/><stop offset=".437" stop-color="#3873b3"/><stop offset="1" stop-color="#00c9dd"/></linearGradient><linearGradient id="b" gradientTransform="matrix(1.002065 0 0 -1.002065 0 486.940864)" gradientUnits="userSpaceOnUse" x1="60.4896" x2="456.0885" xlink:href="#a" y1="469.785" y2="74.1946"/><linearGradient id="c" gradientTransform="matrix(1.002065 0 0 -1.002065 0 486.940864)" gradientUnits="userSpaceOnUse" x1="8.5157" x2="404.1146" xlink:href="#a" y1="417.8111" y2="22.2122"/><path d="m486.398438 0h-460.796876c-14.140624 0-25.601562 11.460938-25.601562 25.601562v307.199219c0 14.136719 11.460938 25.601563 25.601562 25.601563h131.257813l-34.132813 68.265625h-45.925781c-9.425781 0-17.066406 7.640625-17.066406 17.066406v17.066406c0 9.425781 7.640625 17.066407 17.066406 17.066407h358.398438c9.425781 0 17.066406-7.640626 17.066406-17.066407v-17.066406c0-9.425781-7.640625-17.066406-17.066406-17.066406h-54.457031l-34.136719-68.265625h139.792969c14.140624 0 25.601562-11.464844 25.601562-25.601563v-307.199219c0-14.140624-11.460938-25.601562-25.601562-25.601562zm8.535156 273.066406h-133l133-133zm-320.734375 0 221.867187-221.867187h98.867188v64.734375l-157.132813 157.132812zm-76.800781 0 221.867187-221.867187h52.667969l-221.867188 221.867187zm-80.332032 0v-107.398437l114.464844-114.46875h163.601562l-221.867187 221.867187zm0-221.867187h90.332032l-90.332032 90.335937zm8.535156-34.132813h460.796876c4.714843 0 8.535156 3.820313 8.535156 8.535156v8.53125h-477.867188v-8.53125c0-4.714843 3.820313-8.535156 8.535156-8.535156zm409.597657 443.734375h-358.398438v-17.066406h358.398438zm-73.558594-34.132812h-219.832031l34.132812-68.265625h151.585938zm124.757813-85.335938h-460.796876c-4.714843 0-8.535156-3.820312-8.535156-8.53125v-42.667969h477.867188v42.667969c0 4.710938-3.820313 8.53125-8.535156 8.53125zm0 0" fill="url(#b)"/><path d="m273.066406 315.734375c0 9.425781-7.640625 17.066406-17.066406 17.066406s-17.066406-7.640625-17.066406-17.066406 7.640625-17.066406 17.066406-17.066406 17.066406 7.640625 17.066406 17.066406zm0 0" fill="url(#c)"/></svg>