<svg height="512pt" viewBox="0 0 512.002 512" width="512pt" xmlns="http://www.w3.org/2000/svg" xmlns:xlink="http://www.w3.org/1999/xlink"><linearGradient id="a" gradientTransform="matrix(1.002063 0 0 -1.002063 0 504.0054)" gradientUnits="userSpaceOnUse" x1="18.4543" x2="455.925" y1="458.9663" y2="21.4956"><stop offset="0" stop-color="#662d91"/><stop offset=".437" stop-color="#3873b3"/><stop offset="1" stop-color="#00c9dd"/></linearGradient><path d="m503.464844 68.265625h-110.933594c-4.710938 0-8.53125 3.820313-8.53125 8.535156v34.132813c-4.714844 0-8.535156 3.820312-8.535156 8.535156v34.132812h-17.066406v-76.800781c0-4.714843-3.820313-8.535156-8.53125-8.535156h-187.734376c-4.710937 0-8.53125 3.820313-8.53125 8.535156v76.800781h-42.667968v-68.265624c-.027344-3.792969-2.589844-7.101563-6.253906-8.074219l5.972656-23.988281c1.113281-4.578126-1.699219-9.191407-6.277344-10.304688-4.535156-1.101562-9.113281 1.640625-10.277344 6.160156l-6.886718 27.671875h-.851563l7.480469-67.328125c.519531-4.683594-2.859375-8.902344-7.542969-9.4179685-4.683594-.5195315-8.902344 2.8593745-9.417969 7.5429685l-7.679687 69.203125h-.933594v-42.667969c0-4.710937-3.820313-8.53125-8.53125-8.53125-4.714844 0-8.535156 3.820313-8.535156 8.53125v42.667969h-1.535157l-7.167968-35.839843c-.941406-4.617188-5.449219-7.597657-10.070313-6.65625-4.617187.941406-7.597656 5.453124-6.65625 10.070312l6.5625 32.828125c-3.878906.785156-6.683593 4.171875-6.730469 8.132813v68.265624h-17.066406c-4.714844 0-8.535156 3.820313-8.535156 8.535157v34.132812c0 4.710938 3.820312 8.53125 8.535156 8.53125h8.53125v298.664063c0 4.714844 3.820313 8.535156 8.535156 8.535156h34.132813c4.710937 0 8.53125-3.820312 8.53125-8.535156v-213.332032h85.335937v17.066407h-25.601562c-4.710938 0-8.53125 3.820312-8.53125 8.535156v34.132813c0 4.710937 3.820312 8.53125 8.53125 8.53125h8.535156v145.066406c0 4.714844 3.820313 8.535156 8.53125 8.535156h34.132813c4.714843 0 8.535156-3.820312 8.535156-8.535156v-17.066406h136.53125v17.066406c0 4.714844 3.824219 8.535156 8.535156 8.535156h34.132813c4.714844 0 8.535156-3.820312 8.535156-8.535156v-145.066406h8.53125c4.714844 0 8.535156-3.820313 8.535156-8.53125v-34.132813c0-4.714844-3.820312-8.535156-8.535156-8.535156h-25.597656v-17.066407h85.332031v213.332032c0 4.714844 3.820313 8.535156 8.535156 8.535156h34.132813c4.710937 0 8.53125-3.820312 8.53125-8.535156v-298.664063h8.535156c4.710938 0 8.535156-3.820312 8.535156-8.535156v-34.132813c0-4.710937-3.824218-8.535156-8.535156-8.535156v-25.597656c4.710938 0 8.535156-3.820312 8.535156-8.535156v-42.664063c-.003906-4.714843-3.824218-8.535156-8.539062-8.535156zm-8.53125 42.667969h-8.535156v-25.597656h8.535156zm-93.867188-25.597656h68.265625v25.597656h-68.265625zm-8.535156 42.664062h68.269531v25.597656h-68.269531zm-221.863281-42.664062h170.664062v68.265624h-17.066406v-42.667968c0-4.710938-3.820313-8.535156-8.53125-8.535156h-119.46875c-4.710937 0-8.53125 3.824218-8.53125 8.535156v42.667968h-17.066406zm136.53125 42.664062h-102.398438v-8.535156h102.398438zm-102.398438 17.066406h102.398438v8.535156h-102.398438zm-162.132812-51.199218h51.199219v59.730468h-51.199219zm8.53125 401.066406h-17.066407v-204.800782h17.066407zm119.46875-204.800782h17.066406v17.066407h-17.066406zm34.132812 17.066407v-17.066407h102.398438v17.066407zm-34.132812 187.734375h-17.066407v-136.535156h17.066407zm17.066406-25.601563v-110.933593h136.53125v110.933593zm170.664063 25.601563h-17.066407v-136.535156h17.066407zm17.066406-153.601563h-238.929688v-17.066406h238.933594v17.066406zm-34.132813-34.132812h-17.066406v-17.066407h17.066406zm136.535157 187.734375h-17.066407v-204.800782h17.066407zm0-221.867188h-443.734376v-68.265625h443.734376zm17.066406-85.332031h-477.867188v-17.066406h477.867188zm-8.535156-34.132813h-8.53125v-25.601562h8.53125zm0 0" fill="url(#a)"/></svg>