<svg height="511pt" viewBox="-58 0 511 511.99993" width="511pt" xmlns="http://www.w3.org/2000/svg" xmlns:xlink="http://www.w3.org/1999/xlink"><linearGradient id="a"><stop offset="0" stop-color="#662d91"/><stop offset=".437" stop-color="#3873b3"/><stop offset="1" stop-color="#00c9dd"/></linearGradient><linearGradient id="b" gradientTransform="matrix(.985618 0 0 -.985618 -58.252644 512.521325)" gradientUnits="userSpaceOnUse" x1="88.7967" x2="484.3956" xlink:href="#a" y1="415.7593" y2="20.1605"/><linearGradient id="c" gradientTransform="matrix(.985618 0 0 -.985618 -58.252644 512.521325)" gradientUnits="userSpaceOnUse" x1="56.0694" x2="451.6682" xlink:href="#a" y1="383.032" y2="-12.5669"/><linearGradient id="d" gradientTransform="matrix(.985618 0 0 -.985618 -58.252644 512.521325)" gradientUnits="userSpaceOnUse" x1="70.919" x2="466.5178" xlink:href="#a" y1="397.8816" y2="2.2827"/><path d="m394.992188 176.269531c.269531-68.75-32.128907-133.542969-87.289063-174.582031-3.707031-2.78125-8.96875-2.027344-11.75 1.679688-2.78125 3.707031-2.03125 8.96875 1.675781 11.75 5.433594 4.070312 10.550782 8.394531 15.480469 12.933593l-16.375 16.386719c-.511719.574219-.9375 1.21875-1.269531 1.914062-61.886719-57.050781-155.609375-61.988281-223.144532-11.753906-.835937.425782-1.597656.992188-2.238281 1.679688-77.257812 58.457031-92.496093 168.476562-34.039062 245.734375 3.394531 4.484375 7 8.800781 10.804687 12.9375-.695312.332031-1.335937.757812-1.914062 1.269531l-16.382813 16.382812c-4.515625-4.929687-8.863281-10.074218-12.941406-15.476562-2.78125-3.710938-8.042969-4.460938-11.75-1.679688-3.710937 2.78125-4.460937 8.042969-1.679687 11.75 41.035156 55.167969 105.832031 87.566407 174.589843 87.296876v67.148437h-117.507812c-4.632813 0-8.394531 3.757813-8.394531 8.394531v33.570313c0 4.636719 3.761718 8.394531 8.394531 8.394531h285.371093c4.636719 0 8.394532-3.757812 8.394532-8.394531v-33.570313c0-4.636718-3.757813-8.394531-8.394532-8.394531h-117.503906v-73.082031c98.304688-23.441406 167.722656-111.226563 167.863282-212.289063zm-58.753907 318.941407h-268.582031v-16.785157h268.582031zm-142.683593-33.570313v-67.148437h16.785156v67.148437zm142.683593-285.371094c0 2.835938-.273437 5.597657-.425781 8.394531h-2.777344l-14.421875-28.933593c-.8125-1.628907-2.132812-2.945313-3.757812-3.761719l-16.789063-8.390625c-3.785156-1.894531-8.386718-.667969-10.734375 2.851563l-16.324219 24.492187-20.679687 20.671875-32.601563-13.042969-7.21875-35.855469 8.058594-40.289062c.648438-3.175781-.59375-6.445312-3.191406-8.390625l-28.726562-21.546875 5.152343-15.460938 21.191407-7.074218c1.769531-.589844 3.296874-1.75 4.332031-3.300782l13.429687-20.210937c63.191406 22.777344 105.359375 82.675781 105.484375 149.847656zm-122.246093-154.90625-9.039063 13.5625-22.445313 7.488281c-2.507812.832032-4.472656 2.796876-5.3125 5.304688l-8.390624 25.179688c-1.144532 3.425781.035156 7.199218 2.929687 9.367187l29.375 22.003906-7.386719 36.746094c-.21875 1.085937-.21875 2.207031 0 3.292969l8.394532 41.964844c.550781 2.78125 2.472656 5.09375 5.101562 6.152343l41.96875 16.785157c3.117188 1.25 6.679688.515624 9.054688-1.863282l25.179687-25.179687c.386719-.390625.738281-.816407 1.046875-1.273438l12.675781-19.019531 7.664063 3.824219 15.527344 31.058593c1.40625 2.863282 4.320312 4.683594 7.511718 4.691407h6.203125c-13.832031 86.894531-95.488281 146.125-182.382812 132.296875-59.335938-9.445313-108.316407-51.46875-126.667969-108.679688l12.820312 8.542969c3.328126 2.222656 7.761719 1.78125 10.589844-1.046875l23.5-23.5 31.324219-7.832031c2.675781-.667969 4.855469-2.605469 5.828125-5.1875l25.179688-67.144531c.59375-1.597657.691406-3.335938.273437-4.988282l-8.390625-33.570312c-.75-3.007813-3.097656-5.355469-6.101562-6.109375l-28.429688-7.101563-6.253906-31.308594c37.289062-26.441406 84.234375-35.359374 128.621094-24.421874zm-143.382813 36.234375 5.609375 28.023438c.632812 3.179687 3.042969 5.707031 6.183594 6.496094l28.6875 7.167968 6.539062 26.152344-22.710937 60.574219-29.300781 7.328125c-1.476563.371094-2.820313 1.132812-3.894532 2.207031l-20.3125 20.3125-19.453125-12.96875c-.746093-.457031-1.558593-.789063-2.410156-.980469-9.199219-53.699218 10.132813-108.324218 51.066406-144.28125v-.03125zm-30.214844 266.90625 16.441407-16.441406c.511718-.578125.9375-1.222656 1.265624-1.914062 71.789063 65.496093 183.082032 60.398437 248.582032-11.386719 61.296875-67.183594 61.296875-170.007813.003906-237.191407.695312-.328124 1.339844-.753906 1.914062-1.265624l16.441407-16.441407c34.359375 37.09375 53.359375 85.84375 53.164062 136.40625-.128906 111.199219-90.242187 201.308594-201.4375 201.4375-50.5625.195313-99.3125-18.804687-136.410156-53.160156zm0 0" fill="url(#b)"/><path d="m102.90625 263.558594c-1.90625 2.542968-2.214844 5.945312-.796875 8.789062l16.785156 33.574219c.410157.804687.941407 1.539063 1.578125 2.179687l16.785156 16.785157c1.574219 1.574219 3.710938 2.460937 5.9375 2.460937.449219 0 .898438-.035156 1.34375-.109375 2.664063-.429687 4.960938-2.117187 6.167969-4.53125l16.785157-33.574219c.992187-1.992187 1.15625-4.292968.453124-6.40625l-8.394531-25.179687c-.242187-.707031-.570312-1.378906-.980469-2.003906l-16.785156-25.179688c-1.503906-2.257812-4.003906-3.648437-6.714844-3.734375-2.71875-.050781-5.300781 1.195313-6.949218 3.355469zm41.078125.359375 6.933594 20.816406-10.023438 20.050781-7.554687-7.59375-13.855469-27.699218 14.949219-19.933594zm0 0" fill="url(#c)"/><path d="m185.160156 310.5625c2.226563 0 4.363282-.886719 5.9375-2.460938l8.390625-8.394531c3.222657-3.332031 3.128907-8.644531-.203125-11.867187-3.253906-3.140625-8.410156-3.140625-11.664062 0l-8.394532 8.394531c-3.277343 3.277344-3.273437 8.59375.003907 11.871094 1.570312 1.570312 3.707031 2.453125 5.929687 2.457031zm0 0" fill="url(#d)"/></svg>