<svg height="511pt" viewBox="0 -64 511.99876 511" width="511pt" xmlns="http://www.w3.org/2000/svg" xmlns:xlink="http://www.w3.org/1999/xlink"><linearGradient id="a" gradientTransform="matrix(1.002022 0 0 -1.002022 -.000333 449.224969)" gradientUnits="userSpaceOnUse" x1="155.4256" x2="484.8996" y1="373.3063" y2="43.8322"><stop offset="0" stop-color="#662d91"/><stop offset=".437" stop-color="#3873b3"/><stop offset="1" stop-color="#00c9dd"/></linearGradient><path d="m506.945312 112.171875-247.457031-110.925781c-2.21875-.996094-4.757812-.996094-6.980469 0l-247.453124 110.925781c-4.304688 1.925781-6.230469 6.96875-4.308594 11.273437.855468 1.917969 2.390625 3.453126 4.308594 4.308594l80.285156 35.984375v152.484375c0 2.515625 1.113281 4.90625 3.039062 6.527344 96.78125 81.792969 238.460938 81.792969 335.242188 0 1.925781-1.621094 3.039062-4.011719 3.039062-6.527344v-152.484375l34.132813-15.300781v148.160156l-12.800781 19.148438c-2.796876 4.203125-4.28125 9.144531-4.265626 14.195312v9.890625c0 14.136719 11.460938 25.597657 25.597657 25.597657s25.597656-11.460938 25.597656-25.597657v-9.914062c.015625-5.050781-1.46875-9.992188-4.265625-14.199219l-12.800781-19.121094v-155.804687l29.089843-13.039063c4.300782-1.921875 6.230469-6.96875 4.308594-11.269531-.855468-1.917969-2.390625-3.453125-4.308594-4.3125zm-29.089843 227.636719c0 4.710937-3.820313 8.53125-8.53125 8.53125-4.714844 0-8.535157-3.820313-8.535157-8.53125v-9.890625c0-1.683594.5-3.328125 1.433594-4.726563l7.101563-10.675781 7.097656 10.648437c.9375 1.398438 1.4375 3.046876 1.433594 4.730469zm-68.261719-27.597656c-89.359375 73.070312-217.828125 73.070312-307.1875 0v-140.792969l150.101562 67.289062c2.222657.996094 4.761719.996094 6.980469 0l150.105469-67.316406zm54.882812-184.125-207.792968-16.65625c-4.714844-.375-8.839844 3.136718-9.214844 7.851562-.378906 4.710938 3.136719 8.839844 7.847656 9.214844l176.761719 14.140625-176.078125 78.871093-226.59375-101.542968 226.59375-101.542969 226.59375 101.542969zm0 0" fill="url(#a)"/></svg>