<svg height="512pt" viewBox="-60 0 512 512" width="512pt" xmlns="http://www.w3.org/2000/svg" xmlns:xlink="http://www.w3.org/1999/xlink"><linearGradient id="a"><stop offset="0" stop-color="#662d91"/><stop offset=".437" stop-color="#3873b3"/><stop offset="1" stop-color="#00c9dd"/></linearGradient><linearGradient id="b" gradientTransform="matrix(1.00159 0 0 -1.00159 -59.826999 503.768431)" gradientUnits="userSpaceOnUse" x1="135.0613" x2="533.2831" xlink:href="#a" y1="470.1875" y2="71.9658"/><linearGradient id="c" gradientTransform="matrix(1.00159 0 0 -1.00159 -59.826999 503.768431)" gradientUnits="userSpaceOnUse" x1="-6.5292" x2="391.6924" xlink:href="#a" y1="328.6055" y2="-69.6162"/><path d="m366.757812 136.480469c-.027343-23.066407-13.328124-44.058594-34.175781-53.929688-1.515625-32.941406-29.445312-58.414062-62.382812-56.902343-7.53125.347656-14.929688 2.117187-21.800781 5.214843-15.894532-28.84375-52.160157-39.339843-81.003907-23.449219-9.875 5.441407-18.003906 13.574219-23.445312 23.449219-30.0625-13.554687-65.417969-.175781-78.972657 29.886719-3.097656 6.871094-4.867187 14.269531-5.210937 21.800781-29.78125 14.050781-42.527344 49.582031-28.476563 79.359375 3.707032 7.855469 9.085938 14.804688 15.757813 20.367188-12.421875 30.511718 2.246094 65.320312 32.757813 77.742187 7.160156 2.914063 14.816406 4.410157 22.546874 4.402344 8.761719-.515625 17.296876-2.988281 24.980469-7.234375 30.46875 38.019531 85.992188 44.140625 124.007813 13.671875 5.046875-4.039063 9.628906-8.625 13.671875-13.671875 7.683593 4.246094 16.222656 6.71875 24.984375 7.234375 32.945312.027344 59.675781-26.65625 59.707031-59.601563.007813-7.730468-1.488281-15.386718-4.402344-22.542968 13.625-11.304688 21.492188-28.09375 21.457031-45.796875zm-119.410156 76.996093c-14.128906 0-25.585937-11.457031-25.585937-25.589843 0-14.128907 11.457031-25.585938 25.585937-25.585938 14.132813 0 25.589844 11.457031 25.589844 25.585938 0 14.132812-11.457031 25.589843-25.589844 25.589843zm25.589844-59.484374c-18.101562-13.988282-44.074219-10.886719-58.375 6.96875-11.09375-7.558594-25.683594-7.558594-36.777344 0-14.300781-17.855469-40.273437-20.957032-58.375-6.96875v-18.132813c11.886719-2.496094 22.332032-9.535156 29.109375-19.617187 16.308594 6.65625 35.011719 3.03125 47.652344-9.238282 12.648437 12.253906 31.339844 15.875 47.652344 9.238282 6.777343 10.082031 17.222656 17.121093 29.109375 19.617187v18.132813zm-153.527344 33.894531c0-14.132813 11.457032-25.589844 25.585938-25.589844 14.132812 0 25.589844 11.457031 25.589844 25.589844 0 14.132812-11.457032 25.585937-25.589844 25.585937-14.128906 0-25.585938-11.453125-25.585938-25.585937zm76.761719 85.292969c-29.792969-.777344-56.410156-18.828126-68.15625-46.21875 21.21875 9.628906 46.230469.238281 55.863281-20.980469 4.234375-9.332031 4.929688-19.882813 1.957032-29.683594 5.890624-5.253906 14.785156-5.253906 20.675781 0-1.144531 3.757813-1.75 7.660156-1.808594 11.589844-.046875 23.507812 18.972656 42.597656 42.476563 42.644531 5.902343.011719 11.742187-1.207031 17.148437-3.570312-11.742187 27.390624-38.359375 45.441406-68.15625 46.21875zm133.792969-100.773438c-3.816406 2.4375-5.058594 7.433594-2.832032 11.378906 11.558594 20.519532 4.292969 46.527344-16.226562 58.085938-6.382812 3.59375-13.585938 5.488281-20.910156 5.488281-5.21875-.429687-10.300782-1.878906-14.960938-4.261719 9.835938-16.734375 15.003906-35.800781 14.960938-55.210937v-59.707031c0-4.707032-3.820313-8.527344-8.53125-8.527344-11.710938-.382813-22.117188-7.5625-26.636719-18.371094-1.050781-2.25-3.027344-3.925781-5.417969-4.597656-2.386718-.6875-4.957031-.285156-7.019531 1.101562-12.84375 8.484375-30.132813 4.953125-38.621094-7.890625-.183593-.277343-.363281-.5625-.535156-.84375-2.941406-3.902343-8.484375-4.679687-12.386719-1.738281-.65625.496094-1.242187 1.078125-1.738281 1.738281-8.03125 13.140625-25.199219 17.285157-38.34375 9.25-.273437-.167969-.542969-.339843-.8125-.515625-2.0625-1.386718-4.632813-1.789062-7.019531-1.101562-2.386719.671875-4.367188 2.347656-5.417969 4.597656-4.515625 10.808594-14.925781 17.988281-26.636719 18.371094-4.710937 0-8.53125 3.820312-8.53125 8.527344v59.707031c-.046875 19.421875 5.117188 38.5 14.960938 55.242187-4.660156 2.386719-9.742188 3.835938-14.960938 4.265625-23.550781-.011719-42.636718-19.113281-42.625-42.667969.003906-7.324218 1.894532-14.527343 5.488282-20.910156 2.226562-3.941406.984374-8.9375-2.828126-11.378906-19.847656-12.605469-25.710937-38.914062-13.105468-58.757812 5.144531-8.097657 12.871094-14.21875 21.929687-17.371094 3.585938-1.261719 5.90625-4.738282 5.691407-8.53125l-.0625-.851563c0-.511719-.074219-1.035156-.074219-1.554687-.039063-23.554688 19.023437-42.675782 42.578125-42.710938 8.476562-.015625 16.769531 2.5 23.8125 7.222656 3.914062 2.621094 9.210937 1.570313 11.832031-2.34375.398437-.597656.722656-1.242187.960937-1.921874 7.753907-22.203126 32.039063-33.921876 54.242188-26.171876 12.257812 4.28125 21.894531 13.914063 26.171875 26.171876 1.558594 4.445312 6.425781 6.785156 10.871094 5.226562.679687-.238281 1.324219-.5625 1.921875-.960938 19.550781-13.132812 46.046875-7.929687 59.179687 11.621094 4.726563 7.035156 7.25 15.324219 7.246094 23.800782 0 .519531-.042969 1.039062-.074219 1.550781l-.0625.855469c-.214844 3.792968 2.105469 7.269531 5.691406 8.527343 22.199219 7.734375 33.929688 32 26.199219 54.203125-3.15625 9.058594-9.277343 16.789063-17.375 21.929688v.035156zm0 0" fill="url(#b)"/><path d="m8.527344 512h375.289062c4.710938 0 8.53125-3.820312 8.53125-8.53125v-92.753906c0-66.433594-65.207031-120.476563-145.355468-120.476563-1.332032 0-2.644532.3125-3.832032.910157l-46.988281 23.652343-46.984375-23.652343c-1.191406-.597657-2.5-.910157-3.832031-.910157-80.148438 0-145.355469 54.042969-145.355469 120.476563v92.753906c0 4.710938 3.816406 8.53125 8.527344 8.53125zm145-74.769531-14.449219-25.269531 14.449219-10.84375zm-21.324219-87.996094 21.324219-21.320313v38.378907zm38.382813 145.707031v-144.996094l20.46875 15.351563c3.035156 2.273437 7.203124 2.273437 10.234374 0l20.472657-15.351563v144.996094zm82.683593-82.980468-14.449219 25.269531v-36.113281zm-14.449219-84.074219 21.320313 21.324219-21.320313 17.058593zm10.175782-20.589844c69.820312.851563 126.292968 46.910156 126.292968 103.417969v84.226562h-51.175781v-85.292968c0-4.710938-3.820312-8.53125-8.53125-8.53125-4.710937 0-8.527343 3.820312-8.527343 8.53125v85.292968h-68.234376v-23.320312l32.992188-57.742188c2.152344-3.742187 1.171875-8.503906-2.289062-11.089844l-25.304688-18.976562 34.050781-27.242188c3.675781-2.945312 4.269531-8.3125 1.328125-11.988281-.195312-.246093-.40625-.480469-.628906-.703125l-34.382812-34.382812zm-48.984375 24.675781 21.75-10.953125v7.601563l-25.589844 19.191406-25.585937-19.191406v-7.601563l21.75 10.953125c2.414062 1.214844 5.261718 1.214844 7.675781 0zm-182.953125 78.742188c0-56.507813 56.472656-102.566406 126.292968-103.417969l4.410157 2.226563-34.382813 34.382812c-3.332031 3.328125-3.332031 8.730469 0 12.0625.21875.222656.453125.429688.703125.628906l34.046875 27.242188-25.304687 18.984375c-3.460938 2.585937-4.441407 7.347656-2.285157 11.089843l32.988282 57.707032v23.320312h-68.234375v-85.292968c0-4.710938-3.816407-8.53125-8.527344-8.53125s-8.53125 3.820312-8.53125 8.53125v85.292968h-51.175781zm0 0" fill="url(#c)"/></svg>