<svg height="511pt" viewBox="0 0 511 511.9984" width="511pt" xmlns="http://www.w3.org/2000/svg" xmlns:xlink="http://www.w3.org/1999/xlink"><linearGradient id="a"><stop offset="0" stop-color="#662d91"/><stop offset=".437" stop-color="#3873b3"/><stop offset="1" stop-color="#00c9dd"/></linearGradient><linearGradient id="b" gradientTransform="matrix(1.002055 0 0 -1.002055 .497196 521.068598)" gradientUnits="userSpaceOnUse" x1="35.9296" x2="492.9781" xlink:href="#a" y1="487.801" y2="30.7526"/><linearGradient id="c" gradientTransform="matrix(1.002055 0 0 -1.002055 .497196 521.068598)" gradientUnits="userSpaceOnUse" x1="34.0657" x2="491.1141" xlink:href="#a" y1="485.937" y2="28.8886"/><linearGradient id="d" gradientTransform="matrix(1.002055 0 0 -1.002055 .497196 521.068598)" gradientUnits="userSpaceOnUse" x1="-12.7709" x2="444.2775" xlink:href="#a" y1="439.1004" y2="-17.948"/><linearGradient id="e" gradientTransform="matrix(1.002055 0 0 -1.002055 .497196 521.068598)" gradientUnits="userSpaceOnUse" x1="-51.0918" x2="405.9567" xlink:href="#a" y1="400.7796" y2="-56.2688"/><linearGradient id="f" gradientTransform="matrix(1.002055 0 0 -1.002055 .497196 521.068598)" gradientUnits="userSpaceOnUse" x1="-85.1547" x2="371.8937" xlink:href="#a" y1="366.7166" y2="-90.3318"/><linearGradient id="g" gradientTransform="matrix(1.002055 0 0 -1.002055 .497196 521.068598)" gradientUnits="userSpaceOnUse" x1="-119.2177" x2="337.8307" xlink:href="#a" y1="332.6536" y2="-124.3948"/><linearGradient id="h" gradientTransform="matrix(1.002055 0 0 -1.002055 .497196 521.068598)" gradientUnits="userSpaceOnUse" x1="17.0342" x2="474.0827" xlink:href="#a" y1="468.9055" y2="11.8571"/><linearGradient id="i" gradientTransform="matrix(1.002055 0 0 -1.002055 .497196 521.068598)" gradientUnits="userSpaceOnUse" x1="63.8708" x2="520.9193" xlink:href="#a" y1="515.7421" y2="58.6937"/><linearGradient id="j" gradientTransform="matrix(1.002055 0 0 -1.002055 .497196 521.068598)" gradientUnits="userSpaceOnUse" x1="110.7074" x2="567.7558" xlink:href="#a" y1="562.5787" y2="105.5303"/><linearGradient id="k" gradientTransform="matrix(1.002055 0 0 -1.002055 .497196 521.068598)" gradientUnits="userSpaceOnUse" x1="-38.3182" x2="418.7303" xlink:href="#a" y1="413.5532" y2="-43.4952"/><linearGradient id="l" gradientTransform="matrix(1.002055 0 0 -1.002055 .497196 521.068598)" gradientUnits="userSpaceOnUse" x1="8.5184" x2="465.5669" xlink:href="#a" y1="460.3898" y2="3.3413"/><linearGradient id="m" gradientTransform="matrix(1.002055 0 0 -1.002055 .497196 521.068598)" gradientUnits="userSpaceOnUse" x1="70.2576" x2="527.306" xlink:href="#a" y1="522.1289" y2="65.0805"/><linearGradient id="n" gradientTransform="matrix(1.002055 0 0 -1.002055 .497196 521.068598)" gradientUnits="userSpaceOnUse" x1="106.4495" x2="563.4979" xlink:href="#a" y1="558.3209" y2="101.2724"/><linearGradient id="o" gradientTransform="matrix(1.002055 0 0 -1.002055 .497196 521.068598)" gradientUnits="userSpaceOnUse" x1=".0027" x2="457.0512" xlink:href="#a" y1="451.8741" y2="-5.1744"/><linearGradient id="p" gradientTransform="matrix(1.002055 0 0 -1.002055 .497196 521.068598)" gradientUnits="userSpaceOnUse" x1="31.9367" x2="488.9852" xlink:href="#a" y1="483.8081" y2="26.7596"/><path d="m469.828125 324.261719c-13.480469.039062-26.144531 6.46875-34.132813 17.332031-13.925781-18.921875-40.550781-22.972656-59.472656-9.046875-10.929687 8.039063-17.367187 20.8125-17.328125 34.382813v42.664062h-136.53125c-4.710937 0-8.53125 3.820312-8.53125 8.535156 0 4.710938 3.820313 8.53125 8.53125 8.53125h8.535157v68.269532h-85.332032v-318.984376l145.164063-72.589843 153.496093 72.710937v131.128906c0 4.714844 3.824219 8.535157 8.535157 8.535157 4.710937 0 8.535156-3.820313 8.535156-8.535157v-136.53125c-.015625-3.285156-1.914063-6.273437-4.882813-7.679687l-29.25-13.882813v-55.234374h76.796876c4.714843 0 8.535156-3.824219 8.535156-8.535157 0-4.710937-3.820313-8.535156-8.535156-8.535156h-85.332032c-4.710937 0-8.53125 3.824219-8.53125 8.535156v55.679688l-110.933594-52.546875v-20.199219h68.265626c4.710937 0 8.535156-3.820313 8.535156-8.53125v-51.199219c0-4.714844-3.824219-8.535156-8.535156-8.535156h-76.800782c-4.710937 0-8.53125 3.820312-8.53125 8.535156v80.054688l-76.800781 38.402344v-67.257813c0-4.714844-3.820313-8.535156-8.53125-8.535156h-187.734375c-4.710938 0-8.53125 3.820312-8.53125 8.535156v358.394531c0 4.710938 3.820312 8.53125 8.53125 8.53125 15.789062 0 34.132812 13.050782 34.132812 29.867188-.027343.886718-.121093 1.773437-.273437 2.644531l-.144531 1.09375c-.585938 4.675781 2.726562 8.945313 7.402344 9.53125.984374.121094 1.984374.074219 2.949218-.144531.941406-.210938 1.902344-.320313 2.867188-.324219 6.988281-.082031 12.71875 5.519531 12.800781 12.507813.011719 1.058593-.109375 2.113281-.359375 3.140624-1.050781 4.59375 1.820312 9.171876 6.414062 10.222657 1.078126.246093 2.191407.28125 3.277344.105469 1.144532-.222657 2.304688-.347657 3.464844-.378907 14.234375 0 16.0625 0 22.230469 12.347657 2.105469 4.21875 7.234375 5.929687 11.453125 3.824218 4.214844-2.105468 5.925781-7.234375 3.820312-11.453125-9.558594-19.105469-18.882812-21.492187-33.535156-21.757812-1.910156-13.183594-12.304688-23.515625-25.496094-25.351563-3.425781-21.820312-20.625-38.882812-42.472656-42.136718v-342.132813h170.667969v67.257813l-55.015625 27.511718c-2.890625 1.445313-4.714844 4.398438-4.71875 7.628906v332.796876c0 4.714843 3.820312 8.535156 8.535156 8.535156h238.929688c4.714843 0 8.535156-3.820313 8.535156-8.535156 0-4.710938-3.820313-8.53125-8.535156-8.53125h-25.597657v-68.269532h9.382813c3.453125 16.746094 16.539062 29.828125 33.28125 33.28125v43.519532c0 4.710937 3.820312 8.53125 8.535156 8.53125 4.710938 0 8.53125-3.820313 8.53125-8.53125v-43.519532c10.269531-2.152344 19.386719-8.015625 25.601562-16.46875 6.214844 8.453125 15.328126 14.316406 25.597657 16.46875v43.519532c0 4.710937 3.820312 8.53125 8.535156 8.53125 4.710937 0 8.53125-3.820313 8.53125-8.53125v-43.519532c19.851563-4.082031 34.109375-21.546875 34.132813-41.8125v-51.199218c-.027344-23.550782-19.113282-42.636719-42.664063-42.667969zm-170.664063-307.195313h59.730469v34.132813h-59.730469zm-51.199218 409.59375h34.132812v68.269532h-34.132812zm85.332031 68.269532h-34.132813v-68.269532h34.132813zm68.265625-51.199219c-14.136719 0-25.597656-11.464844-25.597656-25.601563v-51.199218c0-14.136719 11.460937-25.597657 25.597656-25.597657s25.601562 11.460938 25.601562 25.597657v51.199218c0 14.136719-11.464843 25.601563-25.601562 25.601563zm93.867188-25.601563c0 14.136719-11.464844 25.597656-25.601563 25.597656s-25.597656-11.460937-25.597656-25.597656v-51.199218c0-14.136719 11.460937-25.601563 25.597656-25.601563s25.601563 11.464844 25.601563 25.601563zm0 0" fill="url(#b)"/><path d="m34.632812 128h136.53125c4.714844 0 8.535157-3.824219 8.535157-8.535156v-34.132813c0-4.710937-3.820313-8.535156-8.535157-8.535156h-136.53125c-4.710937 0-8.53125 3.824219-8.53125 8.535156v34.132813c0 4.714844 3.820313 8.535156 8.53125 8.535156zm8.53125-34.132812h119.464844v17.0625h-119.464844zm0 0" fill="url(#c)"/><path d="m119.964844 187.730469c0-4.710938-3.820313-8.53125-8.53125-8.53125h-68.269532v-17.066407h76.800782c4.714844 0 8.535156-3.820312 8.535156-8.535156 0-4.710937-3.820312-8.53125-8.535156-8.53125h-85.332032c-4.710937 0-8.53125 3.820313-8.53125 8.53125v34.132813c0 4.714843 3.820313 8.535156 8.53125 8.535156h76.800782c4.710937 0 8.53125-3.820313 8.53125-8.535156zm0 0" fill="url(#d)"/><path d="m102.898438 230.398438c4.714843 0 8.535156-3.820313 8.535156-8.535157 0-4.710937-3.820313-8.53125-8.535156-8.53125h-68.265626c-4.710937 0-8.53125 3.820313-8.53125 8.53125v34.132813c0 4.714844 3.820313 8.535156 8.53125 8.535156h68.265626c4.714843 0 8.535156-3.820312 8.535156-8.535156 0-4.710938-3.820313-8.53125-8.535156-8.53125h-59.730469v-17.066406zm0 0" fill="url(#e)"/><path d="m102.898438 298.664062c4.714843 0 8.535156-3.820312 8.535156-8.535156 0-4.710937-3.820313-8.53125-8.535156-8.53125h-68.265626c-4.710937 0-8.53125 3.820313-8.53125 8.53125v34.132813c0 4.714843 3.820313 8.535156 8.53125 8.535156h68.265626c4.714843 0 8.535156-3.820313 8.535156-8.535156 0-4.710938-3.820313-8.53125-8.535156-8.53125h-59.730469v-17.066407zm0 0" fill="url(#f)"/><path d="m102.898438 366.929688c4.714843 0 8.535156-3.820313 8.535156-8.535157 0-4.710937-3.820313-8.53125-8.535156-8.53125h-68.265626c-4.710937 0-8.53125 3.820313-8.53125 8.53125v34.132813c0 4.714844 3.820313 8.535156 8.53125 8.535156h68.265626c4.714843 0 8.535156-3.820312 8.535156-8.535156 0-4.710938-3.820313-8.53125-8.535156-8.53125h-59.730469v-17.066406zm0 0" fill="url(#g)"/><path d="m239.429688 196.265625c0-4.714844-3.820313-8.535156-8.53125-8.535156h-59.734376c-4.710937 0-8.53125 3.820312-8.53125 8.535156v76.796875c0 4.714844 3.820313 8.535156 8.53125 8.535156h59.734376c4.710937 0 8.53125-3.820312 8.53125-8.535156zm-17.066407 68.265625h-42.664062v-59.734375h42.664062zm0 0" fill="url(#h)"/><path d="m333.296875 196.265625c0-4.714844-3.820313-8.535156-8.535156-8.535156h-59.730469c-4.714844 0-8.535156 3.820312-8.535156 8.535156v76.796875c0 4.714844 3.820312 8.535156 8.535156 8.535156h59.730469c4.714843 0 8.535156-3.820312 8.535156-8.535156zm-17.066406 68.265625h-42.667969v-59.734375h42.667969zm0 0" fill="url(#i)"/><path d="m427.164062 196.265625c0-4.714844-3.824218-8.535156-8.535156-8.535156h-59.734375c-4.710937 0-8.53125 3.820312-8.53125 8.535156v76.796875c0 4.714844 3.820313 8.535156 8.53125 8.535156h59.734375c4.710938 0 8.535156-3.820312 8.535156-8.535156zm-17.070312 68.265625h-42.664062v-59.734375h42.667968v59.734375zm0 0" fill="url(#j)"/><path d="m230.898438 298.664062h-59.734376c-4.710937 0-8.53125 3.820313-8.53125 8.53125v76.800782c0 4.714844 3.820313 8.535156 8.53125 8.535156h59.734376c4.710937 0 8.53125-3.820312 8.53125-8.535156v-76.800782c0-4.710937-3.820313-8.53125-8.53125-8.53125zm-8.535157 76.800782h-42.664062v-59.734375h42.664062zm0 0" fill="url(#k)"/><path d="m324.761719 298.664062h-59.730469c-4.714844 0-8.535156 3.820313-8.535156 8.53125v76.800782c0 4.714844 3.820312 8.535156 8.535156 8.535156h59.730469c4.714843 0 8.535156-3.820312 8.535156-8.535156v-76.800782c0-4.710937-3.820313-8.53125-8.535156-8.53125zm-8.53125 76.800782h-42.667969v-59.734375h42.667969zm0 0" fill="url(#l)"/><path d="m418.628906 298.664062h-59.734375c-4.710937 0-8.53125 3.820313-8.53125 8.53125v17.066407c0 4.714843 3.820313 8.535156 8.53125 8.535156 4.714844 0 8.535157-3.820313 8.535157-8.535156v-8.53125h42.667968c0 4.710937 3.820313 8.53125 8.53125 8.53125 4.714844 0 8.535156-3.820313 8.535156-8.53125v-8.535157c0-4.710937-3.824218-8.53125-8.535156-8.53125zm0 0" fill="url(#m)"/><path d="m316.230469 145.066406c0-14.140625-11.460938-25.601562-25.601563-25.601562-14.136718 0-25.597656 11.460937-25.597656 25.601562 0 14.136719 11.460938 25.597656 25.597656 25.597656 14.140625 0 25.601563-11.460937 25.601563-25.597656zm-34.132813 0c0-4.714844 3.820313-8.535156 8.53125-8.535156 4.714844 0 8.535156 3.820312 8.535156 8.535156 0 4.710938-3.820312 8.53125-8.535156 8.53125-4.710937 0-8.53125-3.820312-8.53125-8.53125zm0 0" fill="url(#n)"/><path d="m444.226562 511.996094c4.714844 0 8.535157-3.820313 8.535157-8.535156 0-4.710938-3.820313-8.53125-8.535157-8.53125h-17.0625c-4.714843 0-8.535156 3.820312-8.535156 8.53125 0 4.714843 3.820313 8.535156 8.535156 8.535156zm0 0" fill="url(#o)"/><path d="m503.960938 494.929688h-8.53125c-4.714844 0-8.535157 3.820312-8.535157 8.53125 0 4.714843 3.820313 8.535156 8.535157 8.535156h8.53125c4.714843 0 8.535156-3.820313 8.535156-8.535156 0-4.710938-3.820313-8.53125-8.535156-8.53125zm0 0" fill="url(#p)"/></svg>