<svg height="512pt" viewBox="-34 0 512 512.00005" width="512pt" xmlns="http://www.w3.org/2000/svg" xmlns:xlink="http://www.w3.org/1999/xlink"><linearGradient id="a"><stop offset="0" stop-color="#662d91"/><stop offset=".437" stop-color="#3873b3"/><stop offset="1" stop-color="#00c9dd"/></linearGradient><linearGradient id="b" gradientTransform="matrix(1.002065 0 0 -1.002065 -34.133308 504.007078)" gradientUnits="userSpaceOnUse" x1="46.4799" x2="401.382" xlink:href="#a" y1="438.7436" y2="83.833"/><linearGradient id="c" gradientTransform="matrix(1.002065 0 0 -1.002065 -34.133308 504.007078)" gradientUnits="userSpaceOnUse" x1="4.2579" x2="359.1685" xlink:href="#a" y1="396.5217" y2="41.6111"/><linearGradient id="d" gradientTransform="matrix(1.002065 0 0 -1.002065 -34.133308 504.007078)" gradientUnits="userSpaceOnUse" x1="153.2834" x2="508.194" xlink:href="#a" y1="545.5472" y2="190.6366"/><linearGradient id="e" gradientTransform="matrix(1.002065 0 0 -1.002065 -34.133308 504.007078)" gradientUnits="userSpaceOnUse" x1="-8.5157" x2="346.3949" xlink:href="#a" y1="383.7481" y2="28.8375"/><linearGradient id="f" gradientTransform="matrix(1.002065 0 0 -1.002065 -34.133308 504.007078)" gradientUnits="userSpaceOnUse" x1="114.9626" x2="469.8732" xlink:href="#a" y1="507.2263" y2="152.3157"/><linearGradient id="g" gradientTransform="matrix(1.002065 0 0 -1.002065 -34.133308 504.007078)" gradientUnits="userSpaceOnUse" x1="-42.5787" x2="312.3319" xlink:href="#a" y1="349.6851" y2="-5.2255"/><linearGradient id="h" gradientTransform="matrix(1.002065 0 0 -1.002065 -34.133308 504.007078)" gradientUnits="userSpaceOnUse" x1="119.2204" x2="474.131" xlink:href="#a" y1="511.4842" y2="156.5736"/><path d="m8.535156 452.265625c-4.714844 0-8.535156 3.820313-8.535156 8.535156v42.664063c0 4.714844 3.820312 8.535156 8.535156 8.535156h426.664063c4.714843 0 8.535156-3.820312 8.535156-8.535156v-42.664063c0-4.714843-3.820313-8.535156-8.535156-8.535156h-187.730469v-298.667969h34.132812v187.734375c0 32.992188 26.742188 59.734375 59.730469 59.734375 32.992188 0 59.734375-26.742187 59.734375-59.734375v-291.703125c13.304688-4.683594 20.289063-19.269531 15.605469-32.574218-3.605469-10.234376-13.285156-17.0742192-24.140625-17.054688h-102.398438c-14.105468-.0273438-25.5625 11.386719-25.589843 25.492188-.019531 10.851562 6.820312 20.53125 17.054687 24.136718v52.769532h-34.128906v-8.53125c0-14.140626-11.464844-25.601563-25.601562-25.601563-14.136719 0-25.601563 11.460937-25.601563 25.601563v8.53125h-34.132813v-52.769532c13.304688-4.683594 20.292969-19.269531 15.605469-32.574218-3.605469-10.234376-13.285156-17.0742192-24.140625-17.054688h-102.398437c-14.105469-.0273438-25.5625 11.386719-25.585938 25.492188-.023437 10.851562 6.816407 20.53125 17.054688 24.136718v292.925782c0 32.988281 26.742187 59.730468 59.730469 59.730468 32.992187 0 59.734374-26.742187 59.734374-59.730468v-188.957032h34.132813v298.667969zm418.132813 42.667969h-409.601563v-25.601563h409.601563zm-85.335938-110.933594c-23.550781-.027344-42.636719-19.113281-42.664062-42.667969v-42.667969h85.332031v42.667969c-.027344 23.554688-19.113281 42.640625-42.667969 42.667969zm-51.199219-366.933594h102.398438c4.714844 0 8.535156 3.820313 8.535156 8.535156 0 4.710938-3.820312 8.53125-8.535156 8.53125h-102.398438c-4.710937 0-8.535156-3.820312-8.535156-8.53125 0-4.714843 3.824219-8.535156 8.535156-8.535156zm8.535157 34.132813h85.332031v230.402343h-85.332031v-128.003906h59.730469c4.714843 0 8.535156-3.820312 8.535156-8.53125v-34.132812c0-4.714844-3.820313-8.535156-8.535156-8.535156h-59.730469zm-85.335938 42.667969c0-4.714844 3.824219-8.535157 8.535157-8.535157 4.710937 0 8.535156 3.820313 8.535156 8.535157v8.53125h-17.066406v-8.53125zm-162.132812-76.800782h102.398437c4.714844 0 8.535156 3.820313 8.535156 8.535156 0 4.710938-3.820312 8.53125-8.535156 8.53125h-102.398437c-4.710938 0-8.535157-3.820312-8.535157-8.53125 0-4.714843 3.824219-8.535156 8.535157-8.535156zm51.199219 366.933594c-23.210938.304688-42.296876-18.234375-42.664063-41.445312v-154.820313h85.332031v154.820313c-.371094 23.210937-19.453125 41.75-42.667968 41.445312zm42.667968-213.332031h-85.332031v-119.46875h85.332031v51.199219h-59.734375c-4.710937 0-8.53125 3.824218-8.53125 8.535156v34.132812c0 4.714844 3.820313 8.535156 8.53125 8.535156h59.734375zm-51.199218-34.132813v-17.070312h256v17.066406h-256zm119.464843 17.0625h17.066407v298.667969h-17.066407zm0 0" fill="url(#b)"/><path d="m119.464844 230.398438c0-14.136719-11.460938-25.597657-25.597656-25.597657-14.140626 0-25.601563 11.460938-25.601563 25.597657 0 14.140624 11.460937 25.601562 25.601563 25.601562 14.136718 0 25.597656-11.460938 25.597656-25.601562zm-34.132813 0c0-4.710938 3.820313-8.53125 8.535157-8.53125 4.710937 0 8.53125 3.820312 8.53125 8.53125 0 4.714843-3.820313 8.535156-8.53125 8.535156-4.714844 0-8.535157-3.820313-8.535157-8.535156zm0 0" fill="url(#c)"/><path d="m332.800781 192c0 11.78125 9.550781 21.332031 21.332031 21.332031s21.332032-9.550781 21.332032-21.332031-9.550782-21.332031-21.332032-21.332031-21.332031 9.550781-21.332031 21.332031zm25.597657 0c0 2.355469-1.910157 4.265625-4.265626 4.265625-2.355468 0-4.265624-1.910156-4.265624-4.265625s1.910156-4.265625 4.265624-4.265625c2.355469 0 4.265626 1.910156 4.265626 4.265625zm0 0" fill="url(#d)"/><path d="m136.53125 281.601562c0 9.425782-7.640625 17.066407-17.066406 17.066407-9.425782 0-17.066406-7.640625-17.066406-17.066407 0-9.425781 7.640624-17.066406 17.066406-17.066406 9.425781 0 17.066406 7.640625 17.066406 17.066406zm0 0" fill="url(#e)"/><path d="m320 221.867188c-7.070312 0-12.800781 5.730468-12.800781 12.800781 0 7.066406 5.730469 12.800781 12.800781 12.800781s12.800781-5.734375 12.800781-12.800781c0-7.070313-5.730469-12.800781-12.800781-12.800781zm0 17.066406c-2.359375 0-4.265625-1.910156-4.265625-4.265625 0-2.359375 1.90625-4.269531 4.265625-4.269531 2.355469 0 4.265625 1.910156 4.265625 4.269531 0 2.355469-1.910156 4.265625-4.265625 4.265625zm0 0" fill="url(#f)"/><path d="m89.601562 307.199219c-7.070312 0-12.800781 5.730469-12.800781 12.800781s5.730469 12.800781 12.800781 12.800781c7.066407 0 12.796876-5.730469 12.796876-12.800781s-5.730469-12.800781-12.796876-12.800781zm0 17.066406c-2.359374 0-4.269531-1.910156-4.269531-4.265625 0-2.359375 1.910157-4.265625 4.269531-4.265625 2.355469 0 4.265626 1.90625 4.265626 4.265625 0 2.355469-1.910157 4.265625-4.265626 4.265625zm0 0" fill="url(#g)"/><path d="m354.132812 247.46875c-7.070312 0-12.800781 5.730469-12.800781 12.796875 0 7.070313 5.730469 12.800781 12.800781 12.800781 7.070313 0 12.800782-5.730468 12.800782-12.800781 0-7.066406-5.730469-12.796875-12.800782-12.796875zm0 17.0625c-2.355468 0-4.265624-1.90625-4.265624-4.265625 0-2.355469 1.910156-4.265625 4.265624-4.265625 2.355469 0 4.265626 1.910156 4.265626 4.265625 0 2.359375-1.910157 4.265625-4.265626 4.265625zm0 0" fill="url(#h)"/></svg>