<svg height="512pt" viewBox="0 -4 512.00205 512" width="512pt" xmlns="http://www.w3.org/2000/svg" xmlns:xlink="http://www.w3.org/1999/xlink"><linearGradient id="a"><stop offset="0" stop-color="#662d91"/><stop offset=".437" stop-color="#3873b3"/><stop offset="1" stop-color="#00c9dd"/></linearGradient><linearGradient id="b" gradientTransform="matrix(1.002043 0 0 -1.002043 -.000092 491.234289)" gradientUnits="userSpaceOnUse" x1="11.8135" x2="426.2492" xlink:href="#a" y1="422.6183" y2="8.1827"/><linearGradient id="c" gradientTransform="matrix(1.002043 0 0 -1.002043 -.000092 491.234289)" gradientUnits="userSpaceOnUse" x1="-62.4343" x2="351.9929" xlink:href="#a" y1="348.3621" y2="-66.0651"/><path d="m511.4375 278.972656c-5.851562-84.546875-75.8125-150.335937-160.558594-150.984375-28.285156-94.816406-128.078125-148.75-222.894531-120.464843-94.8125 28.285156-148.746094 128.078124-120.460937 222.890624 14.890624 49.921876 50.773437 90.886719 98.300781 112.222657-16.808594 8.996093-32.425781 20.058593-46.480469 32.929687l-24.34375 22.316406c-10.425781 9.550782-11.128906 25.746094-1.578125 36.167969 1.070313 1.164063 2.242187 2.230469 3.503906 3.175781l27.445313 20.582032c39.5 29.503906 87.457031 45.488281 136.761718 45.585937h24.421876c49.292968-.101562 97.246093-16.085937 136.742187-45.585937l9.660156-7.242188c80.292969-10.875 140.148438-79.476562 140.042969-160.5 0-2.238281-.246094-4.402344-.332031-6.613281.328125-1.488281.25-3.035156-.230469-4.480469zm-34.421875 75.542969c-1.453125-2.90625-4.429687-4.738281-7.679687-4.71875h-56.199219l-19.550781-19.550781 15.042968-52.65625 25.8125-11.902344 47.222656 31.476562c2.542969 1.695313 5.796876 1.898438 8.535157.539063l4.460937-2.238281c-.75 21.582031-6.320312 42.722656-16.308594 61.867187zm-93.148437 36.242187-16.527344-15.191406c-14.789063-13.542968-31.296875-25.074218-49.101563-34.300781h62.230469l18.773438 18.773437zm-325.027344-319.933593 108.300781 108.308593-27.023437 27.027344c-29.734376-27.058594-67.726563-43.292968-107.832032-46.082031l-13.746094-.980469c4.039063-32.867187 18.113282-63.691406 40.300782-88.273437zm101.320312-38.613281c2.820313 40.089843 19.074219 78.058593 46.140625 107.765624l-27.09375 27.09375-108.300781-108.3125c24.582031-22.179687 55.40625-36.246093 88.273438-40.285156zm139.519532 38.550781c15.144531 16.78125 26.609374 36.546875 33.652343 58.027343-28.070312 2.902344-54.886719 13.132813-77.761719 29.667969-8.941406-5.347656-17.347656-11.546875-25.101562-18.507812zm89.042968 79.726562 2.21875 6.578125-41.070312 28.714844-41.070313-28.757812 2.21875-6.578126c25.390625-7.257812 52.308594-7.257812 77.703125 0zm1.542969 125.609375c.070313.179688.050781.367188.136719.546875.15625.292969.335937.578125.53125.851563l-13.363282 46.703125h-55.398437l-13.585937-47.554688 41.285156-27.535156zm-92.59375-12.691406-35.105469-14.042969-15.699218-39.253906c-.777344-1.945313-2.242188-3.535156-4.113282-4.46875l-7.679687-3.859375c14.597656-18.996094 33.652343-34.101562 55.480469-43.980469-1.109376 3.539063.191406 7.386719 3.21875 9.523438l47.5625 33.324219v33.652343zm-72.316406-47.390625 6.824219 3.410156 13.773437 34.425781-34.320313 34.363282-6.585937-3.296875c.835937-24.3125 7.824219-48.019531 20.308594-68.902344zm16.125-46.171875c-9.417969 8.445312-17.824219 17.957031-25.042969 28.34375-.914062.75-1.664062 1.679688-2.203125 2.730469-.097656.308593-.179687.617187-.246094.929687l-22.714843-22.714844 27.109374-27.109374c7.210938 6.554687 14.941407 12.515624 23.117188 17.816406h-.019531zm-62.289063 21.332031 26.015625 26.015625c-9.675781 19.148438-15.425781 40.035156-16.902343 61.4375-7.894532-22.34375-20.179688-42.878906-36.132813-60.40625zm28.097656 124.582031c-.679687-3.820312-1.328124-7.679687-1.703124-11.535156l3.933593 1.96875c3.285157 1.640625 7.25.996094 9.84375-1.601562l38.691407-38.683594 33.558593 13.425781 15.914063 55.695313c.15625.429687.351562.847656.582031 1.246094-29.742187-13.601563-62.066406-20.628907-94.769531-20.609376-2.015625 0-4.019532.085938-6.035156.136719zm259.632813-111.023437c15.445313 21.039063 24.882813 45.878906 27.304687 71.867187l-7.238281 3.617188-41.894531-27.929688 13.609375-47.554687zm-14.40625-17.066406h-.246094c-3.8125.003906-7.15625 2.53125-8.203125 6.195312l-15.988281 55.960938-27.417969 12.644531-42.257812-28.167969v-33.65625l47.566406-33.277343c3.023438-2.140626 4.324219-5.988282 3.214844-9.523438 16.136718 7.226562 30.820312 17.332031 43.332031 29.824219zm-165.003906-128.910157-69.121094 69.117188c-24.160156-26.785156-38.667969-60.890625-41.207031-96.875l-.988282-13.773438c41.035157-.804687 80.835938 14.046876 111.316407 41.53125zm-270.210938 117.363282 13.773438.980468c35.996093 2.515626 70.117187 16.996094 96.933593 41.140626l-69.195312 69.203124c-27.476562-30.488281-42.320312-70.289062-41.511719-111.324218zm53.484375 123.511718 69.332032-69.300781c21.988281 24.5 35.957031 55.140625 40.035156 87.808594-18.203125 2.667969-36.019532 7.539063-53.046875 14.503906-20.8125-7.082031-39.972657-18.3125-56.320313-33.011719zm281.261719 144.53125c-36.539063 27.285157-80.894531 42.070313-126.496094 42.164063h-24.421875c-45.601562-.09375-89.957031-14.878906-126.492187-42.164063l-27.453125-20.589843c-3.769532-2.828125-4.535156-8.175781-1.707032-11.945313.316407-.421875.671876-.8125 1.058594-1.167968l24.304688-22.316407c17.371094-15.832031 37.273437-28.644531 58.878906-37.902343 1.292969-.242188 2.515625-.785157 3.566406-1.578126 75.554688-31.207031 162.347656-15.8125 222.5625 39.480469l24.335938 22.316407c3.472656 3.183593 3.707031 8.582031.519531 12.054687-.355469.390625-.746094.742187-1.167969 1.058594zm45.667969-17.21875c3.449218-7.417968 2.941406-16.074218-1.355469-23.039062l18.515625-37.042969h49.1875l3.796875 7.59375c-17.386719 24.335938-41.894531 42.671875-70.144531 52.488281zm0 0" fill="url(#b)"/><path d="m290.136719 400.996094h-8.53125v-8.53125c0-4.714844-3.820313-8.535156-8.535157-8.535156-4.710937 0-8.53125 3.820312-8.53125 8.535156v8.53125h-17.066406v-8.53125c0-4.714844-3.820312-8.535156-8.535156-8.535156-4.710938 0-8.53125 3.820312-8.53125 8.535156v8.53125h-17.066406v-8.53125c0-4.714844-3.820313-8.535156-8.535156-8.535156-4.710938 0-8.53125 3.820312-8.53125 8.535156v8.53125h-17.066407v-8.53125c0-4.714844-3.820312-8.535156-8.53125-8.535156-4.714843 0-8.535156 3.820312-8.535156 8.535156v8.53125h-17.066406v-8.53125c0-4.714844-3.820313-8.535156-8.53125-8.535156-4.714844 0-8.535157 3.820312-8.535157 8.535156v8.53125h-8.535156c-4.710937 0-8.53125 3.820312-8.53125 8.535156 0 4.710938 3.820313 8.53125 8.53125 8.53125h8.535156v8.535156c0 4.710938 3.820313 8.53125 8.535157 8.53125 4.710937 0 8.53125-3.820312 8.53125-8.53125v-8.535156h17.066406v8.535156c0 4.710938 3.820313 8.53125 8.535156 8.53125 4.710938 0 8.53125-3.820312 8.53125-8.53125v-8.535156h17.066407v8.535156c0 4.710938 3.820312 8.53125 8.53125 8.53125 4.714843 0 8.535156-3.820312 8.535156-8.53125v-8.535156h17.066406v8.535156c0 4.710938 3.820312 8.53125 8.53125 8.53125 4.714844 0 8.535156-3.820312 8.535156-8.53125v-8.535156h17.066406v8.535156c0 4.710938 3.820313 8.53125 8.535157 8.53125 4.710937 0 8.53125-3.820312 8.53125-8.53125v-8.535156h8.535156c4.710937 0 8.53125-3.820312 8.53125-8.53125 0-4.714844-3.820313-8.535156-8.535156-8.535156zm0 0" fill="url(#c)"/></svg>