<svg height="512pt" viewBox="0 -81 512 512" width="512pt" xmlns="http://www.w3.org/2000/svg" xmlns:xlink="http://www.w3.org/1999/xlink"><linearGradient id="a"><stop offset="0" stop-color="#662d91"/><stop offset=".437" stop-color="#3873b3"/><stop offset="1" stop-color="#00c9dd"/></linearGradient><linearGradient id="b" gradientTransform="matrix(1.002065 0 0 -1.002065 0 431.451827)" gradientUnits="userSpaceOnUse" x1="38.4984" x2="415.0645" xlink:href="#a" y1="423.6261" y2="47.06"/><linearGradient id="c" gradientTransform="matrix(1.002065 0 0 -1.002065 0 431.451827)" gradientUnits="userSpaceOnUse" x1="44.0008" x2="420.5585" xlink:href="#a" y1="429.1201" y2="52.5625"/><path d="m332.800781.0195312h-55.007812c-1.300781-.0078124-2.589844.2851568-3.761719.8554688l-13.609375 6.679688-13.601563-6.679688c-2.375-1.167969-5.15625-1.167969-7.527343 0l-13.652344 6.679688-13.5625-6.679688c-2.371094-1.167969-5.152344-1.167969-7.527344 0l-13.652343 6.679688-13.652344-6.679688c-2.371094-1.167969-5.152344-1.167969-7.527344 0l-13.59375 6.679688-13.652344-6.679688c-2.371094-1.167969-5.152344-1.167969-7.527344 0l-13.601562 6.679688-13.507812-6.679688c-2.371094-1.167969-5.152344-1.167969-7.527344 0l-13.601563 6.679688-13.652343-6.679688c-1.167969-.570312-2.453126-.8632812-3.753907-.8554688h-60.765625c-4.714844 0-8.535156 3.8203128-8.535156 8.5351568v332.796874c0 4.714844 3.820312 8.535157 8.535156 8.535157h60.796875c1.300781.011719 2.585938-.28125 3.753907-.855469l13.65625-6.679688 13.601562 6.679688c2.371094 1.167969 5.152344 1.167969 7.527344 0l13.609375-6.679688 13.601562 6.679688c2.375 1.167969 5.152344 1.167969 7.527344 0l13.652344-6.679688 13.550781 6.679688c2.375 1.167969 5.152344 1.167969 7.527344 0l13.652344-6.679688 13.652343 6.679688c2.375 1.167969 5.152344 1.167969 7.527344 0l13.59375-6.679688 13.652344 6.679688c2.375 1.167969 5.152343 1.167969 7.527343 0l13.601563-6.679688 13.613281 6.679688c1.171875.574219 2.457032.867188 3.761719.855469h54.878906c97.742188 1.054687 177.898438-77.195313 179.199219-174.933594-1.300781-97.738281-81.457031-175.984375-179.199219-174.9335938zm-315.734375 204.8007808h325.621094c-13.585938 31.0625-44.25 51.152344-78.15625 51.199219h-247.464844zm331.09375-17.066406h-331.09375v-102.398437h247.464844c47.128906-.011719 85.34375 38.1875 85.351562 85.3125.003907 5.738281-.574218 11.464843-1.722656 17.085937zm-15.359375 145.066406h-53.027343l-15.597657-7.679687c-2.375-1.167969-5.152343-1.167969-7.527343 0l-13.601563 6.683594-13.613281-6.683594c-2.371094-1.167969-5.152344-1.167969-7.523438 0l-13.605468 6.683594-13.652344-6.683594c-2.367188-1.167969-5.140625-1.167969-7.507813 0l-13.652343 6.683594-13.535157-6.683594c-2.375-1.167969-5.152343-1.167969-7.527343 0l-13.609376 6.683594-13.601562-6.683594c-2.375-1.167969-5.15625-1.167969-7.527344 0l-13.652344 6.683594-13.585937-6.683594c-2.375-1.167969-5.152344-1.167969-7.527344 0l-15.574219 7.679687h-50.285156v-59.734374h247.464844c56.554688 0 102.402344-45.84375 102.402344-102.398438s-45.847656-102.398438-102.402344-102.398438h-247.464844v-51.203124h50.285156l15.601563 7.679687c2.371094 1.167969 5.152344 1.167969 7.523437 0l13.597657-6.679687 13.652343 6.679687c2.371094 1.167969 5.152344 1.167969 7.527344 0l13.601563-6.679687 13.609375 6.679687c2.375 1.167969 5.152344 1.167969 7.527344 0l13.601562-6.679687 13.652344 6.679687c2.367187 1.171875 5.144531 1.171875 7.511718 0l13.652344-6.679687 13.601563 6.679687c2.371093 1.167969 5.152343 1.167969 7.527343 0l13.609376-6.679687 13.601562 6.679687c2.375 1.167969 5.15625 1.167969 7.527344 0l15.597656-7.679687h52.925781c88.320313-1.0625 160.839844 69.550781 162.132813 157.867187-1.292969 88.316406-73.8125 158.929687-162.132813 157.867187zm0 0" fill="url(#b)"/><path d="m179.199219 110.953125c-14.136719 0-25.597657 11.460937-25.597657 25.601563 0 14.136718 11.460938 25.597656 25.597657 25.597656 14.140625 0 25.601562-11.460938 25.601562-25.597656 0-14.140626-11.460937-25.601563-25.601562-25.601563zm0 34.132813c-4.710938 0-8.53125-3.820313-8.53125-8.53125 0-4.714844 3.820312-8.535157 8.53125-8.535157 4.714843 0 8.535156 3.820313 8.535156 8.535157 0 4.710937-3.820313 8.53125-8.535156 8.53125zm0 0" fill="url(#c)"/></svg>